<svg width="800" height="940" viewBox="0 0 800 940" fill="none" xmlns="http://www.w3.org/2000/svg">
<rect width="800" height="940" fill="white"/>
<rect x="261.25" y="41.25" width="277.5" height="57.5" stroke="black" stroke-width="2.5"/>
<rect x="265.75" y="45.75" width="268.5" height="48.5" stroke="#C9C9C9" stroke-width="1.5"/>
<path d="M300.363 60.8H306.413V63.075H300.363V60.8ZM299.388 60.8H301.738V71.225C301.738 75 301.388 80.125 299.013 83.25C298.588 82.85 297.563 82.125 297.038 81.875C299.213 78.975 299.388 74.675 299.388 71.225V60.8ZM305.263 60.8H307.613V79.1C307.613 79.8 307.638 80.225 307.738 80.325C307.813 80.425 307.913 80.475 308.063 80.475C308.188 80.475 308.413 80.475 308.588 80.475C308.738 80.475 308.913 80.425 308.988 80.325C309.113 80.2 309.163 79.975 309.188 79.425C309.238 78.9 309.263 77.65 309.263 76.1C309.763 76.55 310.513 76.95 311.138 77.15C311.113 78.5 311.013 80.175 310.913 80.85C310.763 81.55 310.513 82 310.138 82.3C309.788 82.55 309.263 82.675 308.738 82.675C308.338 82.675 307.738 82.675 307.413 82.675C306.888 82.675 306.263 82.5 305.838 82.1C305.413 81.675 305.263 81.15 305.263 79.025V60.8ZM290.313 60.8H295.888V63H290.313V60.8ZM290.313 66.575H295.963V68.775H290.313V66.575ZM290.263 72.5H295.913V74.725H290.263V72.5ZM289.363 60.8H291.538V69.85C291.538 73.8 291.288 79.45 289.563 83.175C289.113 82.8 288.163 82.25 287.588 82.05C289.238 78.575 289.363 73.55 289.363 69.85V60.8ZM294.763 60.8H296.988V80.225C296.988 81.375 296.763 82.05 296.063 82.425C295.338 82.825 294.313 82.875 292.688 82.875C292.613 82.25 292.313 81.225 292.013 80.625C293.038 80.675 294.038 80.65 294.313 80.65C294.638 80.65 294.763 80.525 294.763 80.2V60.8ZM316.513 86.575V67.25H318.863L319.113 68.775H319.188C320.388 67.75 321.863 66.9 323.413 66.9C326.888 66.9 328.863 69.675 328.863 73.925C328.863 78.625 326.038 81.35 322.938 81.35C321.713 81.35 320.463 80.8 319.313 79.8L319.413 82.125V86.575H316.513ZM322.388 78.95C324.363 78.95 325.888 77.175 325.888 73.95C325.888 71.075 324.938 69.3 322.638 69.3C321.588 69.3 320.563 69.875 319.413 70.975V77.7C320.488 78.625 321.538 78.95 322.388 78.95ZM334.76 81V61.1H337.66V66.35L337.535 69.075C338.71 67.925 340.11 66.9 341.985 66.9C344.91 66.9 346.21 68.875 346.21 72.35V81H343.31V72.725C343.31 70.325 342.61 69.4 341.01 69.4C339.735 69.4 338.86 70.05 337.66 71.25V81H334.76ZM352.137 62.25H374.187V64.45H352.137V62.25ZM361.887 59.9H364.337V63.15H361.887V59.9ZM365.262 63.15H367.562V69.525C367.562 70.625 367.387 71.2 366.587 71.55C365.837 71.875 364.687 71.9 363.087 71.9C362.987 71.275 362.712 70.425 362.437 69.8C363.512 69.825 364.537 69.825 364.862 69.825C365.187 69.825 365.262 69.75 365.262 69.475V63.15ZM360.087 62.85H362.312V64.5C362.312 67.1 361.887 70.45 358.062 72.825C357.687 72.325 356.862 71.575 356.337 71.225C359.762 69.225 360.087 66.5 360.087 64.45V62.85ZM368.587 66.5L370.437 65.425C371.962 66.85 373.837 68.875 374.687 70.225L372.712 71.45C371.937 70.075 370.137 68 368.587 66.5ZM355.662 65.55L357.887 66.15C356.837 68.075 355.087 70.05 353.312 71.25C352.887 70.825 352.137 70.2 351.662 69.875C353.337 68.85 354.937 67.075 355.662 65.55ZM359.162 74.475C361.737 78.375 367.362 80.425 374.812 80.925C374.312 81.475 373.737 82.475 373.437 83.15C365.687 82.4 360.212 79.975 357.062 75.175L359.162 74.475ZM360.237 71.25L362.737 71.75C360.787 74.425 357.937 76.75 353.762 78.525C353.437 77.95 352.762 77.125 352.262 76.775C356.187 75.35 358.862 73.275 360.237 71.25ZM359.812 73.125H368.937V75.025H358.112L359.812 73.125ZM368.312 73.125H368.812L369.237 73.05L370.762 74.075C367.562 79.725 360.412 82.175 352.737 83.175C352.537 82.6 352.012 81.575 351.587 81.075C359.062 80.325 365.762 78.2 368.312 73.525V73.125ZM390.187 60.525H392.587V78.85C392.587 80.3 392.812 80.575 394.137 80.575C394.737 80.575 397.762 80.575 398.487 80.575C399.812 80.575 400.012 79.675 400.187 76.075C400.762 76.5 401.737 76.95 402.412 77.075C402.087 81.275 401.437 82.775 398.662 82.775C397.987 82.775 394.512 82.775 393.887 82.775C391.037 82.775 390.187 81.925 390.187 78.825V60.525ZM399.562 64.7L401.287 66.75C398.637 68.775 395.012 70.75 391.737 72.375C391.562 71.825 391.112 71.025 390.787 70.5C393.937 68.925 397.387 66.625 399.562 64.7ZM385.637 60.275L387.962 61.05C386.062 65.45 383.037 69.9 379.912 72.725C379.662 72.125 378.962 70.85 378.512 70.275C381.337 67.9 384.037 64.15 385.637 60.275ZM382.862 67.025L385.187 64.7L385.212 64.75V83.075H382.862V67.025ZM421.537 71.8H423.887V81.85H421.537V71.8ZM416.262 70.95H429.212V73H416.262V70.95ZM415.237 80.425H429.762V82.5H415.237V80.425ZM416.862 75.6H428.637V77.6H416.862V75.6ZM419.337 62.925V67.025H426.137V62.925H419.337ZM417.137 60.9H428.437V69.05H417.137V60.9ZM410.637 62.1H412.937V83.075H410.637V62.1ZM406.762 66.95H415.862V69.15H406.762V66.95ZM410.762 67.825L412.187 68.425C411.212 71.975 409.312 76.4 407.387 78.775C407.162 78.1 406.637 77.125 406.237 76.55C408.012 74.55 409.912 70.775 410.762 67.825ZM414.412 60.225L416.037 62.05C413.637 63 410.137 63.675 407.237 64.075C407.112 63.55 406.812 62.775 406.537 62.275C409.337 61.8 412.537 61.075 414.412 60.225ZM412.862 70.275C413.487 70.8 415.762 73.15 416.262 73.725L414.887 75.6C414.287 74.5 412.562 72.15 411.787 71.225L412.862 70.275ZM439.037 66.925H456.637V68.825H439.037V66.925ZM439.312 74.225H453.362V76.125H439.312V74.225ZM442.787 64.975H445.012V71.05H450.462V64.975H452.762V72.875H442.787V64.975ZM452.762 74.225H453.212L453.637 74.125L455.112 74.9C452.387 80.2 446.137 82.275 439.287 83.15C439.112 82.55 438.662 81.65 438.287 81.15C444.662 80.575 450.587 78.7 452.762 74.55V74.225ZM444.062 75.75C446.387 78.85 451.337 80.575 457.262 81.15C456.762 81.65 456.162 82.575 455.862 83.175C449.737 82.4 444.787 80.325 442.037 76.5L444.062 75.75ZM445.162 59.9H447.612V63.475H445.162V59.9ZM437.187 62.3H456.787V64.425H437.187V62.3ZM436.037 62.3H438.312V69.425C438.312 73.4 437.962 79.275 435.737 83.1C435.337 82.7 434.337 82.05 433.787 81.8C435.862 78.225 436.037 73.075 436.037 69.425V62.3ZM470.387 67.625V70.3H473.712V67.625H470.387ZM470.387 72.225V74.925H473.712V72.225H470.387ZM470.387 63.05V65.7H473.712V63.05H470.387ZM468.387 60.975H475.812V77H468.387V60.975ZM472.712 78.25L474.512 77.25C475.487 78.425 476.737 80.075 477.287 81.1L475.387 82.25C474.887 81.2 473.687 79.475 472.712 78.25ZM469.262 77.4L471.437 77.975C470.587 79.9 469.212 81.925 467.937 83.2C467.487 82.85 466.587 82.225 466.062 81.925C467.312 80.8 468.562 79.075 469.262 77.4ZM481.662 59.9H483.837V80.325C483.837 81.65 483.537 82.3 482.762 82.65C481.987 83.05 480.737 83.1 478.737 83.1C478.637 82.5 478.337 81.5 478.037 80.85C479.437 80.9 480.712 80.875 481.112 80.875C481.512 80.85 481.662 80.725 481.662 80.325V59.9ZM477.412 62.475H479.462V76.875H477.412V62.475ZM462.487 61.85L463.837 60.15C465.237 60.775 466.962 61.8 467.837 62.6L466.412 64.5C465.612 63.675 463.887 62.55 462.487 61.85ZM461.462 68.575L462.762 66.825C464.212 67.4 465.987 68.325 466.862 69.1L465.487 71.025C464.637 70.25 462.887 69.2 461.462 68.575ZM461.937 81.575C462.937 79.65 464.312 76.425 465.312 73.575L467.212 74.8C466.312 77.45 465.137 80.45 464.062 82.825L461.937 81.575ZM493.537 67.5H507.787V69.775H493.537V67.5ZM500.612 73.5H509.037V75.7H500.612V73.5ZM499.362 68.75H501.837V81.15L499.362 80.85V68.75ZM493.412 71.575L495.887 71.85C495.212 76.9 493.637 80.8 490.812 83.25C490.412 82.825 489.412 82 488.862 81.65C491.612 79.55 492.912 76.025 493.412 71.575ZM495.137 74.775C496.837 79.65 500.562 80.45 505.362 80.45C506.462 80.45 510.712 80.45 512.137 80.4C511.787 80.975 511.387 82.1 511.287 82.825H505.237C499.362 82.825 495.362 81.65 493.212 75.45L495.137 74.775ZM499.337 59.925H501.837V64.2H499.337V59.925ZM490.062 62.65H511.212V68.45H508.787V64.875H492.387V68.45H490.062V62.65Z" fill="#202020"/>
<rect x="500" y="212" width="76" height="148" fill="#7F7F7F"/>
<rect x="604" y="180" width="76" height="180" fill="#89325F"/>
<path d="M525.936 204.3C525.196 204.3 524.506 204.15 523.866 203.85C523.232 203.543 522.689 203.123 522.236 202.59C521.782 202.05 521.459 201.43 521.266 200.73L523.276 200.19C523.389 200.617 523.582 200.987 523.856 201.3C524.136 201.613 524.462 201.857 524.836 202.03C525.209 202.197 525.596 202.28 525.996 202.28C526.522 202.28 526.999 202.153 527.426 201.9C527.859 201.647 528.199 201.307 528.446 200.88C528.699 200.453 528.826 199.983 528.826 199.47C528.826 198.943 528.696 198.467 528.436 198.04C528.182 197.613 527.839 197.277 527.406 197.03C526.979 196.777 526.509 196.65 525.996 196.65C525.409 196.65 524.912 196.767 524.506 197C524.099 197.233 523.782 197.503 523.556 197.81L521.736 197.17L522.176 189.6H529.946V191.57H523.246L524.096 190.78L523.746 196.45L523.336 195.92C523.716 195.54 524.169 195.25 524.696 195.05C525.222 194.85 525.746 194.75 526.266 194.75C527.159 194.75 527.956 194.957 528.656 195.37C529.362 195.783 529.919 196.347 530.326 197.06C530.732 197.767 530.936 198.57 530.936 199.47C530.936 200.363 530.706 201.177 530.246 201.91C529.786 202.637 529.176 203.217 528.416 203.65C527.656 204.083 526.829 204.3 525.936 204.3ZM533.686 204V201.79H535.896V204H533.686ZM539.156 204V191.9L536.446 193.55V191.22L539.156 189.6H541.286V204H539.156ZM551.184 204V201.49H544.684V199.51L549.364 189.6H551.754L547.074 199.51H551.184V195.61H553.304V199.51H554.734V201.49H553.304V204H551.184Z" fill="#7F7F7F"/>
<path d="M623.972 169.36C623.084 169.36 622.256 169.18 621.488 168.82C620.728 168.452 620.076 167.948 619.532 167.308C618.988 166.66 618.6 165.916 618.368 165.076L620.78 164.428C620.916 164.94 621.148 165.384 621.476 165.76C621.812 166.136 622.204 166.428 622.652 166.636C623.1 166.836 623.564 166.936 624.044 166.936C624.676 166.936 625.248 166.784 625.76 166.48C626.28 166.176 626.688 165.768 626.984 165.256C627.288 164.744 627.44 164.18 627.44 163.564C627.44 162.932 627.284 162.36 626.972 161.848C626.668 161.336 626.256 160.932 625.736 160.636C625.224 160.332 624.66 160.18 624.044 160.18C623.34 160.18 622.744 160.32 622.256 160.6C621.768 160.88 621.388 161.204 621.116 161.572L618.932 160.804L619.46 151.72H628.784V154.084H620.744L621.764 153.136L621.344 159.94L620.852 159.304C621.308 158.848 621.852 158.5 622.484 158.26C623.116 158.02 623.744 157.9 624.368 157.9C625.44 157.9 626.396 158.148 627.236 158.644C628.084 159.14 628.752 159.816 629.24 160.672C629.728 161.52 629.972 162.484 629.972 163.564C629.972 164.636 629.696 165.612 629.144 166.492C628.592 167.364 627.86 168.06 626.948 168.58C626.036 169.1 625.044 169.36 623.972 169.36ZM633.272 169V166.348H635.924V169H633.272ZM647.027 169V165.988H639.227V163.612L644.843 151.72H647.711L642.095 163.612H647.027V158.932H649.571V163.612H651.287V165.988H649.571V169H647.027ZM661.371 169V165.988H653.571V163.612L659.187 151.72H662.055L656.439 163.612H661.371V158.932H663.915V163.612H665.631V165.988H663.915V169H661.371Z" fill="#852759"/>
<path d="M594.326 166.61L572.023 183.539" stroke="#842859" stroke-width="2"/>
<path d="M593.436 162.725L597.906 162.928C598.53 162.957 598.976 163.543 598.835 164.152L597.829 168.513C597.638 169.339 596.571 169.568 596.058 168.892L592.594 164.328C592.081 163.653 592.589 162.686 593.436 162.725Z" fill="#842859" stroke="#842859" stroke-width="2"/>
<path d="M530.176 381.376V382.848H544.256V381.376H530.176ZM534.304 391.008V392.48H542.096V391.008H534.304ZM533.408 385.728V393.376H534.912V387.2H541.536V393.296H543.12V385.728H533.408ZM535.584 378.496C534.768 382.48 533.056 386.704 529.632 389.04C529.936 389.344 530.416 389.888 530.64 390.24C534.304 387.632 536.128 383.184 537.168 378.8L535.584 378.496ZM553.28 383.552H555.312V385.296H553.28V383.552ZM553.28 386.448H555.312V388.208H553.28V386.448ZM553.28 380.688H555.312V382.4H553.28V380.688ZM552 379.456V389.424H556.656V379.456H552ZM554.688 390.224C555.216 391.072 555.808 392.24 556.048 392.944L557.216 392.256C556.96 391.568 556.32 390.464 555.776 389.632L554.688 390.224ZM557.744 380.208V389.696H559.056V380.208H557.744ZM560.384 378.736V391.616C560.384 391.856 560.304 391.936 560.08 391.936C559.84 391.936 559.136 391.952 558.368 391.92C558.56 392.32 558.752 392.96 558.8 393.36C559.936 393.36 560.672 393.312 561.136 393.056C561.6 392.832 561.776 392.416 561.776 391.616V378.736H560.384ZM552.864 389.632C552.48 390.528 551.696 391.744 550.928 392.432C551.264 392.656 551.744 393.04 552 393.28C552.736 392.544 553.6 391.312 554.128 390.288L552.864 389.632ZM550.352 378.56C549.616 380.976 548.384 383.392 547.04 384.944C547.28 385.344 547.664 386.176 547.792 386.544C549.392 384.656 550.848 381.744 551.76 378.96L550.352 378.56ZM549.072 382.688V393.344H550.512V381.328L550.48 381.296L549.072 382.688ZM573.6 381.072L571.904 381.024C571.744 382.688 571.392 384.512 570.928 386.032C570.176 388.496 569.424 389.552 568.704 389.552C568.032 389.552 567.232 388.704 567.232 386.864C567.232 384.656 569.28 381.824 572.752 381.824C575.696 381.824 577.376 383.792 577.376 386.336C577.376 388.912 575.536 390.416 573.488 390.896C573.088 390.976 572.624 391.056 572.064 391.12L573.008 392.608C576.912 392.064 579.056 389.76 579.056 386.4C579.056 383.04 576.624 380.352 572.784 380.352C568.768 380.352 565.632 383.44 565.632 387.008C565.632 389.68 567.072 391.456 568.656 391.456C570.256 391.456 571.568 389.632 572.544 386.368C573.072 384.592 573.392 382.72 573.6 381.072ZM588.304 390.976L588.624 392.368C590.016 392.048 591.808 391.664 593.504 391.28L593.392 390.016C591.52 390.384 589.6 390.752 588.304 390.976ZM588.608 385.024V386.336H593.024V385.024H588.608ZM588.544 381.616V383.008H597.264V381.616H588.544ZM594.912 379.184C595.488 379.824 596.128 380.688 596.4 381.28L597.504 380.656C597.2 380.08 596.544 379.232 595.968 378.64L594.912 379.184ZM590.144 385.52V391.28L591.552 390.992V385.52H590.144ZM593.36 378.512C593.424 387.488 593.696 393.28 596.096 393.36C596.672 393.376 597.344 392.8 597.696 390.336C597.456 390.192 596.848 389.776 596.608 389.44C596.528 390.72 596.384 391.488 596.16 391.488C595.12 391.408 594.736 385.872 594.816 378.512H593.36ZM583.264 383.376V384.544H587.904V383.376H583.264ZM583.328 379.04V380.208H587.824V379.04H583.328ZM583.264 385.536V386.704H587.904V385.536H583.264ZM582.544 381.152V382.384H588.288V381.152H582.544ZM583.936 387.712V388.944H586.608V391.248H583.936V392.48H587.888V387.712H583.936ZM583.248 387.712V393.168H584.512V387.712H583.248ZM608.592 385.904H613.2V387.744H608.592V385.904ZM607.328 384.784V388.864H614.512V384.784H607.328ZM610.8 379.84C611.632 381.2 613.12 382.704 614.528 383.584C614.72 383.168 615.04 382.624 615.312 382.288C613.872 381.552 612.368 380.048 611.424 378.512H610.08C609.376 379.952 607.888 381.648 606.352 382.528C606.608 382.848 606.928 383.376 607.072 383.744C608.624 382.768 610.048 381.184 610.8 379.84ZM610.192 383.024V386.224C610.192 388.368 609.792 390.736 606.368 392.304C606.672 392.56 607.104 393.056 607.296 393.376C611.072 391.568 611.536 388.8 611.536 386.24V383.024H610.192ZM611.728 388.176L610.576 388.48C611.2 390.656 612.416 392.432 614.24 393.328C614.448 392.96 614.896 392.416 615.216 392.144C613.504 391.456 612.304 389.968 611.728 388.176ZM608.4 382.48V383.68H613.36V382.48H608.4ZM601.664 381.552V382.72H606.4V381.552H601.664ZM601.664 383.968V385.136H606.4V383.968H601.664ZM600.944 386.4V387.6H606.352V386.4H600.944ZM603.568 379.84V387.056H604.784V379.84H603.568ZM604.144 388.4C604.48 389.04 604.832 389.92 604.944 390.496L605.632 390.224C605.488 389.68 605.152 388.816 604.784 388.176L604.144 388.4ZM603.104 388.64C603.376 389.456 603.616 390.544 603.664 391.248L604.4 391.072C604.336 390.384 604.08 389.328 603.792 388.512L603.104 388.64ZM601.968 388.752C602.112 389.712 602.192 390.912 602.144 391.728L602.896 391.616C602.928 390.832 602.848 389.616 602.672 388.672L601.968 388.752ZM600.816 388.464C600.752 389.824 600.56 391.216 600 392.016L600.8 392.464C601.44 391.584 601.616 390.08 601.696 388.624L600.816 388.464ZM600.944 379.136V387.2H602.208V380.384H606.736V379.136H600.944ZM605.696 386.4V386.624C605.552 390.352 605.392 391.68 605.136 392C605.008 392.144 604.896 392.192 604.704 392.192C604.496 392.192 604.064 392.176 603.568 392.128C603.76 392.448 603.872 392.96 603.904 393.328C604.464 393.344 605.008 393.344 605.328 393.296C605.712 393.264 605.968 393.136 606.224 392.816C606.608 392.336 606.784 390.88 606.944 386.944C606.96 386.768 606.96 386.4 606.96 386.4H605.696ZM626.672 379.44V393.36H628.144V380.864H631.408V379.44H626.672ZM618.192 380.176V381.504H625.872V380.176H618.192ZM617.808 384.624V386H626.08V384.624H617.808ZM621.28 378.592V380.992H622.752V378.592H621.28ZM619.152 382C619.472 382.8 619.728 383.84 619.776 384.528L621.12 384.208C621.024 383.536 620.752 382.512 620.416 381.744L619.152 382ZM623.616 381.648C623.44 382.432 623.104 383.536 622.816 384.24L624.016 384.56C624.336 383.888 624.688 382.896 625.04 381.968L623.616 381.648ZM619.344 391.168V392.496H624.464V391.168H619.344ZM618.816 387.248V393.36H620.224V388.576H623.792V393.296H625.264V387.248H618.816ZM631.024 379.44V379.936C630.592 381.152 629.792 383.472 629.04 385.072C630.528 386.416 630.944 387.6 630.944 388.544C630.944 389.12 630.832 389.536 630.512 389.728C630.336 389.84 630.112 389.888 629.872 389.904C629.584 389.92 629.184 389.904 628.768 389.872C629.008 390.304 629.152 390.944 629.168 391.36C629.632 391.376 630.128 391.376 630.512 391.328C630.928 391.28 631.28 391.152 631.584 390.96C632.16 390.56 632.416 389.792 632.416 388.72C632.4 387.616 632.064 386.352 630.576 384.88C631.264 383.456 632.048 381.6 632.656 380.08L631.552 379.376L631.312 379.44H631.024ZM644.16 378.704V382.384H645.68V378.704H644.16ZM640.16 381.536V382.976H649.92V381.536H640.16ZM641.392 384.128C641.936 386.24 642.4 388.96 642.48 390.56L643.968 390.24C643.856 388.656 643.328 385.984 642.752 383.904L641.392 384.128ZM647.04 383.776C646.656 386.144 645.872 389.424 645.168 391.408L646.528 391.712C647.248 389.776 648.112 386.624 648.672 384.048L647.04 383.776ZM639.792 391.2V392.64H650.288V391.2H639.792ZM639.072 378.544C638.16 380.896 636.624 383.216 635.056 384.688C635.312 385.056 635.744 385.872 635.888 386.24C637.664 384.448 639.408 381.696 640.496 379.008L639.072 378.544ZM637.456 382.8V393.312H638.896V381.376L638.88 381.36L637.456 382.8Z" fill="#202020"/>
<rect x="120" y="200" width="76" height="160" fill="#7F7F7F"/>
<rect x="224" y="180" width="76" height="180" fill="#89325F"/>
<path d="M142.889 188.3C142.149 188.3 141.459 188.15 140.819 187.85C140.185 187.543 139.642 187.123 139.189 186.59C138.735 186.05 138.412 185.43 138.219 184.73L140.229 184.19C140.342 184.617 140.535 184.987 140.809 185.3C141.089 185.613 141.415 185.857 141.789 186.03C142.162 186.197 142.549 186.28 142.949 186.28C143.475 186.28 143.952 186.153 144.379 185.9C144.812 185.647 145.152 185.307 145.399 184.88C145.652 184.453 145.779 183.983 145.779 183.47C145.779 182.943 145.649 182.467 145.389 182.04C145.135 181.613 144.792 181.277 144.359 181.03C143.932 180.777 143.462 180.65 142.949 180.65C142.362 180.65 141.865 180.767 141.459 181C141.052 181.233 140.735 181.503 140.509 181.81L138.689 181.17L139.129 173.6H146.899V175.57H140.199L141.049 174.78L140.699 180.45L140.289 179.92C140.669 179.54 141.122 179.25 141.649 179.05C142.175 178.85 142.699 178.75 143.219 178.75C144.112 178.75 144.909 178.957 145.609 179.37C146.315 179.783 146.872 180.347 147.279 181.06C147.685 181.767 147.889 182.57 147.889 183.47C147.889 184.363 147.659 185.177 147.199 185.91C146.739 186.637 146.129 187.217 145.369 187.65C144.609 188.083 143.782 188.3 142.889 188.3ZM150.658 188V185.79H152.868V188H150.658ZM155.621 187.99L155.631 186.13L161.901 180.51C162.408 180.063 162.751 179.637 162.931 179.23C163.118 178.823 163.211 178.417 163.211 178.01C163.211 177.497 163.098 177.037 162.871 176.63C162.644 176.217 162.331 175.89 161.931 175.65C161.531 175.41 161.071 175.29 160.551 175.29C160.018 175.29 159.541 175.417 159.121 175.67C158.708 175.917 158.384 176.247 158.151 176.66C157.918 177.073 157.804 177.52 157.811 178H155.671C155.671 177.067 155.881 176.25 156.301 175.55C156.728 174.843 157.311 174.293 158.051 173.9C158.791 173.5 159.638 173.3 160.591 173.3C161.498 173.3 162.311 173.507 163.031 173.92C163.751 174.327 164.318 174.887 164.731 175.6C165.151 176.313 165.361 177.127 165.361 178.04C165.361 178.7 165.274 179.26 165.101 179.72C164.928 180.18 164.668 180.607 164.321 181C163.974 181.393 163.541 181.82 163.021 182.28L158.181 186.6L157.951 186H165.361V187.99H155.621ZM172.709 188.3C171.776 188.3 170.936 188.08 170.189 187.64C169.443 187.193 168.849 186.583 168.409 185.81C167.976 185.037 167.759 184.157 167.759 183.17V178.58C167.759 177.533 167.976 176.613 168.409 175.82C168.849 175.027 169.456 174.41 170.229 173.97C171.009 173.53 171.906 173.31 172.919 173.31C173.679 173.31 174.393 173.453 175.059 173.74C175.726 174.027 176.303 174.453 176.789 175.02L175.259 176.45C174.986 176.097 174.643 175.817 174.229 175.61C173.823 175.397 173.386 175.29 172.919 175.29C172.319 175.29 171.793 175.433 171.339 175.72C170.886 176 170.529 176.37 170.269 176.83C170.016 177.29 169.889 177.783 169.889 178.31V180.95L169.479 180.49C169.893 179.95 170.406 179.523 171.019 179.21C171.633 178.897 172.289 178.74 172.989 178.74C173.883 178.74 174.679 178.95 175.379 179.37C176.086 179.783 176.639 180.347 177.039 181.06C177.446 181.773 177.649 182.577 177.649 183.47C177.649 184.37 177.423 185.187 176.969 185.92C176.523 186.647 175.923 187.227 175.169 187.66C174.423 188.087 173.603 188.3 172.709 188.3ZM172.709 186.29C173.229 186.29 173.703 186.163 174.129 185.91C174.556 185.657 174.896 185.317 175.149 184.89C175.403 184.463 175.529 183.99 175.529 183.47C175.529 182.95 175.403 182.477 175.149 182.05C174.903 181.623 174.566 181.283 174.139 181.03C173.713 180.777 173.239 180.65 172.719 180.65C172.199 180.65 171.723 180.777 171.289 181.03C170.863 181.283 170.523 181.623 170.269 182.05C170.016 182.477 169.889 182.95 169.889 183.47C169.889 183.983 170.016 184.453 170.269 184.88C170.523 185.307 170.863 185.65 171.289 185.91C171.716 186.163 172.189 186.29 172.709 186.29Z" fill="#7F7F7F"/>
<path d="M243.972 169.36C243.084 169.36 242.256 169.18 241.488 168.82C240.728 168.452 240.076 167.948 239.532 167.308C238.988 166.66 238.6 165.916 238.368 165.076L240.78 164.428C240.916 164.94 241.148 165.384 241.476 165.76C241.812 166.136 242.204 166.428 242.652 166.636C243.1 166.836 243.564 166.936 244.044 166.936C244.676 166.936 245.248 166.784 245.76 166.48C246.28 166.176 246.688 165.768 246.984 165.256C247.288 164.744 247.44 164.18 247.44 163.564C247.44 162.932 247.284 162.36 246.972 161.848C246.668 161.336 246.256 160.932 245.736 160.636C245.224 160.332 244.66 160.18 244.044 160.18C243.34 160.18 242.744 160.32 242.256 160.6C241.768 160.88 241.388 161.204 241.116 161.572L238.932 160.804L239.46 151.72H248.784V154.084H240.744L241.764 153.136L241.344 159.94L240.852 159.304C241.308 158.848 241.852 158.5 242.484 158.26C243.116 158.02 243.744 157.9 244.368 157.9C245.44 157.9 246.396 158.148 247.236 158.644C248.084 159.14 248.752 159.816 249.24 160.672C249.728 161.52 249.972 162.484 249.972 163.564C249.972 164.636 249.696 165.612 249.144 166.492C248.592 167.364 247.86 168.06 246.948 168.58C246.036 169.1 245.044 169.36 243.972 169.36ZM253.272 169V166.348H255.924V169H253.272ZM267.027 169V165.988H259.227V163.612L264.843 151.72H267.711L262.095 163.612H267.027V158.932H269.571V163.612H271.287V165.988H269.571V169H267.027ZM281.371 169V165.988H273.571V163.612L279.187 151.72H282.055L276.439 163.612H281.371V158.932H283.915V163.612H285.631V165.988H283.915V169H281.371Z" fill="#852759"/>
<path d="M213.049 169.069L193.116 178.38" stroke="#842859" stroke-width="2"/>
<path d="M212.997 165.084L217.325 166.224C217.928 166.383 218.24 167.051 217.975 167.616L216.072 171.667C215.712 172.434 214.62 172.433 214.261 171.665L211.836 166.474C211.477 165.706 212.177 164.867 212.997 165.084Z" fill="#842859" stroke="#842859" stroke-width="2"/>
<path d="M150.208 381.312V382.768H164.16V381.312H150.208ZM154.688 385.568V387.024H163.792V385.568H154.688ZM153.008 391.472V392.944H164.448V391.472H153.008ZM158.096 386.256V392.288H159.632V386.256H158.096ZM154.976 378.496C154.304 383.088 152.912 388.304 149.584 391.248C149.888 391.552 150.352 392.112 150.576 392.448C154.208 389.152 155.696 383.744 156.56 378.704L154.976 378.496ZM173.28 383.552H175.312V385.296H173.28V383.552ZM173.28 386.448H175.312V388.208H173.28V386.448ZM173.28 380.688H175.312V382.4H173.28V380.688ZM172 379.456V389.424H176.656V379.456H172ZM174.688 390.224C175.216 391.072 175.808 392.24 176.048 392.944L177.216 392.256C176.96 391.568 176.32 390.464 175.776 389.632L174.688 390.224ZM177.744 380.208V389.696H179.056V380.208H177.744ZM180.384 378.736V391.616C180.384 391.856 180.304 391.936 180.08 391.936C179.84 391.936 179.136 391.952 178.368 391.92C178.56 392.32 178.752 392.96 178.8 393.36C179.936 393.36 180.672 393.312 181.136 393.056C181.6 392.832 181.776 392.416 181.776 391.616V378.736H180.384ZM172.864 389.632C172.48 390.528 171.696 391.744 170.928 392.432C171.264 392.656 171.744 393.04 172 393.28C172.736 392.544 173.6 391.312 174.128 390.288L172.864 389.632ZM170.352 378.56C169.616 380.976 168.384 383.392 167.04 384.944C167.28 385.344 167.664 386.176 167.792 386.544C169.392 384.656 170.848 381.744 171.76 378.96L170.352 378.56ZM169.072 382.688V393.344H170.512V381.328L170.48 381.296L169.072 382.688ZM193.6 381.072L191.904 381.024C191.744 382.688 191.392 384.512 190.928 386.032C190.176 388.496 189.424 389.552 188.704 389.552C188.032 389.552 187.232 388.704 187.232 386.864C187.232 384.656 189.28 381.824 192.752 381.824C195.696 381.824 197.376 383.792 197.376 386.336C197.376 388.912 195.536 390.416 193.488 390.896C193.088 390.976 192.624 391.056 192.064 391.12L193.008 392.608C196.912 392.064 199.056 389.76 199.056 386.4C199.056 383.04 196.624 380.352 192.784 380.352C188.768 380.352 185.632 383.44 185.632 387.008C185.632 389.68 187.072 391.456 188.656 391.456C190.256 391.456 191.568 389.632 192.544 386.368C193.072 384.592 193.392 382.72 193.6 381.072ZM208.304 390.976L208.624 392.368C210.016 392.048 211.808 391.664 213.504 391.28L213.392 390.016C211.52 390.384 209.6 390.752 208.304 390.976ZM208.608 385.024V386.336H213.024V385.024H208.608ZM208.544 381.616V383.008H217.264V381.616H208.544ZM214.912 379.184C215.488 379.824 216.128 380.688 216.4 381.28L217.504 380.656C217.2 380.08 216.544 379.232 215.968 378.64L214.912 379.184ZM210.144 385.52V391.28L211.552 390.992V385.52H210.144ZM213.36 378.512C213.424 387.488 213.696 393.28 216.096 393.36C216.672 393.376 217.344 392.8 217.696 390.336C217.456 390.192 216.848 389.776 216.608 389.44C216.528 390.72 216.384 391.488 216.16 391.488C215.12 391.408 214.736 385.872 214.816 378.512H213.36ZM203.264 383.376V384.544H207.904V383.376H203.264ZM203.328 379.04V380.208H207.824V379.04H203.328ZM203.264 385.536V386.704H207.904V385.536H203.264ZM202.544 381.152V382.384H208.288V381.152H202.544ZM203.936 387.712V388.944H206.608V391.248H203.936V392.48H207.888V387.712H203.936ZM203.248 387.712V393.168H204.512V387.712H203.248ZM228.592 385.904H233.2V387.744H228.592V385.904ZM227.328 384.784V388.864H234.512V384.784H227.328ZM230.8 379.84C231.632 381.2 233.12 382.704 234.528 383.584C234.72 383.168 235.04 382.624 235.312 382.288C233.872 381.552 232.368 380.048 231.424 378.512H230.08C229.376 379.952 227.888 381.648 226.352 382.528C226.608 382.848 226.928 383.376 227.072 383.744C228.624 382.768 230.048 381.184 230.8 379.84ZM230.192 383.024V386.224C230.192 388.368 229.792 390.736 226.368 392.304C226.672 392.56 227.104 393.056 227.296 393.376C231.072 391.568 231.536 388.8 231.536 386.24V383.024H230.192ZM231.728 388.176L230.576 388.48C231.2 390.656 232.416 392.432 234.24 393.328C234.448 392.96 234.896 392.416 235.216 392.144C233.504 391.456 232.304 389.968 231.728 388.176ZM228.4 382.48V383.68H233.36V382.48H228.4ZM221.664 381.552V382.72H226.4V381.552H221.664ZM221.664 383.968V385.136H226.4V383.968H221.664ZM220.944 386.4V387.6H226.352V386.4H220.944ZM223.568 379.84V387.056H224.784V379.84H223.568ZM224.144 388.4C224.48 389.04 224.832 389.92 224.944 390.496L225.632 390.224C225.488 389.68 225.152 388.816 224.784 388.176L224.144 388.4ZM223.104 388.64C223.376 389.456 223.616 390.544 223.664 391.248L224.4 391.072C224.336 390.384 224.08 389.328 223.792 388.512L223.104 388.64ZM221.968 388.752C222.112 389.712 222.192 390.912 222.144 391.728L222.896 391.616C222.928 390.832 222.848 389.616 222.672 388.672L221.968 388.752ZM220.816 388.464C220.752 389.824 220.56 391.216 220 392.016L220.8 392.464C221.44 391.584 221.616 390.08 221.696 388.624L220.816 388.464ZM220.944 379.136V387.2H222.208V380.384H226.736V379.136H220.944ZM225.696 386.4V386.624C225.552 390.352 225.392 391.68 225.136 392C225.008 392.144 224.896 392.192 224.704 392.192C224.496 392.192 224.064 392.176 223.568 392.128C223.76 392.448 223.872 392.96 223.904 393.328C224.464 393.344 225.008 393.344 225.328 393.296C225.712 393.264 225.968 393.136 226.224 392.816C226.608 392.336 226.784 390.88 226.944 386.944C226.96 386.768 226.96 386.4 226.96 386.4H225.696ZM246.672 379.44V393.36H248.144V380.864H251.408V379.44H246.672ZM238.192 380.176V381.504H245.872V380.176H238.192ZM237.808 384.624V386H246.08V384.624H237.808ZM241.28 378.592V380.992H242.752V378.592H241.28ZM239.152 382C239.472 382.8 239.728 383.84 239.776 384.528L241.12 384.208C241.024 383.536 240.752 382.512 240.416 381.744L239.152 382ZM243.616 381.648C243.44 382.432 243.104 383.536 242.816 384.24L244.016 384.56C244.336 383.888 244.688 382.896 245.04 381.968L243.616 381.648ZM239.344 391.168V392.496H244.464V391.168H239.344ZM238.816 387.248V393.36H240.224V388.576H243.792V393.296H245.264V387.248H238.816ZM251.024 379.44V379.936C250.592 381.152 249.792 383.472 249.04 385.072C250.528 386.416 250.944 387.6 250.944 388.544C250.944 389.12 250.832 389.536 250.512 389.728C250.336 389.84 250.112 389.888 249.872 389.904C249.584 389.92 249.184 389.904 248.768 389.872C249.008 390.304 249.152 390.944 249.168 391.36C249.632 391.376 250.128 391.376 250.512 391.328C250.928 391.28 251.28 391.152 251.584 390.96C252.16 390.56 252.416 389.792 252.416 388.72C252.4 387.616 252.064 386.352 250.576 384.88C251.264 383.456 252.048 381.6 252.656 380.08L251.552 379.376L251.312 379.44H251.024ZM264.16 378.704V382.384H265.68V378.704H264.16ZM260.16 381.536V382.976H269.92V381.536H260.16ZM261.392 384.128C261.936 386.24 262.4 388.96 262.48 390.56L263.968 390.24C263.856 388.656 263.328 385.984 262.752 383.904L261.392 384.128ZM267.04 383.776C266.656 386.144 265.872 389.424 265.168 391.408L266.528 391.712C267.248 389.776 268.112 386.624 268.672 384.048L267.04 383.776ZM259.792 391.2V392.64H270.288V391.2H259.792ZM259.072 378.544C258.16 380.896 256.624 383.216 255.056 384.688C255.312 385.056 255.744 385.872 255.888 386.24C257.664 384.448 259.408 381.696 260.496 379.008L259.072 378.544ZM257.456 382.8V393.312H258.896V381.376L258.88 381.36L257.456 382.8Z" fill="#202020"/>
<rect x="278.25" y="501.25" width="277.5" height="57.5" stroke="black" stroke-width="2.5"/>
<rect x="282.75" y="505.75" width="268.5" height="48.5" stroke="#C9C9C9" stroke-width="1.5"/>
<path d="M306.708 520.8H312.758V523.075H306.708V520.8ZM305.733 520.8H308.083V531.225C308.083 535 307.733 540.125 305.358 543.25C304.933 542.85 303.908 542.125 303.383 541.875C305.558 538.975 305.733 534.675 305.733 531.225V520.8ZM311.608 520.8H313.958V539.1C313.958 539.8 313.983 540.225 314.083 540.325C314.158 540.425 314.258 540.475 314.408 540.475C314.533 540.475 314.758 540.475 314.933 540.475C315.083 540.475 315.258 540.425 315.333 540.325C315.458 540.2 315.508 539.975 315.533 539.425C315.583 538.9 315.608 537.65 315.608 536.1C316.108 536.55 316.858 536.95 317.483 537.15C317.458 538.5 317.358 540.175 317.258 540.85C317.108 541.55 316.858 542 316.483 542.3C316.133 542.55 315.608 542.675 315.083 542.675C314.683 542.675 314.083 542.675 313.758 542.675C313.233 542.675 312.608 542.5 312.183 542.1C311.758 541.675 311.608 541.15 311.608 539.025V520.8ZM296.658 520.8H302.233V523H296.658V520.8ZM296.658 526.575H302.308V528.775H296.658V526.575ZM296.608 532.5H302.258V534.725H296.608V532.5ZM295.708 520.8H297.883V529.85C297.883 533.8 297.633 539.45 295.908 543.175C295.458 542.8 294.508 542.25 293.933 542.05C295.583 538.575 295.708 533.55 295.708 529.85V520.8ZM301.108 520.8H303.333V540.225C303.333 541.375 303.108 542.05 302.408 542.425C301.683 542.825 300.658 542.875 299.033 542.875C298.958 542.25 298.658 541.225 298.358 540.625C299.383 540.675 300.383 540.65 300.658 540.65C300.983 540.65 301.108 540.525 301.108 540.2V520.8ZM322.858 546.575V527.25H325.208L325.458 528.775H325.533C326.733 527.75 328.208 526.9 329.758 526.9C333.233 526.9 335.208 529.675 335.208 533.925C335.208 538.625 332.383 541.35 329.283 541.35C328.058 541.35 326.808 540.8 325.658 539.8L325.758 542.125V546.575H322.858ZM328.733 538.95C330.708 538.95 332.233 537.175 332.233 533.95C332.233 531.075 331.283 529.3 328.983 529.3C327.933 529.3 326.908 529.875 325.758 530.975V537.7C326.833 538.625 327.883 538.95 328.733 538.95ZM341.106 541V521.1H344.006V526.35L343.881 529.075C345.056 527.925 346.456 526.9 348.331 526.9C351.256 526.9 352.556 528.875 352.556 532.35V541H349.656V532.725C349.656 530.325 348.956 529.4 347.356 529.4C346.081 529.4 345.206 530.05 344.006 531.25V541H341.106ZM358.483 522.25H380.533V524.45H358.483V522.25ZM368.233 519.9H370.683V523.15H368.233V519.9ZM371.608 523.15H373.908V529.525C373.908 530.625 373.733 531.2 372.933 531.55C372.183 531.875 371.033 531.9 369.433 531.9C369.333 531.275 369.058 530.425 368.783 529.8C369.858 529.825 370.883 529.825 371.208 529.825C371.533 529.825 371.608 529.75 371.608 529.475V523.15ZM366.433 522.85H368.658V524.5C368.658 527.1 368.233 530.45 364.408 532.825C364.033 532.325 363.208 531.575 362.683 531.225C366.108 529.225 366.433 526.5 366.433 524.45V522.85ZM374.933 526.5L376.783 525.425C378.308 526.85 380.183 528.875 381.033 530.225L379.058 531.45C378.283 530.075 376.483 528 374.933 526.5ZM362.008 525.55L364.233 526.15C363.183 528.075 361.433 530.05 359.658 531.25C359.233 530.825 358.483 530.2 358.008 529.875C359.683 528.85 361.283 527.075 362.008 525.55ZM365.508 534.475C368.083 538.375 373.708 540.425 381.158 540.925C380.658 541.475 380.083 542.475 379.783 543.15C372.033 542.4 366.558 539.975 363.408 535.175L365.508 534.475ZM366.583 531.25L369.083 531.75C367.133 534.425 364.283 536.75 360.108 538.525C359.783 537.95 359.108 537.125 358.608 536.775C362.533 535.35 365.208 533.275 366.583 531.25ZM366.158 533.125H375.283V535.025H364.458L366.158 533.125ZM374.658 533.125H375.158L375.583 533.05L377.108 534.075C373.908 539.725 366.758 542.175 359.083 543.175C358.883 542.6 358.358 541.575 357.933 541.075C365.408 540.325 372.108 538.2 374.658 533.525V533.125ZM396.533 520.525H398.933V538.85C398.933 540.3 399.158 540.575 400.483 540.575C401.083 540.575 404.108 540.575 404.833 540.575C406.158 540.575 406.358 539.675 406.533 536.075C407.108 536.5 408.083 536.95 408.758 537.075C408.433 541.275 407.783 542.775 405.008 542.775C404.333 542.775 400.858 542.775 400.233 542.775C397.383 542.775 396.533 541.925 396.533 538.825V520.525ZM405.908 524.7L407.633 526.75C404.983 528.775 401.358 530.75 398.083 532.375C397.908 531.825 397.458 531.025 397.133 530.5C400.283 528.925 403.733 526.625 405.908 524.7ZM391.983 520.275L394.308 521.05C392.408 525.45 389.383 529.9 386.258 532.725C386.008 532.125 385.308 530.85 384.858 530.275C387.683 527.9 390.383 524.15 391.983 520.275ZM389.208 527.025L391.533 524.7L391.558 524.75V543.075H389.208V527.025ZM423.183 519.925H425.608V523.425H423.183V519.925ZM423.183 534.35H425.608V543.175H423.183V534.35ZM413.258 536.15H435.708V538.325H413.258V536.15ZM414.058 522.55H434.983V524.725H414.058V522.55ZM432.783 525.225L434.858 526.275C433.583 527.45 432.033 528.6 430.833 529.4L429.108 528.425C430.283 527.575 431.883 526.25 432.783 525.225ZM422.858 524.15L424.883 524.925C423.908 526.225 422.783 527.625 421.883 528.55L420.383 527.875C421.208 526.85 422.258 525.25 422.858 524.15ZM426.558 526.025L428.408 526.9C426.383 529.325 423.658 532.2 421.508 533.975L420.108 533.175C422.258 531.325 424.958 528.275 426.558 526.025ZM419.233 527.975L420.358 526.625C421.783 527.475 423.708 528.775 424.633 529.675L423.433 531.225C422.558 530.3 420.683 528.925 419.233 527.975ZM418.958 532.45C421.408 532.375 425.083 532.2 428.708 532.025L428.683 533.725C425.308 534 421.883 534.25 419.283 534.425L418.958 532.45ZM425.733 530.45L427.408 529.7C428.583 531.1 429.908 532.975 430.408 534.25L428.608 535.125C428.133 533.85 426.883 531.875 425.733 530.45ZM413.083 532.95C414.683 532.375 417.083 531.425 419.408 530.475L419.833 532.25C417.908 533.175 415.883 534.125 414.233 534.85L413.083 532.95ZM413.908 526.825L415.483 525.55C416.833 526.275 418.583 527.4 419.433 528.2L417.783 529.65C416.983 528.825 415.283 527.625 413.908 526.825ZM428.608 531.55L430.233 530.225C432.058 531.15 434.508 532.575 435.758 533.575L434.033 535.05C432.883 534.025 430.483 532.525 428.608 531.55ZM449.233 527.625V530.3H452.558V527.625H449.233ZM449.233 532.225V534.925H452.558V532.225H449.233ZM449.233 523.05V525.7H452.558V523.05H449.233ZM447.233 520.975H454.658V537H447.233V520.975ZM451.558 538.25L453.358 537.25C454.333 538.425 455.583 540.075 456.133 541.1L454.233 542.25C453.733 541.2 452.533 539.475 451.558 538.25ZM448.108 537.4L450.283 537.975C449.433 539.9 448.058 541.925 446.783 543.2C446.333 542.85 445.433 542.225 444.908 541.925C446.158 540.8 447.408 539.075 448.108 537.4ZM460.508 519.9H462.683V540.325C462.683 541.65 462.383 542.3 461.608 542.65C460.833 543.05 459.583 543.1 457.583 543.1C457.483 542.5 457.183 541.5 456.883 540.85C458.283 540.9 459.558 540.875 459.958 540.875C460.358 540.85 460.508 540.725 460.508 540.325V519.9ZM456.258 522.475H458.308V536.875H456.258V522.475ZM441.333 521.85L442.683 520.15C444.083 520.775 445.808 521.8 446.683 522.6L445.258 524.5C444.458 523.675 442.733 522.55 441.333 521.85ZM440.308 528.575L441.608 526.825C443.058 527.4 444.833 528.325 445.708 529.1L444.333 531.025C443.483 530.25 441.733 529.2 440.308 528.575ZM440.783 541.575C441.783 539.65 443.158 536.425 444.158 533.575L446.058 534.8C445.158 537.45 443.983 540.45 442.908 542.825L440.783 541.575ZM472.383 527.5H486.633V529.775H472.383V527.5ZM479.458 533.5H487.883V535.7H479.458V533.5ZM478.208 528.75H480.683V541.15L478.208 540.85V528.75ZM472.258 531.575L474.733 531.85C474.058 536.9 472.483 540.8 469.658 543.25C469.258 542.825 468.258 542 467.708 541.65C470.458 539.55 471.758 536.025 472.258 531.575ZM473.983 534.775C475.683 539.65 479.408 540.45 484.208 540.45C485.308 540.45 489.558 540.45 490.983 540.4C490.633 540.975 490.233 542.1 490.133 542.825H484.083C478.208 542.825 474.208 541.65 472.058 535.45L473.983 534.775ZM478.183 519.925H480.683V524.2H478.183V519.925ZM468.908 522.65H490.058V528.45H487.633V524.875H471.233V528.45H468.908V522.65ZM500.408 545.975C498.058 542.2 496.683 538.15 496.683 533.2C496.683 528.25 498.058 524.2 500.408 520.4L502.183 521.2C500.058 524.8 499.058 529.025 499.058 533.2C499.058 537.375 500.058 541.6 502.183 545.2L500.408 545.975ZM511.094 533.9C508.519 533.9 506.769 531.75 506.769 528.05C506.769 524.375 508.519 522.275 511.094 522.275C513.669 522.275 515.419 524.375 515.419 528.05C515.419 531.75 513.669 533.9 511.094 533.9ZM511.094 532.2C512.369 532.2 513.294 530.875 513.294 528.05C513.294 525.225 512.369 523.95 511.094 523.95C509.794 523.95 508.869 525.225 508.869 528.05C508.869 530.875 509.794 532.2 511.094 532.2ZM511.644 541.35L521.744 522.275H523.569L513.469 541.35H511.644ZM524.169 541.35C521.594 541.35 519.844 539.225 519.844 535.5C519.844 531.825 521.594 529.7 524.169 529.7C526.719 529.7 528.469 531.825 528.469 535.5C528.469 539.225 526.719 541.35 524.169 541.35ZM524.169 539.65C525.444 539.65 526.369 538.325 526.369 535.5C526.369 532.65 525.444 531.425 524.169 531.425C522.869 531.425 521.944 532.65 521.944 535.5C521.944 538.325 522.869 539.65 524.169 539.65ZM534.83 545.975L533.03 545.2C535.155 541.6 536.18 537.375 536.18 533.2C536.18 529.025 535.155 524.8 533.03 521.2L534.83 520.4C537.155 524.2 538.53 528.25 538.53 533.2C538.53 538.15 537.155 542.2 534.83 545.975Z" fill="#202020"/>
<path d="M140 619H124" stroke="#7F7F7F" stroke-width="2"/>
<path d="M140 709H124" stroke="#7F7F7F" stroke-width="2"/>
<path d="M140 799H124" stroke="#7F7F7F" stroke-width="2"/>
<path d="M140 649H124" stroke="#7F7F7F" stroke-width="2"/>
<path d="M140 739H124" stroke="#7F7F7F" stroke-width="2"/>
<path d="M140 829H124" stroke="#7F7F7F" stroke-width="2"/>
<path d="M140 679H124" stroke="#7F7F7F" stroke-width="2"/>
<path d="M140 769H124" stroke="#7F7F7F" stroke-width="2"/>
<path d="M140 859H124" stroke="#7F7F7F" stroke-width="2"/>
<path d="M124 618V860" stroke="#7F7F7F" stroke-width="2"/>
<path d="M110.111 628.24C109.365 628.24 108.693 628.064 108.095 627.712C107.498 627.355 107.023 626.867 106.671 626.248C106.325 625.629 106.151 624.925 106.151 624.136V620.464C106.151 619.627 106.325 618.891 106.671 618.256C107.023 617.621 107.509 617.128 108.127 616.776C108.751 616.424 109.469 616.248 110.279 616.248C110.887 616.248 111.458 616.363 111.991 616.592C112.525 616.821 112.986 617.163 113.375 617.616L112.151 618.76C111.933 618.477 111.658 618.253 111.327 618.088C111.002 617.917 110.653 617.832 110.279 617.832C109.799 617.832 109.378 617.947 109.015 618.176C108.653 618.4 108.367 618.696 108.159 619.064C107.957 619.432 107.855 619.827 107.855 620.248V622.36L107.527 621.992C107.858 621.56 108.269 621.219 108.759 620.968C109.25 620.717 109.775 620.592 110.335 620.592C111.05 620.592 111.687 620.76 112.247 621.096C112.813 621.427 113.255 621.877 113.575 622.448C113.901 623.019 114.063 623.661 114.063 624.376C114.063 625.096 113.882 625.749 113.519 626.336C113.162 626.917 112.682 627.381 112.079 627.728C111.482 628.069 110.826 628.24 110.111 628.24ZM110.111 626.632C110.527 626.632 110.906 626.531 111.247 626.328C111.589 626.125 111.861 625.853 112.063 625.512C112.266 625.171 112.367 624.792 112.367 624.376C112.367 623.96 112.266 623.581 112.063 623.24C111.866 622.899 111.597 622.627 111.255 622.424C110.914 622.221 110.535 622.12 110.119 622.12C109.703 622.12 109.322 622.221 108.975 622.424C108.634 622.627 108.362 622.899 108.159 623.24C107.957 623.581 107.855 623.96 107.855 624.376C107.855 624.787 107.957 625.163 108.159 625.504C108.362 625.845 108.634 626.12 108.975 626.328C109.317 626.531 109.695 626.632 110.111 626.632Z" fill="black"/>
<path d="M109.872 658.24C109.28 658.24 108.728 658.12 108.216 657.88C107.709 657.635 107.275 657.299 106.912 656.872C106.549 656.44 106.291 655.944 106.136 655.384L107.744 654.952C107.835 655.293 107.989 655.589 108.208 655.84C108.432 656.091 108.693 656.285 108.992 656.424C109.291 656.557 109.6 656.624 109.92 656.624C110.341 656.624 110.723 656.523 111.064 656.32C111.411 656.117 111.683 655.845 111.88 655.504C112.083 655.163 112.184 654.787 112.184 654.376C112.184 653.955 112.08 653.573 111.872 653.232C111.669 652.891 111.395 652.621 111.048 652.424C110.707 652.221 110.331 652.12 109.92 652.12C109.451 652.12 109.053 652.213 108.728 652.4C108.403 652.587 108.149 652.803 107.968 653.048L106.512 652.536L106.864 646.48H113.08V648.056H107.72L108.4 647.424L108.12 651.96L107.792 651.536C108.096 651.232 108.459 651 108.88 650.84C109.301 650.68 109.72 650.6 110.136 650.6C110.851 650.6 111.488 650.765 112.048 651.096C112.613 651.427 113.059 651.877 113.384 652.448C113.709 653.013 113.872 653.656 113.872 654.376C113.872 655.091 113.688 655.741 113.32 656.328C112.952 656.909 112.464 657.373 111.856 657.72C111.248 658.067 110.587 658.24 109.872 658.24Z" fill="black"/>
<path d="M111.18 688V685.992H105.98V684.408L109.724 676.48H111.636L107.892 684.408H111.18V681.288H112.876V684.408H114.02V685.992H112.876V688H111.18Z" fill="black"/>
<path d="M109.766 718.216C109.195 718.216 108.659 718.109 108.158 717.896C107.657 717.677 107.222 717.368 106.854 716.968C106.491 716.568 106.227 716.096 106.062 715.552L107.678 715.104C107.833 715.6 108.102 715.981 108.486 716.248C108.87 716.509 109.297 716.637 109.766 716.632C110.187 716.627 110.558 716.528 110.878 716.336C111.198 716.144 111.449 715.885 111.63 715.56C111.811 715.229 111.902 714.851 111.902 714.424C111.902 713.784 111.702 713.256 111.302 712.84C110.907 712.424 110.39 712.216 109.75 712.216C109.569 712.216 109.382 712.243 109.19 712.296C109.003 712.349 108.827 712.419 108.662 712.504L107.878 711.184L111.942 707.592L112.118 708.072H106.518V706.48H113.446V708.072L110.07 711.32L110.054 710.776C110.779 710.776 111.409 710.939 111.942 711.264C112.475 711.584 112.886 712.021 113.174 712.576C113.467 713.125 113.614 713.741 113.614 714.424C113.614 715.16 113.441 715.813 113.094 716.384C112.753 716.955 112.291 717.403 111.71 717.728C111.134 718.053 110.486 718.216 109.766 718.216Z" fill="black"/>
<path d="M106.105 747.992L106.113 746.504L111.129 742.008C111.534 741.651 111.809 741.309 111.953 740.984C112.102 740.659 112.177 740.333 112.177 740.008C112.177 739.597 112.086 739.229 111.905 738.904C111.723 738.573 111.473 738.312 111.153 738.12C110.833 737.928 110.465 737.832 110.049 737.832C109.622 737.832 109.241 737.933 108.905 738.136C108.574 738.333 108.315 738.597 108.129 738.928C107.942 739.259 107.851 739.616 107.857 740H106.145C106.145 739.253 106.313 738.6 106.649 738.04C106.99 737.475 107.457 737.035 108.049 736.72C108.641 736.4 109.318 736.24 110.081 736.24C110.806 736.24 111.457 736.405 112.033 736.736C112.609 737.061 113.062 737.509 113.393 738.08C113.729 738.651 113.897 739.301 113.897 740.032C113.897 740.56 113.827 741.008 113.689 741.376C113.55 741.744 113.342 742.085 113.065 742.4C112.787 742.715 112.441 743.056 112.025 743.424L108.153 746.88L107.969 746.4H113.897V747.992H106.105Z" fill="black"/>
<path d="M109.753 778V768.32L107.585 769.64V767.776L109.753 766.48H111.457V778H109.753Z" fill="black"/>
<path d="M110.003 808.24C109.219 808.24 108.526 808.069 107.923 807.728C107.321 807.381 106.846 806.907 106.499 806.304C106.158 805.701 105.987 805.008 105.987 804.224V800.256C105.987 799.472 106.158 798.779 106.499 798.176C106.846 797.573 107.321 797.101 107.923 796.76C108.526 796.413 109.219 796.24 110.003 796.24C110.787 796.24 111.481 796.413 112.083 796.76C112.686 797.101 113.158 797.573 113.499 798.176C113.846 798.779 114.019 799.472 114.019 800.256V804.224C114.019 805.008 113.846 805.701 113.499 806.304C113.158 806.907 112.686 807.381 112.083 807.728C111.481 808.069 110.787 808.24 110.003 808.24ZM110.003 806.64C110.43 806.64 110.817 806.539 111.163 806.336C111.515 806.128 111.795 805.851 112.003 805.504C112.211 805.152 112.315 804.76 112.315 804.328V800.136C112.315 799.709 112.211 799.323 112.003 798.976C111.795 798.624 111.515 798.347 111.163 798.144C110.817 797.936 110.43 797.832 110.003 797.832C109.577 797.832 109.187 797.936 108.835 798.144C108.489 798.347 108.211 798.624 108.003 798.976C107.795 799.323 107.691 799.709 107.691 800.136V804.328C107.691 804.76 107.795 805.152 108.003 805.504C108.211 805.851 108.489 806.128 108.835 806.336C109.187 806.539 109.577 806.64 110.003 806.64Z" fill="black"/>
<path d="M104.226 833.624V832.28H109.026V833.624H104.226ZM113.112 838V828.32L110.944 829.64V827.776L113.112 826.48H114.816V838H113.112Z" fill="black"/>
<path d="M102.905 863.624V862.28H107.705V863.624H102.905ZM109.464 867.992L109.472 866.504L114.488 862.008C114.893 861.651 115.168 861.309 115.312 860.984C115.461 860.659 115.536 860.333 115.536 860.008C115.536 859.597 115.445 859.229 115.264 858.904C115.083 858.573 114.832 858.312 114.512 858.12C114.192 857.928 113.824 857.832 113.408 857.832C112.981 857.832 112.6 857.933 112.264 858.136C111.933 858.333 111.675 858.597 111.488 858.928C111.301 859.259 111.211 859.616 111.216 860H109.504C109.504 859.253 109.672 858.6 110.008 858.04C110.349 857.475 110.816 857.035 111.408 856.72C112 856.4 112.677 856.24 113.44 856.24C114.165 856.24 114.816 856.405 115.392 856.736C115.968 857.061 116.421 857.509 116.752 858.08C117.088 858.651 117.256 859.301 117.256 860.032C117.256 860.56 117.187 861.008 117.048 861.376C116.909 861.744 116.701 862.085 116.424 862.4C116.147 862.715 115.8 863.056 115.384 863.424L111.512 866.88L111.328 866.4H117.256V867.992H109.464Z" fill="black"/>
<rect x="160" y="800" width="76" height="60" fill="#7F7F7F"/>
<path d="M189 788.3C188.02 788.3 187.153 788.087 186.4 787.66C185.647 787.227 185.053 786.633 184.62 785.88C184.193 785.127 183.98 784.26 183.98 783.28V778.32C183.98 777.34 184.193 776.473 184.62 775.72C185.053 774.967 185.647 774.377 186.4 773.95C187.153 773.517 188.02 773.3 189 773.3C189.98 773.3 190.847 773.517 191.6 773.95C192.353 774.377 192.943 774.967 193.37 775.72C193.803 776.473 194.02 777.34 194.02 778.32V783.28C194.02 784.26 193.803 785.127 193.37 785.88C192.943 786.633 192.353 787.227 191.6 787.66C190.847 788.087 189.98 788.3 189 788.3ZM189 786.3C189.533 786.3 190.017 786.173 190.45 785.92C190.89 785.66 191.24 785.313 191.5 784.88C191.76 784.44 191.89 783.95 191.89 783.41V778.17C191.89 777.637 191.76 777.153 191.5 776.72C191.24 776.28 190.89 775.933 190.45 775.68C190.017 775.42 189.533 775.29 189 775.29C188.467 775.29 187.98 775.42 187.54 775.68C187.107 775.933 186.76 776.28 186.5 776.72C186.24 777.153 186.11 777.637 186.11 778.17V783.41C186.11 783.95 186.24 784.44 186.5 784.88C186.76 785.313 187.107 785.66 187.54 785.92C187.98 786.173 188.467 786.3 189 786.3ZM198.612 788L197.212 786.6L210.222 773.6L211.622 775.01L198.612 788ZM208.622 788.3C207.962 788.3 207.359 788.14 206.812 787.82C206.272 787.493 205.839 787.06 205.512 786.52C205.185 785.973 205.022 785.367 205.022 784.7C205.022 784.047 205.189 783.447 205.522 782.9C205.855 782.353 206.295 781.917 206.842 781.59C207.389 781.263 207.982 781.1 208.622 781.1C209.282 781.1 209.885 781.263 210.432 781.59C210.979 781.91 211.412 782.343 211.732 782.89C212.059 783.43 212.222 784.033 212.222 784.7C212.222 785.367 212.059 785.973 211.732 786.52C211.412 787.06 210.979 787.493 210.432 787.82C209.885 788.14 209.282 788.3 208.622 788.3ZM208.622 786.49C208.949 786.49 209.245 786.41 209.512 786.25C209.785 786.083 210.002 785.863 210.162 785.59C210.329 785.317 210.412 785.02 210.412 784.7C210.412 784.38 210.329 784.083 210.162 783.81C210.002 783.537 209.785 783.32 209.512 783.16C209.245 782.993 208.949 782.91 208.622 782.91C208.302 782.91 208.005 782.993 207.732 783.16C207.465 783.32 207.249 783.537 207.082 783.81C206.922 784.083 206.842 784.38 206.842 784.7C206.842 785.02 206.922 785.317 207.082 785.59C207.249 785.863 207.465 786.083 207.732 786.25C208.005 786.41 208.302 786.49 208.622 786.49ZM200.212 780.5C199.552 780.5 198.949 780.34 198.402 780.02C197.855 779.693 197.419 779.26 197.092 778.72C196.772 778.173 196.612 777.567 196.612 776.9C196.612 776.247 196.779 775.647 197.112 775.1C197.445 774.553 197.885 774.117 198.432 773.79C198.979 773.463 199.572 773.3 200.212 773.3C200.872 773.3 201.472 773.463 202.012 773.79C202.559 774.11 202.995 774.543 203.322 775.09C203.649 775.63 203.812 776.233 203.812 776.9C203.812 777.567 203.649 778.173 203.322 778.72C202.995 779.26 202.559 779.693 202.012 780.02C201.472 780.34 200.872 780.5 200.212 780.5ZM200.212 778.69C200.532 778.69 200.829 778.61 201.102 778.45C201.375 778.283 201.592 778.063 201.752 777.79C201.919 777.517 202.002 777.22 202.002 776.9C202.002 776.58 201.919 776.283 201.752 776.01C201.592 775.737 201.375 775.52 201.102 775.36C200.829 775.193 200.532 775.11 200.212 775.11C199.892 775.11 199.595 775.193 199.322 775.36C199.055 775.52 198.839 775.737 198.672 776.01C198.505 776.283 198.422 776.58 198.422 776.9C198.422 777.22 198.505 777.517 198.672 777.79C198.839 778.063 199.055 778.283 199.322 778.45C199.589 778.61 199.885 778.69 200.212 778.69Z" fill="#7F7F7F"/>
<rect x="264" y="700" width="76" height="160" fill="#89325F"/>
<path d="M278.289 688.27C277.576 688.27 276.906 688.137 276.279 687.87C275.653 687.597 275.109 687.21 274.649 686.71C274.196 686.21 273.866 685.62 273.659 684.94L275.679 684.38C275.873 685 276.209 685.477 276.689 685.81C277.169 686.137 277.703 686.297 278.289 686.29C278.816 686.283 279.279 686.16 279.679 685.92C280.079 685.68 280.393 685.357 280.619 684.95C280.846 684.537 280.959 684.063 280.959 683.53C280.959 682.73 280.709 682.07 280.209 681.55C279.716 681.03 279.069 680.77 278.269 680.77C278.043 680.77 277.809 680.803 277.569 680.87C277.336 680.937 277.116 681.023 276.909 681.13L275.929 679.48L281.009 674.99L281.229 675.59H274.229V673.6H282.889V675.59L278.669 679.65L278.649 678.97C279.556 678.97 280.343 679.173 281.009 679.58C281.676 679.98 282.189 680.527 282.549 681.22C282.916 681.907 283.099 682.677 283.099 683.53C283.099 684.45 282.883 685.267 282.449 685.98C282.023 686.693 281.446 687.253 280.719 687.66C279.999 688.067 279.189 688.27 278.289 688.27ZM286.065 688V685.79H288.275V688H286.065ZM295.457 688.27C294.744 688.27 294.074 688.137 293.447 687.87C292.821 687.597 292.277 687.21 291.817 686.71C291.364 686.21 291.034 685.62 290.827 684.94L292.847 684.38C293.041 685 293.377 685.477 293.857 685.81C294.337 686.137 294.871 686.297 295.457 686.29C295.984 686.283 296.447 686.16 296.847 685.92C297.247 685.68 297.561 685.357 297.787 684.95C298.014 684.537 298.127 684.063 298.127 683.53C298.127 682.73 297.877 682.07 297.377 681.55C296.884 681.03 296.237 680.77 295.437 680.77C295.211 680.77 294.977 680.803 294.737 680.87C294.504 680.937 294.284 681.023 294.077 681.13L293.097 679.48L298.177 674.99L298.397 675.59H291.397V673.6H300.057V675.59L295.837 679.65L295.817 678.97C296.724 678.97 297.511 679.173 298.177 679.58C298.844 679.98 299.357 680.527 299.717 681.22C300.084 681.907 300.267 682.677 300.267 683.53C300.267 684.45 300.051 685.267 299.617 685.98C299.191 686.693 298.614 687.253 297.887 687.66C297.167 688.067 296.357 688.27 295.457 688.27ZM307.143 688.3C306.403 688.3 305.713 688.15 305.073 687.85C304.439 687.543 303.896 687.123 303.443 686.59C302.989 686.05 302.666 685.43 302.473 684.73L304.483 684.19C304.596 684.617 304.789 684.987 305.063 685.3C305.343 685.613 305.669 685.857 306.043 686.03C306.416 686.197 306.803 686.28 307.203 686.28C307.729 686.28 308.206 686.153 308.633 685.9C309.066 685.647 309.406 685.307 309.653 684.88C309.906 684.453 310.033 683.983 310.033 683.47C310.033 682.943 309.903 682.467 309.643 682.04C309.389 681.613 309.046 681.277 308.613 681.03C308.186 680.777 307.716 680.65 307.203 680.65C306.616 680.65 306.119 680.767 305.713 681C305.306 681.233 304.989 681.503 304.763 681.81L302.943 681.17L303.383 673.6H311.153V675.57H304.453L305.303 674.78L304.953 680.45L304.543 679.92C304.923 679.54 305.376 679.25 305.903 679.05C306.429 678.85 306.953 678.75 307.473 678.75C308.366 678.75 309.163 678.957 309.863 679.37C310.569 679.783 311.126 680.347 311.533 681.06C311.939 681.767 312.143 682.57 312.143 683.47C312.143 684.363 311.913 685.177 311.453 685.91C310.993 686.637 310.383 687.217 309.623 687.65C308.863 688.083 308.036 688.3 307.143 688.3ZM316.333 688L314.933 686.6L327.943 673.6L329.343 675.01L316.333 688ZM326.343 688.3C325.683 688.3 325.079 688.14 324.533 687.82C323.993 687.493 323.559 687.06 323.233 686.52C322.906 685.973 322.743 685.367 322.743 684.7C322.743 684.047 322.909 683.447 323.243 682.9C323.576 682.353 324.016 681.917 324.563 681.59C325.109 681.263 325.703 681.1 326.343 681.1C327.003 681.1 327.606 681.263 328.153 681.59C328.699 681.91 329.133 682.343 329.453 682.89C329.779 683.43 329.943 684.033 329.943 684.7C329.943 685.367 329.779 685.973 329.453 686.52C329.133 687.06 328.699 687.493 328.153 687.82C327.606 688.14 327.003 688.3 326.343 688.3ZM326.343 686.49C326.669 686.49 326.966 686.41 327.233 686.25C327.506 686.083 327.723 685.863 327.883 685.59C328.049 685.317 328.133 685.02 328.133 684.7C328.133 684.38 328.049 684.083 327.883 683.81C327.723 683.537 327.506 683.32 327.233 683.16C326.966 682.993 326.669 682.91 326.343 682.91C326.023 682.91 325.726 682.993 325.453 683.16C325.186 683.32 324.969 683.537 324.803 683.81C324.643 684.083 324.563 684.38 324.563 684.7C324.563 685.02 324.643 685.317 324.803 685.59C324.969 685.863 325.186 686.083 325.453 686.25C325.726 686.41 326.023 686.49 326.343 686.49ZM317.933 680.5C317.273 680.5 316.669 680.34 316.123 680.02C315.576 679.693 315.139 679.26 314.813 678.72C314.493 678.173 314.333 677.567 314.333 676.9C314.333 676.247 314.499 675.647 314.833 675.1C315.166 674.553 315.606 674.117 316.153 673.79C316.699 673.463 317.293 673.3 317.933 673.3C318.593 673.3 319.193 673.463 319.733 673.79C320.279 674.11 320.716 674.543 321.043 675.09C321.369 675.63 321.533 676.233 321.533 676.9C321.533 677.567 321.369 678.173 321.043 678.72C320.716 679.26 320.279 679.693 319.733 680.02C319.193 680.34 318.593 680.5 317.933 680.5ZM317.933 678.69C318.253 678.69 318.549 678.61 318.823 678.45C319.096 678.283 319.313 678.063 319.473 677.79C319.639 677.517 319.723 677.22 319.723 676.9C319.723 676.58 319.639 676.283 319.473 676.01C319.313 675.737 319.096 675.52 318.823 675.36C318.549 675.193 318.253 675.11 317.933 675.11C317.613 675.11 317.316 675.193 317.043 675.36C316.776 675.52 316.559 675.737 316.393 676.01C316.226 676.283 316.143 676.58 316.143 676.9C316.143 677.22 316.226 677.517 316.393 677.79C316.559 678.063 316.776 678.283 317.043 678.45C317.309 678.61 317.606 678.69 317.933 678.69Z" fill="#852759"/>
<path d="M265.109 686.278L200.83 762.883" stroke="#842859" stroke-width="2"/>
<path d="M262.094 684.218L266.499 683.426C267.114 683.316 267.678 683.789 267.676 684.414L267.661 688.889C267.658 689.737 266.668 690.197 266.018 689.652L261.629 685.969C260.979 685.424 261.26 684.368 262.094 684.218Z" fill="#842859" stroke="#842859" stroke-width="2"/>
<path d="M190.208 876.312H204.16V877.768H190.208V876.312ZM194.688 880.568H203.792V882.024H194.688V880.568ZM193.008 886.472H204.448V887.944H193.008V886.472ZM198.096 881.256H199.632V887.288H198.096V881.256ZM194.976 873.496L196.56 873.704C195.696 878.744 194.208 884.152 190.576 887.448C190.352 887.112 189.888 886.552 189.584 886.248C192.912 883.304 194.304 878.088 194.976 873.496ZM213.28 878.552V880.296H215.312V878.552H213.28ZM213.28 881.448V883.208H215.312V881.448H213.28ZM213.28 875.688V877.4H215.312V875.688H213.28ZM212 874.456H216.656V884.424H212V874.456ZM214.688 885.224L215.776 884.632C216.32 885.464 216.96 886.568 217.216 887.256L216.048 887.944C215.808 887.24 215.216 886.072 214.688 885.224ZM217.744 875.208H219.056V884.696H217.744V875.208ZM220.384 873.736H221.776V886.616C221.776 887.416 221.6 887.832 221.136 888.056C220.672 888.312 219.936 888.36 218.8 888.36C218.752 887.96 218.56 887.32 218.368 886.92C219.136 886.952 219.84 886.936 220.08 886.936C220.304 886.936 220.384 886.856 220.384 886.616V873.736ZM212.864 884.632L214.128 885.288C213.6 886.312 212.736 887.544 212 888.28C211.744 888.04 211.264 887.656 210.928 887.432C211.696 886.744 212.48 885.528 212.864 884.632ZM210.352 873.56L211.76 873.96C210.848 876.744 209.392 879.656 207.792 881.544C207.664 881.176 207.28 880.344 207.04 879.944C208.384 878.392 209.616 875.976 210.352 873.56ZM209.072 877.688L210.48 876.296L210.512 876.328V888.344H209.072V877.688ZM233.6 876.072C233.392 877.72 233.072 879.592 232.544 881.368C231.568 884.632 230.256 886.456 228.656 886.456C227.072 886.456 225.632 884.68 225.632 882.008C225.632 878.44 228.768 875.352 232.784 875.352C236.624 875.352 239.056 878.04 239.056 881.4C239.056 884.76 236.912 887.064 233.008 887.608L232.064 886.12C232.624 886.056 233.088 885.976 233.488 885.896C235.536 885.416 237.376 883.912 237.376 881.336C237.376 878.792 235.696 876.824 232.752 876.824C229.28 876.824 227.232 879.656 227.232 881.864C227.232 883.704 228.032 884.552 228.704 884.552C229.424 884.552 230.176 883.496 230.928 881.032C231.392 879.512 231.744 877.688 231.904 876.024L233.6 876.072ZM248.304 885.976C249.6 885.752 251.52 885.384 253.392 885.016L253.504 886.28C251.808 886.664 250.016 887.048 248.624 887.368L248.304 885.976ZM248.608 880.024H253.024V881.336H248.608V880.024ZM248.544 876.616H257.264V878.008H248.544V876.616ZM254.912 874.184L255.968 873.64C256.544 874.232 257.2 875.08 257.504 875.656L256.4 876.28C256.128 875.688 255.488 874.824 254.912 874.184ZM250.144 880.52H251.552V885.992L250.144 886.28V880.52ZM253.36 873.512H254.816C254.736 880.872 255.12 886.408 256.16 886.488C256.384 886.488 256.528 885.72 256.608 884.44C256.848 884.776 257.456 885.192 257.696 885.336C257.344 887.8 256.672 888.376 256.096 888.36C253.696 888.28 253.424 882.488 253.36 873.512ZM243.264 878.376H247.904V879.544H243.264V878.376ZM243.328 874.04H247.824V875.208H243.328V874.04ZM243.264 880.536H247.904V881.704H243.264V880.536ZM242.544 876.152H248.288V877.384H242.544V876.152ZM243.936 882.712H247.888V887.48H243.936V886.248H246.608V883.944H243.936V882.712ZM243.248 882.712H244.512V888.168H243.248V882.712ZM268.592 880.904V882.744H273.2V880.904H268.592ZM267.328 879.784H274.512V883.864H267.328V879.784ZM270.8 874.84C270.048 876.184 268.624 877.768 267.072 878.744C266.928 878.376 266.608 877.848 266.352 877.528C267.888 876.648 269.376 874.952 270.08 873.512H271.424C272.368 875.048 273.872 876.552 275.312 877.288C275.04 877.624 274.72 878.168 274.528 878.584C273.12 877.704 271.632 876.2 270.8 874.84ZM270.192 878.024H271.536V881.24C271.536 883.8 271.072 886.568 267.296 888.376C267.104 888.056 266.672 887.56 266.368 887.304C269.792 885.736 270.192 883.368 270.192 881.224V878.024ZM271.728 883.176C272.304 884.968 273.504 886.456 275.216 887.144C274.896 887.416 274.448 887.96 274.24 888.328C272.416 887.432 271.2 885.656 270.576 883.48L271.728 883.176ZM268.4 877.48H273.36V878.68H268.4V877.48ZM261.664 876.552H266.4V877.72H261.664V876.552ZM261.664 878.968H266.4V880.136H261.664V878.968ZM260.944 881.4H266.352V882.6H260.944V881.4ZM263.568 874.84H264.784V882.056H263.568V874.84ZM264.144 883.4L264.784 883.176C265.152 883.816 265.488 884.68 265.632 885.224L264.944 885.496C264.832 884.92 264.48 884.04 264.144 883.4ZM263.104 883.64L263.792 883.512C264.08 884.328 264.336 885.384 264.4 886.072L263.664 886.248C263.616 885.544 263.376 884.456 263.104 883.64ZM261.968 883.752L262.672 883.672C262.848 884.616 262.928 885.832 262.896 886.616L262.144 886.728C262.192 885.912 262.112 884.712 261.968 883.752ZM260.816 883.464L261.696 883.624C261.616 885.08 261.44 886.584 260.8 887.464L260 887.016C260.56 886.216 260.752 884.824 260.816 883.464ZM260.944 874.136H266.736V875.384H262.208V882.2H260.944V874.136ZM265.696 881.4H266.96C266.96 881.4 266.96 881.768 266.944 881.944C266.784 885.88 266.608 887.336 266.224 887.816C265.968 888.136 265.712 888.264 265.328 888.296C265.008 888.344 264.464 888.344 263.904 888.328C263.872 887.96 263.76 887.448 263.568 887.128C264.064 887.176 264.496 887.192 264.704 887.192C264.896 887.192 265.008 887.144 265.136 887C265.392 886.68 265.552 885.352 265.696 881.624V881.4ZM286.672 874.44H291.408V875.864H288.144V888.36H286.672V874.44ZM278.192 875.176H285.872V876.504H278.192V875.176ZM277.808 879.624H286.08V881H277.808V879.624ZM281.28 873.592H282.752V875.992H281.28V873.592ZM279.152 877L280.416 876.744C280.752 877.512 281.024 878.536 281.12 879.208L279.776 879.528C279.728 878.84 279.472 877.8 279.152 877ZM283.616 876.648L285.04 876.968C284.688 877.896 284.336 878.888 284.016 879.56L282.816 879.24C283.104 878.536 283.44 877.432 283.616 876.648ZM279.344 886.168H284.464V887.496H279.344V886.168ZM278.816 882.248H285.264V888.296H283.792V883.576H280.224V888.36H278.816V882.248ZM291.024 874.44H291.312L291.552 874.376L292.656 875.08C292.048 876.6 291.264 878.456 290.576 879.88C292.064 881.352 292.4 882.616 292.416 883.72C292.416 884.792 292.16 885.56 291.584 885.96C291.28 886.152 290.928 886.28 290.512 886.328C290.128 886.376 289.632 886.376 289.168 886.36C289.152 885.944 289.008 885.304 288.768 884.872C289.184 884.904 289.584 884.92 289.872 884.904C290.112 884.888 290.336 884.84 290.512 884.728C290.832 884.536 290.944 884.12 290.944 883.544C290.944 882.6 290.528 881.416 289.04 880.072C289.792 878.472 290.592 876.152 291.024 874.936V874.44ZM304.16 873.704H305.68V877.384H304.16V873.704ZM300.16 876.536H309.92V877.976H300.16V876.536ZM301.392 879.128L302.752 878.904C303.328 880.984 303.856 883.656 303.968 885.24L302.48 885.56C302.4 883.96 301.936 881.24 301.392 879.128ZM307.04 878.776L308.672 879.048C308.112 881.624 307.248 884.776 306.528 886.712L305.168 886.408C305.872 884.424 306.656 881.144 307.04 878.776ZM299.792 886.2H310.288V887.64H299.792V886.2ZM299.072 873.544L300.496 874.008C299.408 876.696 297.664 879.448 295.888 881.24C295.744 880.872 295.312 880.056 295.056 879.688C296.624 878.216 298.16 875.896 299.072 873.544ZM297.456 877.8L298.88 876.36L298.896 876.376V888.312H297.456V877.8Z" fill="#202020"/>
<rect x="520" y="800" width="76" height="60" fill="#7F7F7F"/>
<path d="M549 792.3C548.02 792.3 547.153 792.087 546.4 791.66C545.647 791.227 545.053 790.633 544.62 789.88C544.193 789.127 543.98 788.26 543.98 787.28V782.32C543.98 781.34 544.193 780.473 544.62 779.72C545.053 778.967 545.647 778.377 546.4 777.95C547.153 777.517 548.02 777.3 549 777.3C549.98 777.3 550.847 777.517 551.6 777.95C552.353 778.377 552.943 778.967 553.37 779.72C553.803 780.473 554.02 781.34 554.02 782.32V787.28C554.02 788.26 553.803 789.127 553.37 789.88C552.943 790.633 552.353 791.227 551.6 791.66C550.847 792.087 549.98 792.3 549 792.3ZM549 790.3C549.533 790.3 550.017 790.173 550.45 789.92C550.89 789.66 551.24 789.313 551.5 788.88C551.76 788.44 551.89 787.95 551.89 787.41V782.17C551.89 781.637 551.76 781.153 551.5 780.72C551.24 780.28 550.89 779.933 550.45 779.68C550.017 779.42 549.533 779.29 549 779.29C548.467 779.29 547.98 779.42 547.54 779.68C547.107 779.933 546.76 780.28 546.5 780.72C546.24 781.153 546.11 781.637 546.11 782.17V787.41C546.11 787.95 546.24 788.44 546.5 788.88C546.76 789.313 547.107 789.66 547.54 789.92C547.98 790.173 548.467 790.3 549 790.3ZM558.612 792L557.212 790.6L570.222 777.6L571.622 779.01L558.612 792ZM568.622 792.3C567.962 792.3 567.359 792.14 566.812 791.82C566.272 791.493 565.839 791.06 565.512 790.52C565.185 789.973 565.022 789.367 565.022 788.7C565.022 788.047 565.189 787.447 565.522 786.9C565.855 786.353 566.295 785.917 566.842 785.59C567.389 785.263 567.982 785.1 568.622 785.1C569.282 785.1 569.885 785.263 570.432 785.59C570.979 785.91 571.412 786.343 571.732 786.89C572.059 787.43 572.222 788.033 572.222 788.7C572.222 789.367 572.059 789.973 571.732 790.52C571.412 791.06 570.979 791.493 570.432 791.82C569.885 792.14 569.282 792.3 568.622 792.3ZM568.622 790.49C568.949 790.49 569.245 790.41 569.512 790.25C569.785 790.083 570.002 789.863 570.162 789.59C570.329 789.317 570.412 789.02 570.412 788.7C570.412 788.38 570.329 788.083 570.162 787.81C570.002 787.537 569.785 787.32 569.512 787.16C569.245 786.993 568.949 786.91 568.622 786.91C568.302 786.91 568.005 786.993 567.732 787.16C567.465 787.32 567.249 787.537 567.082 787.81C566.922 788.083 566.842 788.38 566.842 788.7C566.842 789.02 566.922 789.317 567.082 789.59C567.249 789.863 567.465 790.083 567.732 790.25C568.005 790.41 568.302 790.49 568.622 790.49ZM560.212 784.5C559.552 784.5 558.949 784.34 558.402 784.02C557.855 783.693 557.419 783.26 557.092 782.72C556.772 782.173 556.612 781.567 556.612 780.9C556.612 780.247 556.779 779.647 557.112 779.1C557.445 778.553 557.885 778.117 558.432 777.79C558.979 777.463 559.572 777.3 560.212 777.3C560.872 777.3 561.472 777.463 562.012 777.79C562.559 778.11 562.995 778.543 563.322 779.09C563.649 779.63 563.812 780.233 563.812 780.9C563.812 781.567 563.649 782.173 563.322 782.72C562.995 783.26 562.559 783.693 562.012 784.02C561.472 784.34 560.872 784.5 560.212 784.5ZM560.212 782.69C560.532 782.69 560.829 782.61 561.102 782.45C561.375 782.283 561.592 782.063 561.752 781.79C561.919 781.517 562.002 781.22 562.002 780.9C562.002 780.58 561.919 780.283 561.752 780.01C561.592 779.737 561.375 779.52 561.102 779.36C560.829 779.193 560.532 779.11 560.212 779.11C559.892 779.11 559.595 779.193 559.322 779.36C559.055 779.52 558.839 779.737 558.672 780.01C558.505 780.283 558.422 780.58 558.422 780.9C558.422 781.22 558.505 781.517 558.672 781.79C558.839 782.063 559.055 782.283 559.322 782.45C559.589 782.61 559.885 782.69 560.212 782.69Z" fill="#7F7F7F"/>
<rect x="624" y="632" width="76" height="228" fill="#89325F"/>
<path d="M638.236 624.3C637.496 624.3 636.806 624.15 636.166 623.85C635.533 623.543 634.99 623.123 634.536 622.59C634.083 622.05 633.76 621.43 633.566 620.73L635.576 620.19C635.69 620.617 635.883 620.987 636.156 621.3C636.436 621.613 636.763 621.857 637.136 622.03C637.51 622.197 637.896 622.28 638.296 622.28C638.823 622.28 639.3 622.153 639.726 621.9C640.16 621.647 640.5 621.307 640.746 620.88C641 620.453 641.126 619.983 641.126 619.47C641.126 618.943 640.996 618.467 640.736 618.04C640.483 617.613 640.14 617.277 639.706 617.03C639.28 616.777 638.81 616.65 638.296 616.65C637.71 616.65 637.213 616.767 636.806 617C636.4 617.233 636.083 617.503 635.856 617.81L634.036 617.17L634.476 609.6H642.246V611.57H635.546L636.396 610.78L636.046 616.45L635.636 615.92C636.016 615.54 636.47 615.25 636.996 615.05C637.523 614.85 638.046 614.75 638.566 614.75C639.46 614.75 640.256 614.957 640.956 615.37C641.663 615.783 642.22 616.347 642.626 617.06C643.033 617.767 643.236 618.57 643.236 619.47C643.236 620.363 643.006 621.177 642.546 621.91C642.086 622.637 641.476 623.217 640.716 623.65C639.956 624.083 639.13 624.3 638.236 624.3ZM645.987 624V621.79H648.197V624H645.987ZM655.959 624.3C655.019 624.3 654.186 624.113 653.459 623.74C652.739 623.36 652.173 622.833 651.759 622.16C651.353 621.487 651.149 620.707 651.149 619.82C651.149 618.993 651.343 618.237 651.729 617.55C652.116 616.863 652.693 616.323 653.459 615.93L653.419 616.65C652.806 616.27 652.333 615.797 651.999 615.23C651.673 614.657 651.509 614.017 651.509 613.31C651.509 612.49 651.699 611.78 652.079 611.18C652.459 610.58 652.983 610.117 653.649 609.79C654.323 609.463 655.093 609.3 655.959 609.3C656.826 609.3 657.593 609.463 658.259 609.79C658.926 610.117 659.449 610.58 659.829 611.18C660.209 611.78 660.399 612.49 660.399 613.31C660.399 614.017 660.243 614.653 659.929 615.22C659.616 615.787 659.136 616.263 658.489 616.65L658.459 615.95C659.219 616.323 659.796 616.857 660.189 617.55C660.583 618.237 660.779 618.993 660.779 619.82C660.779 620.707 660.573 621.487 660.159 622.16C659.746 622.833 659.176 623.36 658.449 623.74C657.723 624.113 656.893 624.3 655.959 624.3ZM655.959 622.31C656.733 622.31 657.359 622.1 657.839 621.68C658.319 621.253 658.559 620.633 658.559 619.82C658.559 619.007 658.319 618.387 657.839 617.96C657.366 617.527 656.739 617.31 655.959 617.31C655.179 617.31 654.549 617.527 654.069 617.96C653.596 618.387 653.359 619.007 653.359 619.82C653.359 620.633 653.599 621.253 654.079 621.68C654.559 622.1 655.186 622.31 655.959 622.31ZM655.959 615.31C656.619 615.31 657.153 615.147 657.559 614.82C657.973 614.487 658.179 613.983 658.179 613.31C658.179 612.637 657.973 612.133 657.559 611.8C657.153 611.46 656.619 611.29 655.959 611.29C655.299 611.29 654.763 611.46 654.349 611.8C653.936 612.133 653.729 612.637 653.729 613.31C653.729 613.983 653.936 614.487 654.349 614.82C654.763 615.147 655.299 615.31 655.959 615.31ZM667.41 624.27C666.697 624.27 666.027 624.137 665.4 623.87C664.774 623.597 664.23 623.21 663.77 622.71C663.317 622.21 662.987 621.62 662.78 620.94L664.8 620.38C664.994 621 665.33 621.477 665.81 621.81C666.29 622.137 666.824 622.297 667.41 622.29C667.937 622.283 668.4 622.16 668.8 621.92C669.2 621.68 669.514 621.357 669.74 620.95C669.967 620.537 670.08 620.063 670.08 619.53C670.08 618.73 669.83 618.07 669.33 617.55C668.837 617.03 668.19 616.77 667.39 616.77C667.164 616.77 666.93 616.803 666.69 616.87C666.457 616.937 666.237 617.023 666.03 617.13L665.05 615.48L670.13 610.99L670.35 611.59H663.35V609.6H672.01V611.59L667.79 615.65L667.77 614.97C668.677 614.97 669.464 615.173 670.13 615.58C670.797 615.98 671.31 616.527 671.67 617.22C672.037 617.907 672.22 618.677 672.22 619.53C672.22 620.45 672.004 621.267 671.57 621.98C671.144 622.693 670.567 623.253 669.84 623.66C669.12 624.067 668.31 624.27 667.41 624.27ZM676.626 624L675.226 622.6L688.236 609.6L689.636 611.01L676.626 624ZM686.636 624.3C685.976 624.3 685.372 624.14 684.826 623.82C684.286 623.493 683.852 623.06 683.526 622.52C683.199 621.973 683.036 621.367 683.036 620.7C683.036 620.047 683.202 619.447 683.536 618.9C683.869 618.353 684.309 617.917 684.856 617.59C685.402 617.263 685.996 617.1 686.636 617.1C687.296 617.1 687.899 617.263 688.446 617.59C688.992 617.91 689.426 618.343 689.746 618.89C690.072 619.43 690.236 620.033 690.236 620.7C690.236 621.367 690.072 621.973 689.746 622.52C689.426 623.06 688.992 623.493 688.446 623.82C687.899 624.14 687.296 624.3 686.636 624.3ZM686.636 622.49C686.962 622.49 687.259 622.41 687.526 622.25C687.799 622.083 688.016 621.863 688.176 621.59C688.342 621.317 688.426 621.02 688.426 620.7C688.426 620.38 688.342 620.083 688.176 619.81C688.016 619.537 687.799 619.32 687.526 619.16C687.259 618.993 686.962 618.91 686.636 618.91C686.316 618.91 686.019 618.993 685.746 619.16C685.479 619.32 685.262 619.537 685.096 619.81C684.936 620.083 684.856 620.38 684.856 620.7C684.856 621.02 684.936 621.317 685.096 621.59C685.262 621.863 685.479 622.083 685.746 622.25C686.019 622.41 686.316 622.49 686.636 622.49ZM678.226 616.5C677.566 616.5 676.962 616.34 676.416 616.02C675.869 615.693 675.432 615.26 675.106 614.72C674.786 614.173 674.626 613.567 674.626 612.9C674.626 612.247 674.792 611.647 675.126 611.1C675.459 610.553 675.899 610.117 676.446 609.79C676.992 609.463 677.586 609.3 678.226 609.3C678.886 609.3 679.486 609.463 680.026 609.79C680.572 610.11 681.009 610.543 681.336 611.09C681.662 611.63 681.826 612.233 681.826 612.9C681.826 613.567 681.662 614.173 681.336 614.72C681.009 615.26 680.572 615.693 680.026 616.02C679.486 616.34 678.886 616.5 678.226 616.5ZM678.226 614.69C678.546 614.69 678.842 614.61 679.116 614.45C679.389 614.283 679.606 614.063 679.766 613.79C679.932 613.517 680.016 613.22 680.016 612.9C680.016 612.58 679.932 612.283 679.766 612.01C679.606 611.737 679.389 611.52 679.116 611.36C678.842 611.193 678.546 611.11 678.226 611.11C677.906 611.11 677.609 611.193 677.336 611.36C677.069 611.52 676.852 611.737 676.686 612.01C676.519 612.283 676.436 612.58 676.436 612.9C676.436 613.22 676.519 613.517 676.686 613.79C676.852 614.063 677.069 614.283 677.336 614.45C677.602 614.61 677.899 614.69 678.226 614.69Z" fill="#852759"/>
<path d="M620.924 621.738L557.532 757.684" stroke="#842859" stroke-width="2"/>
<path d="M617.479 620.529L621.529 618.624C622.094 618.358 622.762 618.669 622.921 619.273L624.065 623.6C624.282 624.42 623.444 625.12 622.676 624.762L617.483 622.34C616.714 621.982 616.712 620.89 617.479 620.529Z" fill="#842859" stroke="#842859" stroke-width="2"/>
<path d="M550.176 876.376H564.256V877.848H550.176V876.376ZM554.304 886.008H562.096V887.48H554.304V886.008ZM553.408 880.728H563.12V888.296H561.536V882.2H554.912V888.376H553.408V880.728ZM555.584 873.496L557.168 873.8C556.128 878.184 554.304 882.632 550.64 885.24C550.416 884.888 549.936 884.344 549.632 884.04C553.056 881.704 554.768 877.48 555.584 873.496ZM573.28 878.552V880.296H575.312V878.552H573.28ZM573.28 881.448V883.208H575.312V881.448H573.28ZM573.28 875.688V877.4H575.312V875.688H573.28ZM572 874.456H576.656V884.424H572V874.456ZM574.688 885.224L575.776 884.632C576.32 885.464 576.96 886.568 577.216 887.256L576.048 887.944C575.808 887.24 575.216 886.072 574.688 885.224ZM577.744 875.208H579.056V884.696H577.744V875.208ZM580.384 873.736H581.776V886.616C581.776 887.416 581.6 887.832 581.136 888.056C580.672 888.312 579.936 888.36 578.8 888.36C578.752 887.96 578.56 887.32 578.368 886.92C579.136 886.952 579.84 886.936 580.08 886.936C580.304 886.936 580.384 886.856 580.384 886.616V873.736ZM572.864 884.632L574.128 885.288C573.6 886.312 572.736 887.544 572 888.28C571.744 888.04 571.264 887.656 570.928 887.432C571.696 886.744 572.48 885.528 572.864 884.632ZM570.352 873.56L571.76 873.96C570.848 876.744 569.392 879.656 567.792 881.544C567.664 881.176 567.28 880.344 567.04 879.944C568.384 878.392 569.616 875.976 570.352 873.56ZM569.072 877.688L570.48 876.296L570.512 876.328V888.344H569.072V877.688ZM593.6 876.072C593.392 877.72 593.072 879.592 592.544 881.368C591.568 884.632 590.256 886.456 588.656 886.456C587.072 886.456 585.632 884.68 585.632 882.008C585.632 878.44 588.768 875.352 592.784 875.352C596.624 875.352 599.056 878.04 599.056 881.4C599.056 884.76 596.912 887.064 593.008 887.608L592.064 886.12C592.624 886.056 593.088 885.976 593.488 885.896C595.536 885.416 597.376 883.912 597.376 881.336C597.376 878.792 595.696 876.824 592.752 876.824C589.28 876.824 587.232 879.656 587.232 881.864C587.232 883.704 588.032 884.552 588.704 884.552C589.424 884.552 590.176 883.496 590.928 881.032C591.392 879.512 591.744 877.688 591.904 876.024L593.6 876.072ZM608.304 885.976C609.6 885.752 611.52 885.384 613.392 885.016L613.504 886.28C611.808 886.664 610.016 887.048 608.624 887.368L608.304 885.976ZM608.608 880.024H613.024V881.336H608.608V880.024ZM608.544 876.616H617.264V878.008H608.544V876.616ZM614.912 874.184L615.968 873.64C616.544 874.232 617.2 875.08 617.504 875.656L616.4 876.28C616.128 875.688 615.488 874.824 614.912 874.184ZM610.144 880.52H611.552V885.992L610.144 886.28V880.52ZM613.36 873.512H614.816C614.736 880.872 615.12 886.408 616.16 886.488C616.384 886.488 616.528 885.72 616.608 884.44C616.848 884.776 617.456 885.192 617.696 885.336C617.344 887.8 616.672 888.376 616.096 888.36C613.696 888.28 613.424 882.488 613.36 873.512ZM603.264 878.376H607.904V879.544H603.264V878.376ZM603.328 874.04H607.824V875.208H603.328V874.04ZM603.264 880.536H607.904V881.704H603.264V880.536ZM602.544 876.152H608.288V877.384H602.544V876.152ZM603.936 882.712H607.888V887.48H603.936V886.248H606.608V883.944H603.936V882.712ZM603.248 882.712H604.512V888.168H603.248V882.712ZM628.592 880.904V882.744H633.2V880.904H628.592ZM627.328 879.784H634.512V883.864H627.328V879.784ZM630.8 874.84C630.048 876.184 628.624 877.768 627.072 878.744C626.928 878.376 626.608 877.848 626.352 877.528C627.888 876.648 629.376 874.952 630.08 873.512H631.424C632.368 875.048 633.872 876.552 635.312 877.288C635.04 877.624 634.72 878.168 634.528 878.584C633.12 877.704 631.632 876.2 630.8 874.84ZM630.192 878.024H631.536V881.24C631.536 883.8 631.072 886.568 627.296 888.376C627.104 888.056 626.672 887.56 626.368 887.304C629.792 885.736 630.192 883.368 630.192 881.224V878.024ZM631.728 883.176C632.304 884.968 633.504 886.456 635.216 887.144C634.896 887.416 634.448 887.96 634.24 888.328C632.416 887.432 631.2 885.656 630.576 883.48L631.728 883.176ZM628.4 877.48H633.36V878.68H628.4V877.48ZM621.664 876.552H626.4V877.72H621.664V876.552ZM621.664 878.968H626.4V880.136H621.664V878.968ZM620.944 881.4H626.352V882.6H620.944V881.4ZM623.568 874.84H624.784V882.056H623.568V874.84ZM624.144 883.4L624.784 883.176C625.152 883.816 625.488 884.68 625.632 885.224L624.944 885.496C624.832 884.92 624.48 884.04 624.144 883.4ZM623.104 883.64L623.792 883.512C624.08 884.328 624.336 885.384 624.4 886.072L623.664 886.248C623.616 885.544 623.376 884.456 623.104 883.64ZM621.968 883.752L622.672 883.672C622.848 884.616 622.928 885.832 622.896 886.616L622.144 886.728C622.192 885.912 622.112 884.712 621.968 883.752ZM620.816 883.464L621.696 883.624C621.616 885.08 621.44 886.584 620.8 887.464L620 887.016C620.56 886.216 620.752 884.824 620.816 883.464ZM620.944 874.136H626.736V875.384H622.208V882.2H620.944V874.136ZM625.696 881.4H626.96C626.96 881.4 626.96 881.768 626.944 881.944C626.784 885.88 626.608 887.336 626.224 887.816C625.968 888.136 625.712 888.264 625.328 888.296C625.008 888.344 624.464 888.344 623.904 888.328C623.872 887.96 623.76 887.448 623.568 887.128C624.064 887.176 624.496 887.192 624.704 887.192C624.896 887.192 625.008 887.144 625.136 887C625.392 886.68 625.552 885.352 625.696 881.624V881.4ZM646.672 874.44H651.408V875.864H648.144V888.36H646.672V874.44ZM638.192 875.176H645.872V876.504H638.192V875.176ZM637.808 879.624H646.08V881H637.808V879.624ZM641.28 873.592H642.752V875.992H641.28V873.592ZM639.152 877L640.416 876.744C640.752 877.512 641.024 878.536 641.12 879.208L639.776 879.528C639.728 878.84 639.472 877.8 639.152 877ZM643.616 876.648L645.04 876.968C644.688 877.896 644.336 878.888 644.016 879.56L642.816 879.24C643.104 878.536 643.44 877.432 643.616 876.648ZM639.344 886.168H644.464V887.496H639.344V886.168ZM638.816 882.248H645.264V888.296H643.792V883.576H640.224V888.36H638.816V882.248ZM651.024 874.44H651.312L651.552 874.376L652.656 875.08C652.048 876.6 651.264 878.456 650.576 879.88C652.064 881.352 652.4 882.616 652.416 883.72C652.416 884.792 652.16 885.56 651.584 885.96C651.28 886.152 650.928 886.28 650.512 886.328C650.128 886.376 649.632 886.376 649.168 886.36C649.152 885.944 649.008 885.304 648.768 884.872C649.184 884.904 649.584 884.92 649.872 884.904C650.112 884.888 650.336 884.84 650.512 884.728C650.832 884.536 650.944 884.12 650.944 883.544C650.944 882.6 650.528 881.416 649.04 880.072C649.792 878.472 650.592 876.152 651.024 874.936V874.44ZM664.16 873.704H665.68V877.384H664.16V873.704ZM660.16 876.536H669.92V877.976H660.16V876.536ZM661.392 879.128L662.752 878.904C663.328 880.984 663.856 883.656 663.968 885.24L662.48 885.56C662.4 883.96 661.936 881.24 661.392 879.128ZM667.04 878.776L668.672 879.048C668.112 881.624 667.248 884.776 666.528 886.712L665.168 886.408C665.872 884.424 666.656 881.144 667.04 878.776ZM659.792 886.2H670.288V887.64H659.792V886.2ZM659.072 873.544L660.496 874.008C659.408 876.696 657.664 879.448 655.888 881.24C655.744 880.872 655.312 880.056 655.056 879.688C656.624 878.216 658.16 875.896 659.072 873.544ZM657.456 877.8L658.88 876.36L658.896 876.376V888.312H657.456V877.8Z" fill="#202020"/>
</svg>
