<svg width="800" height="440" viewBox="0 0 800 440" fill="none" xmlns="http://www.w3.org/2000/svg">
<g style="mix-blend-mode:multiply" opacity="0.6">
<path d="M0 0H200V220H0V0Z" fill="url(#paint0_linear_1077_32)"/>
</g>
<g style="mix-blend-mode:multiply" opacity="0.5">
<path d="M0 220H200V440H0V220Z" fill="url(#paint1_linear_1077_32)"/>
</g>
<g style="mix-blend-mode:lighten" opacity="0.5">
<path d="M400 220H600V440H400V220Z" fill="#E9E9E9"/>
</g>
<g style="mix-blend-mode:multiply" opacity="0.6">
<path d="M600 0H800V220H600V0Z" fill="url(#paint2_linear_1077_32)"/>
</g>
<g style="mix-blend-mode:multiply" opacity="0.5">
<path d="M600 220H800V440H600V220Z" fill="url(#paint3_linear_1077_32)"/>
</g>
<g style="mix-blend-mode:lighten" opacity="0.3">
<path d="M200 0H400V220H200V0Z" fill="#E9E9E9"/>
</g>
<mask id="path-7-inside-1_1077_32" fill="white">
<path d="M200 0H400V220H200V0Z"/>
</mask>
<path d="M400 220V222H402V220H400ZM398 0V220H402V0H398ZM400 218H200V222H400V218Z" fill="white" mask="url(#path-7-inside-1_1077_32)"/>
<g style="mix-blend-mode:lighten" opacity="0.3">
<path d="M400 0H600V220H400V0Z" fill="#E9E9E9"/>
</g>
<mask id="path-10-inside-2_1077_32" fill="white">
<path d="M400 0H600V220H400V0Z"/>
</mask>
<path d="M600 218H400V222H600V218Z" fill="white" mask="url(#path-10-inside-2_1077_32)"/>
<mask id="path-12-inside-3_1077_32" fill="white">
<path d="M0 440H200V220H0V440Z"/>
</mask>
<path d="M198 440V220H202V440H198Z" fill="url(#paint4_linear_1077_32)" mask="url(#path-12-inside-3_1077_32)"/>
<mask id="path-14-inside-4_1077_32" fill="white">
<path d="M800 440H600V220H800V440Z"/>
</mask>
<path d="M602 440V220H598V440H602Z" fill="url(#paint5_linear_1077_32)" mask="url(#path-14-inside-4_1077_32)"/>
<mask id="path-16-inside-5_1077_32" fill="white">
<path d="M0 0H200V220H0V0Z"/>
</mask>
<path d="M198 0V220H202V0H198Z" fill="url(#paint6_linear_1077_32)" mask="url(#path-16-inside-5_1077_32)"/>
<mask id="path-18-inside-6_1077_32" fill="white">
<path d="M0 0H200V220H0V0Z"/>
</mask>
<path d="M200 218H0V222H200V218Z" fill="url(#paint7_linear_1077_32)" mask="url(#path-18-inside-6_1077_32)"/>
<mask id="path-20-inside-7_1077_32" fill="white">
<path d="M800 0H600V220H800V0Z"/>
</mask>
<path d="M602 0V220H598V0H602Z" fill="url(#paint8_linear_1077_32)" mask="url(#path-20-inside-7_1077_32)"/>
<mask id="path-22-inside-8_1077_32" fill="white">
<path d="M800 0H600V220H800V0Z"/>
</mask>
<path d="M600 218H800V222H600V218Z" fill="url(#paint9_linear_1077_32)" mask="url(#path-22-inside-8_1077_32)"/>
<g style="mix-blend-mode:lighten" opacity="0.3">
<path d="M200 220H400V440H200V220Z" fill="#E9E9E9"/>
</g>
<mask id="path-25-inside-9_1077_32" fill="white">
<path d="M200 220H400V440H200V220Z"/>
</mask>
<path d="M398 220V440H402V220H398Z" fill="white" mask="url(#path-25-inside-9_1077_32)"/>
<defs>
<linearGradient id="paint0_linear_1077_32" x1="0" y1="0" x2="200" y2="220" gradientUnits="userSpaceOnUse">
<stop stop-color="#B8BED4"/>
<stop offset="1" stop-color="#E9E9E9" stop-opacity="0"/>
</linearGradient>
<linearGradient id="paint1_linear_1077_32" x1="1.04308e-05" y1="440" x2="200" y2="220" gradientUnits="userSpaceOnUse">
<stop stop-color="#B8BED4"/>
<stop offset="1" stop-color="#E9E9E9" stop-opacity="0"/>
</linearGradient>
<linearGradient id="paint2_linear_1077_32" x1="800" y1="1.08372e-05" x2="600" y2="220" gradientUnits="userSpaceOnUse">
<stop stop-color="#B8BED4"/>
<stop offset="1" stop-color="#E9E9E9" stop-opacity="0"/>
</linearGradient>
<linearGradient id="paint3_linear_1077_32" x1="800" y1="440" x2="600" y2="220" gradientUnits="userSpaceOnUse">
<stop stop-color="#B8BED4"/>
<stop offset="1" stop-color="#E9E9E9" stop-opacity="0"/>
</linearGradient>
<linearGradient id="paint4_linear_1077_32" x1="100" y1="440" x2="100" y2="220" gradientUnits="userSpaceOnUse">
<stop stop-color="#C0C7CF"/>
<stop offset="1" stop-color="#F4F4F4"/>
</linearGradient>
<linearGradient id="paint5_linear_1077_32" x1="700" y1="440" x2="700" y2="220" gradientUnits="userSpaceOnUse">
<stop stop-color="#C0C7CF"/>
<stop offset="1" stop-color="#F4F4F4"/>
</linearGradient>
<linearGradient id="paint6_linear_1077_32" x1="100" y1="0" x2="100" y2="220" gradientUnits="userSpaceOnUse">
<stop stop-color="#C0C7CF"/>
<stop offset="1" stop-color="#F4F4F4"/>
</linearGradient>
<linearGradient id="paint7_linear_1077_32" x1="0" y1="220" x2="200" y2="220" gradientUnits="userSpaceOnUse">
<stop stop-color="#C0C7CF"/>
<stop offset="1" stop-color="#F4F4F4"/>
</linearGradient>
<linearGradient id="paint8_linear_1077_32" x1="700" y1="0" x2="700" y2="220" gradientUnits="userSpaceOnUse">
<stop stop-color="#C0C7CF"/>
<stop offset="1" stop-color="#F4F4F4"/>
</linearGradient>
<linearGradient id="paint9_linear_1077_32" x1="800" y1="220" x2="600" y2="220" gradientUnits="userSpaceOnUse">
<stop stop-color="#C0C7CF"/>
<stop offset="1" stop-color="#F4F4F4"/>
</linearGradient>
</defs>
</svg>
