<svg width="800" height="240" viewBox="0 0 800 240" fill="none" xmlns="http://www.w3.org/2000/svg">
<rect width="800" height="240" fill="white"/>
<path d="M433.081 116.331C432.941 115.971 432.795 115.636 432.64 115.322L397.474 43.7167C396.297 41.3183 394.689 40 392.955 40C391.222 40 389.614 41.3183 388.431 43.7167L353.356 115.155L353.271 115.327C353.271 115.327 353.25 115.373 353.235 115.398C350.244 121.569 349.318 126.604 350.495 130.356C351.793 134.499 355.194 135.766 357.108 136.152L357.183 136.167H357.489V133.145H357.339C355.856 132.831 353.326 131.898 352.459 129.139C351.617 126.442 352.494 122.274 355.009 117.092C355.019 117.071 355.029 117.056 355.039 117.031L390.2 45.4356C390.966 43.8789 391.943 43.0169 392.955 43.0169C393.967 43.0169 394.939 43.8739 395.706 45.4356L430.872 117.041C430.987 117.274 431.102 117.543 431.217 117.832L431.262 117.933C433.472 122.669 434.263 126.533 433.557 129.109C432.931 131.401 431.157 132.486 429.784 132.993C429.634 133.049 429.479 133.099 429.323 133.145H427.956V136.167H429.544L429.649 136.136C429.88 136.071 430.11 135.995 430.325 135.913C432.991 134.93 434.799 132.952 435.556 130.194C436.528 126.634 435.696 121.97 433.076 116.331H433.081Z" fill="#842858"/>
<path d="M450 89.1924H387.56V91.7123H450V89.1924Z" fill="#842858"/>
<path d="M384.989 130.416H377.589V133.514H384.177C385.104 133.514 385.745 133.696 386.086 134.056C386.427 134.421 386.602 135.106 386.602 136.125V137.372C386.602 138.391 386.437 139.086 386.101 139.451C385.765 139.816 385.124 139.999 384.182 139.999H378.08C377.128 139.999 376.482 139.816 376.141 139.446C375.8 139.076 375.625 138.386 375.625 137.372V137.068L377.248 136.668V138.452H385.034V135.116H378.466C377.519 135.116 376.878 134.934 376.537 134.569C376.201 134.198 376.031 133.509 376.031 132.495V131.531C376.031 130.517 376.201 129.828 376.537 129.458C376.873 129.093 377.519 128.91 378.466 128.91H384.037C384.969 128.91 385.61 129.088 385.961 129.448C386.316 129.808 386.492 130.441 386.492 131.339V131.572L384.999 132.023V130.421L384.989 130.416Z" fill="#842858"/>
<path d="M391.513 139.998V128.904H393.262V133.66L399.78 128.904H402.335L394.755 134.213L403.167 139.998H400.246L393.262 135.009V139.998H391.513Z" fill="#842858"/>
<path d="M408.036 128.904H406.283V139.993H408.036V128.904Z" fill="#842858"/>
<path d="M413.456 139.998V128.909H414.559L422.384 136.327C422.56 136.494 422.75 136.697 422.951 136.936C423.151 137.174 423.356 137.432 423.567 137.721C423.512 137.367 423.472 136.991 423.447 136.601C423.421 136.216 423.406 135.678 423.406 134.989V128.904H425.01V139.993H424.028L415.992 132.281C415.951 132.246 415.891 132.19 415.816 132.114C415.42 131.739 415.125 131.379 414.934 131.034C414.974 131.368 415.005 131.728 415.025 132.109C415.045 132.489 415.055 132.94 415.055 133.457V139.993H413.451L413.456 139.998Z" fill="#842858"/>
<path d="M369.684 139.999H371.517L365.57 128.91H364.228L358.256 139.999H360.104L361.913 136.652L367.875 136.642L369.689 139.999H369.684ZM362.8 135.005L364.899 131.126L366.983 134.994L362.8 135.005Z" fill="#842858"/>
<path d="M0 20H800" stroke="#852858" stroke-width="6"/>
<path d="M0 220H800" stroke="#852858" stroke-width="2"/>
<path d="M0 226H800" stroke="#852858" stroke-width="4"/>
<path d="M155.906 191.06C155.106 191.06 154.706 190.84 154.706 190.4V172.28H148.946C148.546 172.28 148.346 171.98 148.346 171.38V170.9C148.346 170.3 148.546 170 148.946 170H163.016C163.416 170 163.616 170.3 163.616 170.9V171.38C163.616 171.98 163.416 172.28 163.016 172.28H157.346V190.4C157.346 190.84 156.946 191.06 156.146 191.06H155.906ZM168.785 191.06C167.985 191.06 167.585 190.84 167.585 190.4V169.1C167.585 168.66 167.985 168.44 168.785 168.44H168.905C169.705 168.44 170.105 168.66 170.105 169.1V177.2C170.625 176.68 171.275 176.21 172.055 175.79C172.855 175.35 173.735 175.13 174.695 175.13C175.175 175.13 175.685 175.2 176.225 175.34C176.785 175.46 177.305 175.69 177.785 176.03C178.285 176.37 178.685 176.86 178.985 177.5C179.305 178.14 179.465 178.97 179.465 179.99V190.4C179.465 190.84 179.065 191.06 178.265 191.06H178.145C177.345 191.06 176.945 190.84 176.945 190.4V180.23C176.945 179.35 176.685 178.65 176.165 178.13C175.665 177.59 174.905 177.32 173.885 177.32C173.325 177.32 172.815 177.43 172.355 177.65C171.895 177.85 171.495 178.09 171.155 178.37C170.815 178.65 170.555 178.9 170.375 179.12C170.195 179.32 170.105 179.42 170.105 179.42V190.4C170.105 190.84 169.705 191.06 168.905 191.06H168.785ZM191.987 191.18C189.507 191.18 187.657 190.53 186.437 189.23C185.237 187.93 184.637 185.94 184.637 183.26C184.637 181.48 184.897 179.99 185.417 178.79C185.957 177.59 186.747 176.68 187.787 176.06C188.827 175.44 190.107 175.13 191.627 175.13C193.007 175.13 194.147 175.43 195.047 176.03C195.967 176.63 196.657 177.51 197.117 178.67C197.577 179.83 197.807 181.26 197.807 182.96C197.807 183.08 197.747 183.24 197.627 183.44C197.527 183.62 197.397 183.79 197.237 183.95C197.077 184.11 196.937 184.19 196.817 184.19H187.337C187.457 185.85 187.887 187.07 188.627 187.85C189.367 188.63 190.477 189.02 191.957 189.02C192.837 189.02 193.577 188.92 194.177 188.72C194.797 188.5 195.287 188.29 195.647 188.09C196.007 187.87 196.237 187.76 196.337 187.76C196.477 187.76 196.627 187.86 196.787 188.06C196.947 188.26 197.087 188.48 197.207 188.72C197.327 188.96 197.387 189.14 197.387 189.26C197.387 189.44 197.247 189.64 196.967 189.86C196.687 190.08 196.297 190.29 195.797 190.49C195.317 190.69 194.747 190.86 194.087 191C193.447 191.12 192.747 191.18 191.987 191.18ZM187.337 182.03H195.137C195.137 180.45 194.837 179.27 194.237 178.49C193.637 177.69 192.737 177.29 191.537 177.29C190.237 177.29 189.237 177.69 188.537 178.49C187.837 179.27 187.437 180.45 187.337 182.03ZM212.876 191.06C212.076 191.06 211.676 190.84 211.676 190.4V170.9C211.676 170.3 211.976 170 212.576 170H222.026C222.426 170 222.626 170.3 222.626 170.9V171.38C222.626 171.98 222.426 172.28 222.026 172.28H214.316V179.72H221.486C221.886 179.72 222.086 180.02 222.086 180.62V181.1C222.086 181.7 221.886 182 221.486 182H214.316V190.4C214.316 190.84 213.916 191.06 213.116 191.06H212.876ZM228.984 191.06C228.184 191.06 227.784 190.84 227.784 190.4V175.91C227.784 175.47 228.184 175.25 228.984 175.25H229.104C229.904 175.25 230.304 175.47 230.304 175.91V190.4C230.304 190.84 229.904 191.06 229.104 191.06H228.984ZM229.044 173.15C228.564 173.15 228.224 173.09 228.024 172.97C227.824 172.85 227.724 172.69 227.724 172.49V170.69C227.724 170.49 227.824 170.33 228.024 170.21C228.224 170.09 228.564 170.03 229.044 170.03C229.524 170.03 229.864 170.09 230.064 170.21C230.264 170.31 230.364 170.47 230.364 170.69V172.49C230.364 172.69 230.264 172.85 230.064 172.97C229.864 173.09 229.524 173.15 229.044 173.15ZM238.094 191.06C237.294 191.06 236.894 190.84 236.894 190.4V179.87C236.894 179.05 236.864 178.37 236.804 177.83C236.744 177.29 236.684 176.88 236.624 176.6C236.564 176.3 236.534 176.13 236.534 176.09C236.534 175.95 236.594 175.84 236.714 175.76C236.854 175.66 237.014 175.59 237.194 175.55C237.374 175.49 237.554 175.45 237.734 175.43C237.914 175.41 238.054 175.4 238.154 175.4C238.394 175.4 238.574 175.51 238.694 175.73C238.834 175.95 238.934 176.22 238.994 176.54C239.074 176.84 239.144 177.12 239.204 177.38C239.724 176.66 240.274 176.11 240.854 175.73C241.454 175.33 242.064 175.13 242.684 175.13C243.264 175.13 243.694 175.23 243.974 175.43C244.274 175.61 244.424 175.9 244.424 176.3C244.424 176.48 244.394 176.7 244.334 176.96C244.294 177.22 244.224 177.45 244.124 177.65C244.044 177.83 243.944 177.92 243.824 177.92C243.624 177.92 243.424 177.87 243.224 177.77C243.044 177.65 242.694 177.59 242.174 177.59C241.654 177.59 241.184 177.74 240.764 178.04C240.344 178.34 240.014 178.65 239.774 178.97C239.534 179.27 239.414 179.42 239.414 179.42V190.4C239.414 190.84 239.014 191.06 238.214 191.06H238.094ZM252.32 191.27C251.42 191.27 250.61 191.16 249.89 190.94C249.17 190.72 248.6 190.46 248.18 190.16C247.76 189.86 247.55 189.6 247.55 189.38C247.55 189.26 247.61 189.08 247.73 188.84C247.85 188.6 247.99 188.38 248.15 188.18C248.31 187.98 248.46 187.88 248.6 187.88C248.68 187.88 248.86 187.98 249.14 188.18C249.42 188.38 249.81 188.58 250.31 188.78C250.83 188.98 251.44 189.08 252.14 189.08C254.1 189.08 255.08 188.34 255.08 186.86C255.08 186.06 254.79 185.48 254.21 185.12C253.65 184.74 252.94 184.41 252.08 184.13C251.38 183.89 250.71 183.61 250.07 183.29C249.43 182.95 248.91 182.48 248.51 181.88C248.11 181.28 247.91 180.47 247.91 179.45C247.91 178.61 248.12 177.86 248.54 177.2C248.98 176.54 249.57 176.03 250.31 175.67C251.07 175.29 251.93 175.1 252.89 175.1C253.57 175.1 254.21 175.16 254.81 175.28C255.41 175.4 255.9 175.56 256.28 175.76C256.66 175.96 256.85 176.17 256.85 176.39C256.85 176.55 256.79 176.76 256.67 177.02C256.57 177.28 256.45 177.51 256.31 177.71C256.17 177.91 256.03 178.01 255.89 178.01C255.81 178.01 255.54 177.88 255.08 177.62C254.62 177.36 253.98 177.23 253.16 177.23C252.42 177.23 251.79 177.41 251.27 177.77C250.75 178.11 250.49 178.6 250.49 179.24C250.49 179.8 250.65 180.25 250.97 180.59C251.29 180.91 251.91 181.22 252.83 181.52C253.75 181.82 254.57 182.18 255.29 182.6C256.01 183 256.58 183.52 257 184.16C257.42 184.78 257.63 185.59 257.63 186.59C257.63 187.49 257.39 188.29 256.91 188.99C256.45 189.69 255.82 190.25 255.02 190.67C254.22 191.07 253.32 191.27 252.32 191.27ZM267.053 191.18C266.673 191.18 266.263 191.12 265.823 191C265.383 190.9 264.963 190.71 264.563 190.43C264.163 190.13 263.833 189.71 263.573 189.17C263.313 188.61 263.183 187.9 263.183 187.04V177.47H261.683C261.283 177.47 261.083 177.17 261.083 176.57V176.21C261.083 175.61 261.283 175.31 261.683 175.31H263.183L263.543 172.16C263.583 171.72 263.903 171.5 264.503 171.5H264.803C265.403 171.5 265.703 171.72 265.703 172.16V175.31H268.223C268.623 175.31 268.823 175.61 268.823 176.21V176.57C268.823 177.17 268.623 177.47 268.223 177.47H265.703V186.8C265.703 187.7 265.863 188.3 266.183 188.6C266.503 188.88 266.883 189.02 267.323 189.02C267.763 189.02 268.053 189 268.193 188.96C268.333 188.9 268.473 188.87 268.613 188.87C268.753 188.87 268.863 188.97 268.943 189.17C269.043 189.37 269.113 189.59 269.153 189.83C269.213 190.05 269.243 190.2 269.243 190.28C269.243 190.54 269.113 190.74 268.853 190.88C268.613 191 268.323 191.08 267.983 191.12C267.643 191.16 267.333 191.18 267.053 191.18ZM287.154 191.18C285.874 191.18 284.734 191.03 283.734 190.73C282.734 190.43 281.994 190.1 281.514 189.74C281.134 189.46 280.944 189.21 280.944 188.99C280.944 188.83 281.004 188.62 281.124 188.36C281.264 188.1 281.414 187.87 281.574 187.67C281.754 187.47 281.894 187.37 281.994 187.37C282.054 187.37 282.134 187.4 282.234 187.46C282.354 187.5 282.484 187.57 282.624 187.67C283.024 187.89 283.604 188.15 284.364 188.45C285.124 188.75 286.054 188.9 287.154 188.9C287.914 188.9 288.584 188.76 289.164 188.48C289.764 188.18 290.234 187.76 290.574 187.22C290.914 186.68 291.084 186.06 291.084 185.36C291.084 184.56 290.864 183.92 290.424 183.44C290.004 182.94 289.444 182.53 288.744 182.21C288.064 181.89 287.334 181.58 286.554 181.28C285.914 181.04 285.284 180.78 284.664 180.5C284.044 180.2 283.484 179.84 282.984 179.42C282.484 179 282.084 178.47 281.784 177.83C281.484 177.17 281.334 176.35 281.334 175.37C281.334 174.29 281.604 173.33 282.144 172.49C282.704 171.65 283.484 171 284.484 170.54C285.484 170.06 286.654 169.82 287.994 169.82C288.414 169.82 288.884 169.86 289.404 169.94C289.944 170.02 290.464 170.14 290.964 170.3C291.484 170.46 291.904 170.65 292.224 170.87C292.624 171.11 292.824 171.37 292.824 171.65C292.824 171.79 292.764 171.99 292.644 172.25C292.524 172.51 292.384 172.74 292.224 172.94C292.084 173.14 291.964 173.24 291.864 173.24C291.784 173.24 291.674 173.21 291.534 173.15C291.414 173.07 291.254 172.98 291.054 172.88C290.734 172.72 290.324 172.55 289.824 172.37C289.324 172.19 288.694 172.1 287.934 172.1C287.194 172.1 286.524 172.23 285.924 172.49C285.344 172.75 284.884 173.13 284.544 173.63C284.224 174.13 284.064 174.75 284.064 175.49C284.064 176.21 284.254 176.78 284.634 177.2C285.014 177.62 285.514 177.97 286.134 178.25C286.754 178.51 287.424 178.78 288.144 179.06C288.804 179.32 289.464 179.61 290.124 179.93C290.804 180.23 291.424 180.61 291.984 181.07C292.544 181.53 292.984 182.11 293.304 182.81C293.644 183.49 293.814 184.34 293.814 185.36C293.814 186.26 293.654 187.07 293.334 187.79C293.034 188.51 292.584 189.12 291.984 189.62C291.404 190.12 290.704 190.51 289.884 190.79C289.084 191.05 288.174 191.18 287.154 191.18ZM304.644 191.18C302.384 191.18 300.654 190.5 299.454 189.14C298.274 187.78 297.684 185.81 297.684 183.23C297.684 180.63 298.284 178.63 299.484 177.23C300.684 175.83 302.404 175.13 304.644 175.13C306.844 175.13 308.524 175.83 309.684 177.23C310.864 178.61 311.454 180.61 311.454 183.23C311.454 185.83 310.874 187.81 309.714 189.17C308.574 190.51 306.884 191.18 304.644 191.18ZM304.554 189.02C306.034 189.02 307.114 188.55 307.794 187.61C308.494 186.65 308.844 185.17 308.844 183.17C308.844 181.17 308.494 179.69 307.794 178.73C307.114 177.77 306.034 177.29 304.554 177.29C303.094 177.29 302.024 177.77 301.344 178.73C300.664 179.67 300.324 181.15 300.324 183.17C300.324 185.17 300.664 186.65 301.344 187.61C302.024 188.55 303.094 189.02 304.554 189.02ZM320.644 191.18C320.264 191.18 319.854 191.12 319.414 191C318.974 190.9 318.554 190.71 318.154 190.43C317.754 190.13 317.424 189.71 317.164 189.17C316.904 188.61 316.774 187.9 316.774 187.04V169.1C316.774 168.66 317.174 168.44 317.974 168.44H318.094C318.894 168.44 319.294 168.66 319.294 169.1V186.8C319.294 187.7 319.454 188.3 319.774 188.6C320.094 188.88 320.474 189.02 320.914 189.02C321.354 189.02 321.644 189 321.784 188.96C321.924 188.9 322.064 188.87 322.204 188.87C322.344 188.87 322.454 188.97 322.534 189.17C322.634 189.37 322.704 189.59 322.744 189.83C322.804 190.05 322.834 190.2 322.834 190.28C322.834 190.54 322.704 190.74 322.444 190.88C322.204 191 321.914 191.08 321.574 191.12C321.234 191.16 320.924 191.18 320.644 191.18ZM331.56 191.18C330.04 191.18 328.84 190.75 327.96 189.89C327.1 189.03 326.67 187.84 326.67 186.32V175.91C326.67 175.47 327.07 175.25 327.87 175.25H327.99C328.79 175.25 329.19 175.47 329.19 175.91V186.08C329.19 187 329.45 187.72 329.97 188.24C330.51 188.74 331.27 188.99 332.25 188.99C332.93 188.99 333.6 188.8 334.26 188.42C334.94 188.04 335.53 187.53 336.03 186.89V175.91C336.03 175.47 336.43 175.25 337.23 175.25H337.35C338.15 175.25 338.55 175.47 338.55 175.91V186.56C338.55 187.38 338.58 188.06 338.64 188.6C338.7 189.14 338.76 189.55 338.82 189.83C338.88 190.11 338.91 190.28 338.91 190.34C338.91 190.48 338.84 190.6 338.7 190.7C338.58 190.78 338.43 190.85 338.25 190.91C338.07 190.95 337.89 190.98 337.71 191C337.53 191.02 337.39 191.03 337.29 191.03C337.05 191.03 336.86 190.92 336.72 190.7C336.6 190.46 336.5 190.18 336.42 189.86C336.36 189.52 336.3 189.21 336.24 188.93C335.62 189.63 334.89 190.18 334.05 190.58C333.23 190.98 332.4 191.18 331.56 191.18ZM349.399 191.18C349.019 191.18 348.609 191.12 348.169 191C347.729 190.9 347.309 190.71 346.909 190.43C346.509 190.13 346.179 189.71 345.919 189.17C345.659 188.61 345.529 187.9 345.529 187.04V177.47H344.029C343.629 177.47 343.429 177.17 343.429 176.57V176.21C343.429 175.61 343.629 175.31 344.029 175.31H345.529L345.889 172.16C345.929 171.72 346.249 171.5 346.849 171.5H347.149C347.749 171.5 348.049 171.72 348.049 172.16V175.31H350.569C350.969 175.31 351.169 175.61 351.169 176.21V176.57C351.169 177.17 350.969 177.47 350.569 177.47H348.049V186.8C348.049 187.7 348.209 188.3 348.529 188.6C348.849 188.88 349.229 189.02 349.669 189.02C350.109 189.02 350.399 189 350.539 188.96C350.679 188.9 350.819 188.87 350.959 188.87C351.099 188.87 351.209 188.97 351.289 189.17C351.389 189.37 351.459 189.59 351.499 189.83C351.559 190.05 351.589 190.2 351.589 190.28C351.589 190.54 351.459 190.74 351.199 190.88C350.959 191 350.669 191.08 350.329 191.12C349.989 191.16 349.679 191.18 349.399 191.18ZM357.703 191.06C356.903 191.06 356.503 190.84 356.503 190.4V175.91C356.503 175.47 356.903 175.25 357.703 175.25H357.823C358.623 175.25 359.023 175.47 359.023 175.91V190.4C359.023 190.84 358.623 191.06 357.823 191.06H357.703ZM357.763 173.15C357.283 173.15 356.943 173.09 356.743 172.97C356.543 172.85 356.443 172.69 356.443 172.49V170.69C356.443 170.49 356.543 170.33 356.743 170.21C356.943 170.09 357.283 170.03 357.763 170.03C358.243 170.03 358.583 170.09 358.783 170.21C358.983 170.31 359.083 170.47 359.083 170.69V172.49C359.083 172.69 358.983 172.85 358.783 172.97C358.583 173.09 358.243 173.15 357.763 173.15ZM371.522 191.18C369.262 191.18 367.532 190.5 366.332 189.14C365.152 187.78 364.562 185.81 364.562 183.23C364.562 180.63 365.162 178.63 366.362 177.23C367.562 175.83 369.282 175.13 371.522 175.13C373.722 175.13 375.402 175.83 376.562 177.23C377.742 178.61 378.332 180.61 378.332 183.23C378.332 185.83 377.752 187.81 376.592 189.17C375.452 190.51 373.762 191.18 371.522 191.18ZM371.432 189.02C372.912 189.02 373.992 188.55 374.672 187.61C375.372 186.65 375.722 185.17 375.722 183.17C375.722 181.17 375.372 179.69 374.672 178.73C373.992 177.77 372.912 177.29 371.432 177.29C369.972 177.29 368.902 177.77 368.222 178.73C367.542 179.67 367.202 181.15 367.202 183.17C367.202 185.17 367.542 186.65 368.222 187.61C368.902 188.55 369.972 189.02 371.432 189.02ZM384.973 191.06C384.173 191.06 383.773 190.84 383.773 190.4V179.87C383.773 179.05 383.743 178.37 383.683 177.83C383.623 177.29 383.563 176.88 383.503 176.6C383.443 176.3 383.413 176.13 383.413 176.09C383.413 175.95 383.473 175.84 383.593 175.76C383.733 175.66 383.893 175.59 384.073 175.55C384.253 175.49 384.433 175.45 384.613 175.43C384.793 175.41 384.933 175.4 385.033 175.4C385.273 175.4 385.453 175.51 385.573 175.73C385.713 175.95 385.813 176.22 385.873 176.54C385.953 176.84 386.023 177.12 386.083 177.38C386.723 176.68 387.453 176.13 388.273 175.73C389.093 175.33 389.923 175.13 390.763 175.13C392.303 175.13 393.503 175.56 394.363 176.42C395.223 177.28 395.653 178.47 395.653 179.99V190.4C395.653 190.84 395.253 191.06 394.453 191.06H394.333C393.533 191.06 393.133 190.84 393.133 190.4V180.23C393.133 179.31 392.863 178.6 392.323 178.1C391.803 177.58 391.053 177.32 390.073 177.32C389.393 177.32 388.713 177.51 388.033 177.89C387.373 178.27 386.793 178.78 386.293 179.42V190.4C386.293 190.84 385.893 191.06 385.093 191.06H384.973ZM411.939 191.06C411.139 191.06 410.739 190.84 410.739 190.4V177.47H409.539C409.139 177.47 408.939 177.17 408.939 176.57V176.21C408.939 175.61 409.139 175.31 409.539 175.31H410.739V172.46C410.739 171.56 410.869 170.84 411.129 170.3C411.389 169.76 411.719 169.35 412.119 169.07C412.519 168.77 412.939 168.57 413.379 168.47C413.819 168.37 414.229 168.32 414.609 168.32C414.889 168.32 415.199 168.34 415.539 168.38C415.879 168.42 416.169 168.5 416.409 168.62C416.669 168.74 416.799 168.94 416.799 169.22C416.799 169.3 416.769 169.46 416.709 169.7C416.669 169.92 416.599 170.13 416.499 170.33C416.419 170.53 416.309 170.63 416.169 170.63C416.029 170.63 415.889 170.61 415.749 170.57C415.609 170.51 415.319 170.48 414.879 170.48C414.599 170.48 414.329 170.53 414.069 170.63C413.829 170.73 413.629 170.94 413.469 171.26C413.329 171.56 413.259 172.04 413.259 172.7V175.31H415.869C416.269 175.31 416.469 175.61 416.469 176.21V176.57C416.469 177.17 416.269 177.47 415.869 177.47H413.259V190.4C413.259 190.84 412.859 191.06 412.059 191.06H411.939ZM427.065 191.18C424.805 191.18 423.075 190.5 421.875 189.14C420.695 187.78 420.105 185.81 420.105 183.23C420.105 180.63 420.705 178.63 421.905 177.23C423.105 175.83 424.825 175.13 427.065 175.13C429.265 175.13 430.945 175.83 432.105 177.23C433.285 178.61 433.875 180.61 433.875 183.23C433.875 185.83 433.295 187.81 432.135 189.17C430.995 190.51 429.305 191.18 427.065 191.18ZM426.975 189.02C428.455 189.02 429.535 188.55 430.215 187.61C430.915 186.65 431.265 185.17 431.265 183.17C431.265 181.17 430.915 179.69 430.215 178.73C429.535 177.77 428.455 177.29 426.975 177.29C425.515 177.29 424.445 177.77 423.765 178.73C423.085 179.67 422.745 181.15 422.745 183.17C422.745 185.17 423.085 186.65 423.765 187.61C424.445 188.55 425.515 189.02 426.975 189.02ZM440.635 191.06C439.835 191.06 439.435 190.84 439.435 190.4V179.87C439.435 179.05 439.405 178.37 439.345 177.83C439.285 177.29 439.225 176.88 439.165 176.6C439.105 176.3 439.075 176.13 439.075 176.09C439.075 175.95 439.135 175.84 439.255 175.76C439.395 175.66 439.555 175.59 439.735 175.55C439.915 175.49 440.095 175.45 440.275 175.43C440.455 175.41 440.595 175.4 440.695 175.4C440.935 175.4 441.115 175.51 441.235 175.73C441.375 175.95 441.475 176.22 441.535 176.54C441.615 176.84 441.685 177.12 441.745 177.38C442.265 176.66 442.815 176.11 443.395 175.73C443.995 175.33 444.605 175.13 445.225 175.13C445.805 175.13 446.235 175.23 446.515 175.43C446.815 175.61 446.965 175.9 446.965 176.3C446.965 176.48 446.935 176.7 446.875 176.96C446.835 177.22 446.765 177.45 446.665 177.65C446.585 177.83 446.485 177.92 446.365 177.92C446.165 177.92 445.965 177.87 445.765 177.77C445.585 177.65 445.235 177.59 444.715 177.59C444.195 177.59 443.725 177.74 443.305 178.04C442.885 178.34 442.555 178.65 442.315 178.97C442.075 179.27 441.955 179.42 441.955 179.42V190.4C441.955 190.84 441.555 191.06 440.755 191.06H440.635ZM464.648 191.18C463.368 191.18 462.228 191.03 461.228 190.73C460.228 190.43 459.488 190.1 459.008 189.74C458.628 189.46 458.438 189.21 458.438 188.99C458.438 188.83 458.498 188.62 458.618 188.36C458.758 188.1 458.908 187.87 459.068 187.67C459.248 187.47 459.388 187.37 459.488 187.37C459.548 187.37 459.628 187.4 459.728 187.46C459.848 187.5 459.978 187.57 460.118 187.67C460.518 187.89 461.098 188.15 461.858 188.45C462.618 188.75 463.548 188.9 464.648 188.9C465.408 188.9 466.078 188.76 466.658 188.48C467.258 188.18 467.728 187.76 468.068 187.22C468.408 186.68 468.578 186.06 468.578 185.36C468.578 184.56 468.358 183.92 467.918 183.44C467.498 182.94 466.938 182.53 466.238 182.21C465.558 181.89 464.828 181.58 464.048 181.28C463.408 181.04 462.778 180.78 462.158 180.5C461.538 180.2 460.978 179.84 460.478 179.42C459.978 179 459.578 178.47 459.278 177.83C458.978 177.17 458.828 176.35 458.828 175.37C458.828 174.29 459.098 173.33 459.638 172.49C460.198 171.65 460.978 171 461.978 170.54C462.978 170.06 464.148 169.82 465.488 169.82C465.908 169.82 466.378 169.86 466.898 169.94C467.438 170.02 467.958 170.14 468.458 170.3C468.978 170.46 469.398 170.65 469.718 170.87C470.118 171.11 470.318 171.37 470.318 171.65C470.318 171.79 470.258 171.99 470.138 172.25C470.018 172.51 469.878 172.74 469.718 172.94C469.578 173.14 469.458 173.24 469.358 173.24C469.278 173.24 469.168 173.21 469.028 173.15C468.908 173.07 468.748 172.98 468.548 172.88C468.228 172.72 467.818 172.55 467.318 172.37C466.818 172.19 466.188 172.1 465.428 172.1C464.688 172.1 464.018 172.23 463.418 172.49C462.838 172.75 462.378 173.13 462.038 173.63C461.718 174.13 461.558 174.75 461.558 175.49C461.558 176.21 461.748 176.78 462.128 177.2C462.508 177.62 463.008 177.97 463.628 178.25C464.248 178.51 464.918 178.78 465.638 179.06C466.298 179.32 466.958 179.61 467.618 179.93C468.298 180.23 468.918 180.61 469.478 181.07C470.038 181.53 470.478 182.11 470.798 182.81C471.138 183.49 471.308 184.34 471.308 185.36C471.308 186.26 471.148 187.07 470.828 187.79C470.528 188.51 470.078 189.12 469.478 189.62C468.898 190.12 468.198 190.51 467.378 190.79C466.578 191.05 465.668 191.18 464.648 191.18ZM482.528 191.18C480.048 191.18 478.198 190.53 476.978 189.23C475.778 187.93 475.178 185.94 475.178 183.26C475.178 181.48 475.438 179.99 475.958 178.79C476.498 177.59 477.288 176.68 478.328 176.06C479.368 175.44 480.648 175.13 482.168 175.13C483.548 175.13 484.688 175.43 485.588 176.03C486.508 176.63 487.198 177.51 487.658 178.67C488.118 179.83 488.348 181.26 488.348 182.96C488.348 183.08 488.288 183.24 488.168 183.44C488.068 183.62 487.938 183.79 487.778 183.95C487.618 184.11 487.478 184.19 487.358 184.19H477.878C477.998 185.85 478.428 187.07 479.168 187.85C479.908 188.63 481.018 189.02 482.498 189.02C483.378 189.02 484.118 188.92 484.718 188.72C485.338 188.5 485.828 188.29 486.188 188.09C486.548 187.87 486.778 187.76 486.878 187.76C487.018 187.76 487.168 187.86 487.328 188.06C487.488 188.26 487.628 188.48 487.748 188.72C487.868 188.96 487.928 189.14 487.928 189.26C487.928 189.44 487.788 189.64 487.508 189.86C487.228 190.08 486.838 190.29 486.338 190.49C485.858 190.69 485.288 190.86 484.628 191C483.988 191.12 483.288 191.18 482.528 191.18ZM477.878 182.03H485.678C485.678 180.45 485.378 179.27 484.778 178.49C484.178 177.69 483.278 177.29 482.078 177.29C480.778 177.29 479.778 177.69 479.078 178.49C478.378 179.27 477.978 180.45 477.878 182.03ZM494.68 191.06C493.88 191.06 493.48 190.84 493.48 190.4V179.87C493.48 179.05 493.45 178.37 493.39 177.83C493.33 177.29 493.27 176.88 493.21 176.6C493.15 176.3 493.12 176.13 493.12 176.09C493.12 175.95 493.18 175.84 493.3 175.76C493.44 175.66 493.6 175.59 493.78 175.55C493.96 175.49 494.14 175.45 494.32 175.43C494.5 175.41 494.64 175.4 494.74 175.4C494.98 175.4 495.16 175.51 495.28 175.73C495.42 175.95 495.52 176.22 495.58 176.54C495.66 176.84 495.73 177.12 495.79 177.38C496.43 176.68 497.16 176.13 497.98 175.73C498.8 175.33 499.63 175.13 500.47 175.13C502.01 175.13 503.21 175.56 504.07 176.42C504.93 177.28 505.36 178.47 505.36 179.99V190.4C505.36 190.84 504.96 191.06 504.16 191.06H504.04C503.24 191.06 502.84 190.84 502.84 190.4V180.23C502.84 179.31 502.57 178.6 502.03 178.1C501.51 177.58 500.76 177.32 499.78 177.32C499.1 177.32 498.42 177.51 497.74 177.89C497.08 178.27 496.5 178.78 496 179.42V190.4C496 190.84 495.6 191.06 494.8 191.06H494.68ZM514.739 191.27C513.839 191.27 513.029 191.16 512.309 190.94C511.589 190.72 511.019 190.46 510.599 190.16C510.179 189.86 509.969 189.6 509.969 189.38C509.969 189.26 510.029 189.08 510.149 188.84C510.269 188.6 510.409 188.38 510.569 188.18C510.729 187.98 510.879 187.88 511.019 187.88C511.099 187.88 511.279 187.98 511.559 188.18C511.839 188.38 512.229 188.58 512.729 188.78C513.249 188.98 513.859 189.08 514.559 189.08C516.519 189.08 517.499 188.34 517.499 186.86C517.499 186.06 517.209 185.48 516.629 185.12C516.069 184.74 515.359 184.41 514.499 184.13C513.799 183.89 513.129 183.61 512.489 183.29C511.849 182.95 511.329 182.48 510.929 181.88C510.529 181.28 510.329 180.47 510.329 179.45C510.329 178.61 510.539 177.86 510.959 177.2C511.399 176.54 511.989 176.03 512.729 175.67C513.489 175.29 514.349 175.1 515.309 175.1C515.989 175.1 516.629 175.16 517.229 175.28C517.829 175.4 518.319 175.56 518.699 175.76C519.079 175.96 519.269 176.17 519.269 176.39C519.269 176.55 519.209 176.76 519.089 177.02C518.989 177.28 518.869 177.51 518.729 177.71C518.589 177.91 518.449 178.01 518.309 178.01C518.229 178.01 517.959 177.88 517.499 177.62C517.039 177.36 516.399 177.23 515.579 177.23C514.839 177.23 514.209 177.41 513.689 177.77C513.169 178.11 512.909 178.6 512.909 179.24C512.909 179.8 513.069 180.25 513.389 180.59C513.709 180.91 514.329 181.22 515.249 181.52C516.169 181.82 516.989 182.18 517.709 182.6C518.429 183 518.999 183.52 519.419 184.16C519.839 184.78 520.049 185.59 520.049 186.59C520.049 187.49 519.809 188.29 519.329 188.99C518.869 189.69 518.239 190.25 517.439 190.67C516.639 191.07 515.739 191.27 514.739 191.27ZM526.322 191.06C525.522 191.06 525.122 190.84 525.122 190.4V175.91C525.122 175.47 525.522 175.25 526.322 175.25H526.442C527.242 175.25 527.642 175.47 527.642 175.91V190.4C527.642 190.84 527.242 191.06 526.442 191.06H526.322ZM526.382 173.15C525.902 173.15 525.562 173.09 525.362 172.97C525.162 172.85 525.062 172.69 525.062 172.49V170.69C525.062 170.49 525.162 170.33 525.362 170.21C525.562 170.09 525.902 170.03 526.382 170.03C526.862 170.03 527.202 170.09 527.402 170.21C527.602 170.31 527.702 170.47 527.702 170.69V172.49C527.702 172.69 527.602 172.85 527.402 172.97C527.202 173.09 526.862 173.15 526.382 173.15ZM538.611 191.18C538.231 191.18 537.821 191.12 537.381 191C536.941 190.9 536.521 190.71 536.121 190.43C535.721 190.13 535.391 189.71 535.131 189.17C534.871 188.61 534.741 187.9 534.741 187.04V177.47H533.241C532.841 177.47 532.641 177.17 532.641 176.57V176.21C532.641 175.61 532.841 175.31 533.241 175.31H534.741L535.101 172.16C535.141 171.72 535.461 171.5 536.061 171.5H536.361C536.961 171.5 537.261 171.72 537.261 172.16V175.31H539.781C540.181 175.31 540.381 175.61 540.381 176.21V176.57C540.381 177.17 540.181 177.47 539.781 177.47H537.261V186.8C537.261 187.7 537.421 188.3 537.741 188.6C538.061 188.88 538.441 189.02 538.881 189.02C539.321 189.02 539.611 189 539.751 188.96C539.891 188.9 540.031 188.87 540.171 188.87C540.311 188.87 540.421 188.97 540.501 189.17C540.601 189.37 540.671 189.59 540.711 189.83C540.771 190.05 540.801 190.2 540.801 190.28C540.801 190.54 540.671 190.74 540.411 190.88C540.171 191 539.881 191.08 539.541 191.12C539.201 191.16 538.891 191.18 538.611 191.18ZM546.915 191.06C546.115 191.06 545.715 190.84 545.715 190.4V175.91C545.715 175.47 546.115 175.25 546.915 175.25H547.035C547.835 175.25 548.235 175.47 548.235 175.91V190.4C548.235 190.84 547.835 191.06 547.035 191.06H546.915ZM546.975 173.15C546.495 173.15 546.155 173.09 545.955 172.97C545.755 172.85 545.655 172.69 545.655 172.49V170.69C545.655 170.49 545.755 170.33 545.955 170.21C546.155 170.09 546.495 170.03 546.975 170.03C547.455 170.03 547.795 170.09 547.995 170.21C548.195 170.31 548.295 170.47 548.295 170.69V172.49C548.295 172.69 548.195 172.85 547.995 172.97C547.795 173.09 547.455 173.15 546.975 173.15ZM558.875 191.06C558.575 191.06 558.315 191.03 558.095 190.97C557.875 190.89 557.735 190.76 557.675 190.58L552.845 176.15C552.825 176.11 552.805 176.05 552.785 175.97C552.765 175.89 552.755 175.82 552.755 175.76C552.755 175.42 553.185 175.25 554.045 175.25H554.195C554.495 175.25 554.755 175.29 554.975 175.37C555.195 175.43 555.335 175.55 555.395 175.73L558.455 185.3C558.635 185.9 558.815 186.55 558.995 187.25C559.175 187.93 559.325 188.53 559.445 189.05H559.565C559.685 188.53 559.835 187.91 560.015 187.19C560.195 186.45 560.425 185.66 560.705 184.82L563.615 175.73C563.675 175.55 563.815 175.43 564.035 175.37C564.255 175.29 564.525 175.25 564.845 175.25H564.935C565.675 175.25 566.045 175.42 566.045 175.76C566.045 175.86 566.015 176 565.955 176.18L561.125 190.58C561.065 190.76 560.925 190.89 560.705 190.97C560.485 191.03 560.225 191.06 559.925 191.06H558.875ZM576.592 191.18C574.112 191.18 572.262 190.53 571.042 189.23C569.842 187.93 569.242 185.94 569.242 183.26C569.242 181.48 569.502 179.99 570.022 178.79C570.562 177.59 571.352 176.68 572.392 176.06C573.432 175.44 574.712 175.13 576.232 175.13C577.612 175.13 578.752 175.43 579.652 176.03C580.572 176.63 581.262 177.51 581.722 178.67C582.182 179.83 582.412 181.26 582.412 182.96C582.412 183.08 582.352 183.24 582.232 183.44C582.132 183.62 582.002 183.79 581.842 183.95C581.682 184.11 581.542 184.19 581.422 184.19H571.942C572.062 185.85 572.492 187.07 573.232 187.85C573.972 188.63 575.082 189.02 576.562 189.02C577.442 189.02 578.182 188.92 578.782 188.72C579.402 188.5 579.892 188.29 580.252 188.09C580.612 187.87 580.842 187.76 580.942 187.76C581.082 187.76 581.232 187.86 581.392 188.06C581.552 188.26 581.692 188.48 581.812 188.72C581.932 188.96 581.992 189.14 581.992 189.26C581.992 189.44 581.852 189.64 581.572 189.86C581.292 190.08 580.902 190.29 580.402 190.49C579.922 190.69 579.352 190.86 578.692 191C578.052 191.12 577.352 191.18 576.592 191.18ZM571.942 182.03H579.742C579.742 180.45 579.442 179.27 578.842 178.49C578.242 177.69 577.342 177.29 576.142 177.29C574.842 177.29 573.842 177.69 573.142 178.49C572.442 179.27 572.042 180.45 571.942 182.03ZM600.691 191.18C599.411 191.18 598.271 191.03 597.271 190.73C596.271 190.43 595.531 190.1 595.051 189.74C594.671 189.46 594.481 189.21 594.481 188.99C594.481 188.83 594.541 188.62 594.661 188.36C594.801 188.1 594.951 187.87 595.111 187.67C595.291 187.47 595.431 187.37 595.531 187.37C595.591 187.37 595.671 187.4 595.771 187.46C595.891 187.5 596.021 187.57 596.161 187.67C596.561 187.89 597.141 188.15 597.901 188.45C598.661 188.75 599.591 188.9 600.691 188.9C601.451 188.9 602.121 188.76 602.701 188.48C603.301 188.18 603.771 187.76 604.111 187.22C604.451 186.68 604.621 186.06 604.621 185.36C604.621 184.56 604.401 183.92 603.961 183.44C603.541 182.94 602.981 182.53 602.281 182.21C601.601 181.89 600.871 181.58 600.091 181.28C599.451 181.04 598.821 180.78 598.201 180.5C597.581 180.2 597.021 179.84 596.521 179.42C596.021 179 595.621 178.47 595.321 177.83C595.021 177.17 594.871 176.35 594.871 175.37C594.871 174.29 595.141 173.33 595.681 172.49C596.241 171.65 597.021 171 598.021 170.54C599.021 170.06 600.191 169.82 601.531 169.82C601.951 169.82 602.421 169.86 602.941 169.94C603.481 170.02 604.001 170.14 604.501 170.3C605.021 170.46 605.441 170.65 605.761 170.87C606.161 171.11 606.361 171.37 606.361 171.65C606.361 171.79 606.301 171.99 606.181 172.25C606.061 172.51 605.921 172.74 605.761 172.94C605.621 173.14 605.501 173.24 605.401 173.24C605.321 173.24 605.211 173.21 605.071 173.15C604.951 173.07 604.791 172.98 604.591 172.88C604.271 172.72 603.861 172.55 603.361 172.37C602.861 172.19 602.231 172.1 601.471 172.1C600.731 172.1 600.061 172.23 599.461 172.49C598.881 172.75 598.421 173.13 598.081 173.63C597.761 174.13 597.601 174.75 597.601 175.49C597.601 176.21 597.791 176.78 598.171 177.2C598.551 177.62 599.051 177.97 599.671 178.25C600.291 178.51 600.961 178.78 601.681 179.06C602.341 179.32 603.001 179.61 603.661 179.93C604.341 180.23 604.961 180.61 605.521 181.07C606.081 181.53 606.521 182.11 606.841 182.81C607.181 183.49 607.351 184.34 607.351 185.36C607.351 186.26 607.191 187.07 606.871 187.79C606.571 188.51 606.121 189.12 605.521 189.62C604.941 190.12 604.241 190.51 603.421 190.79C602.621 191.05 601.711 191.18 600.691 191.18ZM613.591 191.06C612.791 191.06 612.391 190.84 612.391 190.4V169.1C612.391 168.66 612.791 168.44 613.591 168.44H613.711C614.511 168.44 614.911 168.66 614.911 169.1V182.51H615.031L620.761 175.67C620.901 175.51 621.121 175.4 621.421 175.34C621.721 175.28 622.031 175.25 622.351 175.25H622.471C623.171 175.25 623.521 175.38 623.521 175.64C623.521 175.82 623.421 176.02 623.221 176.24L616.981 183.62V182.06L623.821 190.16C624.001 190.36 624.091 190.52 624.091 190.64C624.091 190.92 623.651 191.06 622.771 191.06H622.651C622.331 191.06 622.021 191.04 621.721 191C621.421 190.96 621.191 190.85 621.031 190.67L615.031 183.56H614.911V190.4C614.911 190.84 614.511 191.06 613.711 191.06H613.591ZM630.346 191.06C629.546 191.06 629.146 190.84 629.146 190.4V175.91C629.146 175.47 629.546 175.25 630.346 175.25H630.466C631.266 175.25 631.666 175.47 631.666 175.91V190.4C631.666 190.84 631.266 191.06 630.466 191.06H630.346ZM630.406 173.15C629.926 173.15 629.586 173.09 629.386 172.97C629.186 172.85 629.086 172.69 629.086 172.49V170.69C629.086 170.49 629.186 170.33 629.386 170.21C629.586 170.09 629.926 170.03 630.406 170.03C630.886 170.03 631.226 170.09 631.426 170.21C631.626 170.31 631.726 170.47 631.726 170.69V172.49C631.726 172.69 631.626 172.85 631.426 172.97C631.226 173.09 630.886 173.15 630.406 173.15ZM639.335 191.06C638.535 191.06 638.135 190.84 638.135 190.4V179.87C638.135 179.05 638.105 178.37 638.045 177.83C637.985 177.29 637.925 176.88 637.865 176.6C637.805 176.3 637.775 176.13 637.775 176.09C637.775 175.95 637.835 175.84 637.955 175.76C638.095 175.66 638.255 175.59 638.435 175.55C638.615 175.49 638.795 175.45 638.975 175.43C639.155 175.41 639.295 175.4 639.395 175.4C639.635 175.4 639.815 175.51 639.935 175.73C640.075 175.95 640.175 176.22 640.235 176.54C640.315 176.84 640.385 177.12 640.445 177.38C641.085 176.68 641.815 176.13 642.635 175.73C643.455 175.33 644.285 175.13 645.125 175.13C646.665 175.13 647.865 175.56 648.725 176.42C649.585 177.28 650.015 178.47 650.015 179.99V190.4C650.015 190.84 649.615 191.06 648.815 191.06H648.695C647.895 191.06 647.495 190.84 647.495 190.4V180.23C647.495 179.31 647.225 178.6 646.685 178.1C646.165 177.58 645.415 177.32 644.435 177.32C643.755 177.32 643.075 177.51 642.395 177.89C641.735 178.27 641.155 178.78 640.655 179.42V190.4C640.655 190.84 640.255 191.06 639.455 191.06H639.335Z" fill="#954368"/>
</svg>
