<svg width="660" height="280" viewBox="0 0 660 280" fill="none" xmlns="http://www.w3.org/2000/svg">
<rect width="660" height="280" fill="white"/>
<path d="M38.9827 45L30 55H290" stroke="#282828" stroke-width="2"/>
<path d="M621.017 45L630 55H370" stroke="#282828" stroke-width="2"/>
<path d="M307.637 73.74H312.929V67.62L312.749 64.344C314.261 65.748 315.989 66.504 317.717 66.504C322.145 66.504 326.285 62.544 326.285 55.632C326.285 49.404 323.333 45.372 318.365 45.372C316.205 45.372 314.117 46.488 312.461 47.964H312.353L311.921 45.876H307.637V73.74ZM316.565 62.148C315.485 62.148 314.189 61.788 312.929 60.672V51.78C314.297 50.376 315.521 49.692 316.853 49.692C319.661 49.692 320.849 51.816 320.849 55.704C320.849 60.06 318.977 62.148 316.565 62.148ZM331.237 66H336.565V54.48H346.645V66H351.937V39.36H346.645V49.872H336.565V39.36H331.237V66Z" fill="black"/>
<path d="M330 170V190" stroke="#872659" stroke-width="2"/>
<circle cx="60" cy="130" r="20" fill="#F50013"/>
<circle cx="168" cy="130" r="20" fill="#FB9D00"/>
<circle cx="276" cy="130" r="20" fill="#EBF200"/>
<circle cx="384" cy="130" r="20" fill="#009349"/>
<circle cx="492" cy="130" r="20" fill="#0485DD"/>
<circle cx="114" cy="130" r="20" fill="#D95318"/>
<circle cx="222" cy="130" r="20" fill="#FFF300"/>
<circle cx="330" cy="130" r="20" fill="#A6E324"/>
<circle cx="438" cy="130" r="20" fill="#32B4F2"/>
<circle cx="546" cy="130" r="20" fill="#3F5CEB"/>
<circle cx="600" cy="130" r="20" fill="#7F21AF"/>
<path d="M59.6836 138V126.141C59.4805 126.328 59.2305 126.516 58.9336 126.703C58.6445 126.883 58.3398 127.055 58.0195 127.219C57.6992 127.375 57.3828 127.52 57.0703 127.652C56.7578 127.777 56.4844 127.875 56.25 127.945V125.637C56.5156 125.527 56.8203 125.363 57.1641 125.145C57.5156 124.926 57.8555 124.695 58.1836 124.453C58.5117 124.203 58.8086 123.965 59.0742 123.738C59.3398 123.512 59.5195 123.336 59.6133 123.211H62.1328V138H59.6836Z" fill="black"/>
<path d="M497.156 130.055C497.156 131.516 497.016 132.75 496.734 133.758C496.461 134.766 496.074 135.586 495.574 136.219C495.082 136.844 494.488 137.297 493.793 137.578C493.105 137.859 492.348 138 491.52 138C490.855 138 490.25 137.91 489.703 137.73C489.164 137.543 488.699 137.289 488.309 136.969C487.926 136.641 487.629 136.262 487.418 135.832C487.207 135.402 487.102 134.941 487.102 134.449H489.645C489.645 134.668 489.672 134.895 489.727 135.129C489.789 135.355 489.891 135.566 490.031 135.762C490.18 135.949 490.375 136.105 490.617 136.23C490.859 136.355 491.16 136.418 491.52 136.418C491.941 136.418 492.32 136.355 492.656 136.23C492.992 136.098 493.285 135.844 493.535 135.469C493.793 135.094 494.012 134.574 494.191 133.91C494.371 133.238 494.52 132.363 494.637 131.285C494.48 131.473 494.289 131.652 494.062 131.824C493.844 131.988 493.59 132.137 493.301 132.27C493.012 132.395 492.684 132.496 492.316 132.574C491.957 132.652 491.562 132.691 491.133 132.691C490.797 132.691 490.449 132.656 490.09 132.586C489.738 132.516 489.391 132.402 489.047 132.246C488.703 132.09 488.375 131.891 488.062 131.648C487.758 131.398 487.488 131.098 487.254 130.746C487.027 130.395 486.844 129.984 486.703 129.516C486.57 129.047 486.504 128.516 486.504 127.922C486.504 127.023 486.656 126.25 486.961 125.602C487.266 124.953 487.668 124.418 488.168 123.996C488.668 123.574 489.242 123.266 489.891 123.07C490.539 122.867 491.211 122.766 491.906 122.766C492.367 122.766 492.816 122.812 493.254 122.906C493.699 122.992 494.113 123.145 494.496 123.363C494.887 123.574 495.242 123.859 495.562 124.219C495.891 124.578 496.172 125.031 496.406 125.578C496.648 126.117 496.832 126.758 496.957 127.5C497.09 128.234 497.156 129.086 497.156 130.055ZM494.566 127.781C494.566 127.32 494.492 126.887 494.344 126.48C494.203 126.074 494.008 125.723 493.758 125.426C493.516 125.121 493.227 124.883 492.891 124.711C492.555 124.531 492.195 124.441 491.812 124.441C491.438 124.441 491.082 124.531 490.746 124.711C490.41 124.883 490.117 125.121 489.867 125.426C489.625 125.723 489.43 126.074 489.281 126.48C489.141 126.887 489.07 127.32 489.07 127.781C489.07 128.242 489.141 128.676 489.281 129.082C489.43 129.488 489.625 129.844 489.867 130.148C490.117 130.453 490.41 130.695 490.746 130.875C491.082 131.047 491.438 131.133 491.812 131.133C492.195 131.133 492.555 131.047 492.891 130.875C493.227 130.695 493.516 130.453 493.758 130.148C494.008 129.844 494.203 129.488 494.344 129.082C494.492 128.676 494.566 128.242 494.566 127.781Z" fill="black"/>
<path d="M280.582 132.938C280.582 133.547 280.48 134.152 280.277 134.754C280.074 135.355 279.75 135.898 279.305 136.383C278.867 136.859 278.305 137.25 277.617 137.555C276.938 137.852 276.117 138 275.156 138C274.516 138 273.961 137.93 273.492 137.789C273.023 137.648 272.621 137.465 272.285 137.238C271.949 137.012 271.676 136.758 271.465 136.477C271.254 136.188 271.086 135.902 270.961 135.621C270.844 135.332 270.762 135.059 270.715 134.801C270.668 134.535 270.645 134.312 270.645 134.133H272.953C272.984 134.406 273.055 134.676 273.164 134.941C273.281 135.199 273.438 135.43 273.633 135.633C273.836 135.836 274.074 136 274.348 136.125C274.621 136.242 274.934 136.301 275.285 136.301C275.754 136.301 276.16 136.215 276.504 136.043C276.848 135.863 277.129 135.625 277.348 135.328C277.574 135.023 277.742 134.668 277.852 134.262C277.961 133.848 278.016 133.406 278.016 132.938C278.016 132.477 277.965 132.059 277.863 131.684C277.77 131.309 277.617 130.992 277.406 130.734C277.203 130.469 276.934 130.266 276.598 130.125C276.27 129.984 275.871 129.914 275.402 129.914C274.988 129.914 274.633 129.969 274.336 130.078C274.039 130.188 273.789 130.336 273.586 130.523C273.383 130.711 273.219 130.93 273.094 131.18C272.977 131.422 272.891 131.68 272.836 131.953H270.961L271.242 123.188H279.551V125.473H273.047L272.883 129.551C273.125 129.309 273.363 129.102 273.598 128.93C273.84 128.758 274.09 128.617 274.348 128.508C274.605 128.398 274.875 128.32 275.156 128.273C275.445 128.227 275.75 128.203 276.07 128.203C276.805 128.203 277.453 128.34 278.016 128.613C278.578 128.879 279.051 129.234 279.434 129.68C279.816 130.117 280.102 130.621 280.289 131.191C280.484 131.754 280.582 132.336 280.582 132.938Z" fill="black"/>
<path d="M172.852 133.559C172.852 134.098 172.746 134.633 172.535 135.164C172.332 135.695 172.012 136.172 171.574 136.594C171.145 137.008 170.59 137.348 169.91 137.613C169.23 137.871 168.418 138 167.473 138C166.527 138 165.746 137.871 165.129 137.613C164.512 137.348 164.02 137.016 163.652 136.617C163.293 136.211 163.039 135.762 162.891 135.27C162.742 134.777 162.668 134.297 162.668 133.828H165.234C165.25 134.156 165.312 134.461 165.422 134.742C165.539 135.023 165.699 135.27 165.902 135.48C166.105 135.691 166.348 135.855 166.629 135.973C166.918 136.09 167.238 136.148 167.59 136.148C167.941 136.148 168.277 136.09 168.598 135.973C168.926 135.848 169.215 135.676 169.465 135.457C169.715 135.23 169.914 134.961 170.062 134.648C170.211 134.328 170.285 133.973 170.285 133.582C170.285 133.426 170.25 133.203 170.18 132.914C170.109 132.617 169.977 132.324 169.781 132.035C169.594 131.738 169.332 131.484 168.996 131.273C168.668 131.055 168.246 130.945 167.73 130.945H166.418V129.316C167.262 129.316 167.922 129.238 168.398 129.082C168.875 128.918 169.234 128.711 169.477 128.461C169.719 128.211 169.867 127.938 169.922 127.641C169.984 127.336 170.016 127.047 170.016 126.773C170.016 126.492 169.98 126.215 169.91 125.941C169.84 125.668 169.723 125.422 169.559 125.203C169.402 124.984 169.191 124.809 168.926 124.676C168.66 124.535 168.328 124.465 167.93 124.465C167.148 124.465 166.562 124.645 166.172 125.004C165.789 125.355 165.574 125.895 165.527 126.621H162.961C162.992 125.98 163.137 125.422 163.395 124.945C163.66 124.461 164.008 124.059 164.438 123.738C164.875 123.41 165.379 123.168 165.949 123.012C166.527 122.848 167.148 122.766 167.812 122.766C168.469 122.766 169.086 122.852 169.664 123.023C170.25 123.188 170.758 123.438 171.188 123.773C171.617 124.109 171.957 124.527 172.207 125.027C172.457 125.527 172.582 126.109 172.582 126.773C172.582 127.312 172.5 127.766 172.336 128.133C172.18 128.492 171.973 128.793 171.715 129.035C171.465 129.277 171.18 129.477 170.859 129.633C170.539 129.781 170.219 129.914 169.898 130.031C170.211 130.117 170.539 130.25 170.883 130.43C171.234 130.602 171.555 130.832 171.844 131.121C172.141 131.402 172.383 131.746 172.57 132.152C172.758 132.551 172.852 133.02 172.852 133.559Z" fill="black"/>
<path d="M593.203 138V126.141C593 126.328 592.75 126.516 592.453 126.703C592.164 126.883 591.859 127.055 591.539 127.219C591.219 127.375 590.902 127.52 590.59 127.652C590.277 127.777 590.004 127.875 589.77 127.945V125.637C590.035 125.527 590.34 125.363 590.684 125.145C591.035 124.926 591.375 124.695 591.703 124.453C592.031 124.203 592.328 123.965 592.594 123.738C592.859 123.512 593.039 123.336 593.133 123.211H595.652V138H593.203ZM606.164 138V126.141C605.961 126.328 605.711 126.516 605.414 126.703C605.125 126.883 604.82 127.055 604.5 127.219C604.18 127.375 603.863 127.52 603.551 127.652C603.238 127.777 602.965 127.875 602.73 127.945V125.637C602.996 125.527 603.301 125.363 603.645 125.145C603.996 124.926 604.336 124.695 604.664 124.453C604.992 124.203 605.289 123.965 605.555 123.738C605.82 123.512 606 123.336 606.094 123.211H608.613V138H606.164Z" fill="black"/>
<path d="M383.684 138H380.473L386.496 125.473H378.82V123.188H388.582V125.473L383.684 138Z" fill="black"/>
<path d="M118.852 126.891C118.852 127.727 118.664 128.512 118.289 129.246C117.922 129.973 117.395 130.688 116.707 131.391C116.027 132.086 115.207 132.785 114.246 133.488C113.285 134.191 112.219 134.934 111.047 135.715H118.559V138H108.527V135.891C110.035 134.703 111.285 133.66 112.277 132.762C113.277 131.863 114.074 131.066 114.668 130.371C115.262 129.668 115.68 129.043 115.922 128.496C116.164 127.941 116.285 127.414 116.285 126.914C116.285 126.68 116.25 126.43 116.18 126.164C116.117 125.891 116 125.641 115.828 125.414C115.656 125.18 115.422 124.988 115.125 124.84C114.828 124.684 114.453 124.605 114 124.605C113.539 124.605 113.145 124.691 112.816 124.863C112.496 125.035 112.23 125.254 112.02 125.52C111.816 125.777 111.66 126.066 111.551 126.387C111.449 126.707 111.387 127.02 111.363 127.324H108.797C108.891 125.801 109.383 124.66 110.273 123.902C111.164 123.145 112.43 122.766 114.07 122.766C114.836 122.766 115.516 122.863 116.109 123.059C116.703 123.254 117.203 123.531 117.609 123.891C118.016 124.25 118.324 124.684 118.535 125.191C118.746 125.699 118.852 126.266 118.852 126.891Z" fill="black"/>
<path d="M539.203 138V126.141C539 126.328 538.75 126.516 538.453 126.703C538.164 126.883 537.859 127.055 537.539 127.219C537.219 127.375 536.902 127.52 536.59 127.652C536.277 127.777 536.004 127.875 535.77 127.945V125.637C536.035 125.527 536.34 125.363 536.684 125.145C537.035 124.926 537.375 124.695 537.703 124.453C538.031 124.203 538.328 123.965 538.594 123.738C538.859 123.512 539.039 123.336 539.133 123.211H541.652V138H539.203ZM557.52 130.395C557.52 131.449 557.426 132.441 557.238 133.371C557.059 134.293 556.758 135.102 556.336 135.797C555.922 136.484 555.379 137.027 554.707 137.426C554.035 137.824 553.211 138.023 552.234 138.023C551.273 138.023 550.461 137.824 549.797 137.426C549.133 137.027 548.59 136.484 548.168 135.797C547.754 135.102 547.453 134.293 547.266 133.371C547.078 132.441 546.984 131.449 546.984 130.395C546.984 129.34 547.078 128.348 547.266 127.418C547.461 126.488 547.766 125.68 548.18 124.992C548.602 124.305 549.145 123.762 549.809 123.363C550.473 122.965 551.281 122.766 552.234 122.766C553.203 122.766 554.023 122.965 554.695 123.363C555.367 123.762 555.91 124.305 556.324 124.992C556.746 125.68 557.051 126.488 557.238 127.418C557.426 128.348 557.52 129.34 557.52 130.395ZM554.906 130.395C554.906 129.598 554.871 128.848 554.801 128.145C554.738 127.441 554.609 126.832 554.414 126.316C554.227 125.793 553.957 125.383 553.605 125.086C553.254 124.781 552.797 124.629 552.234 124.629C551.68 124.629 551.23 124.781 550.887 125.086C550.543 125.383 550.273 125.793 550.078 126.316C549.883 126.832 549.75 127.441 549.68 128.145C549.609 128.848 549.574 129.598 549.574 130.395C549.574 131.191 549.605 131.941 549.668 132.645C549.738 133.348 549.871 133.961 550.066 134.484C550.262 135 550.531 135.41 550.875 135.715C551.227 136.02 551.68 136.172 552.234 136.172C552.789 136.172 553.238 136.02 553.582 135.715C553.934 135.41 554.207 135 554.402 134.484C554.598 133.961 554.73 133.348 554.801 132.645C554.871 131.941 554.906 131.191 554.906 130.395Z" fill="black"/>
<path d="M335.156 132.844C335.156 133.734 335.004 134.504 334.699 135.152C334.395 135.801 333.992 136.336 333.492 136.758C332.992 137.18 332.414 137.492 331.758 137.695C331.109 137.898 330.441 138 329.754 138C329.066 138 328.406 137.895 327.773 137.684C327.141 137.465 326.582 137.082 326.098 136.535C325.613 135.988 325.227 135.246 324.938 134.309C324.648 133.363 324.504 132.16 324.504 130.699C324.504 129.246 324.645 128.016 324.926 127.008C325.207 125.992 325.594 125.172 326.086 124.547C326.586 123.922 327.18 123.469 327.867 123.188C328.562 122.906 329.32 122.766 330.141 122.766C330.805 122.766 331.41 122.859 331.957 123.047C332.504 123.227 332.973 123.477 333.363 123.797C333.754 124.117 334.055 124.492 334.266 124.922C334.477 125.352 334.582 125.816 334.582 126.316H332.039C332.039 126.098 332.008 125.871 331.945 125.637C331.891 125.395 331.789 125.18 331.641 124.992C331.492 124.797 331.297 124.637 331.055 124.512C330.812 124.387 330.508 124.324 330.141 124.324C329.719 124.324 329.34 124.391 329.004 124.523C328.668 124.656 328.375 124.91 328.125 125.285C327.875 125.66 327.66 126.184 327.48 126.855C327.309 127.527 327.164 128.402 327.047 129.48C327.203 129.293 327.391 129.113 327.609 128.941C327.828 128.77 328.082 128.621 328.371 128.496C328.66 128.363 328.984 128.258 329.344 128.18C329.703 128.102 330.098 128.062 330.527 128.062C330.855 128.062 331.199 128.098 331.559 128.168C331.918 128.238 332.27 128.352 332.613 128.508C332.957 128.664 333.281 128.867 333.586 129.117C333.898 129.359 334.168 129.66 334.395 130.02C334.629 130.371 334.812 130.781 334.945 131.25C335.086 131.719 335.156 132.25 335.156 132.844ZM332.613 132.961C332.613 132.5 332.539 132.066 332.391 131.66C332.25 131.254 332.055 130.902 331.805 130.605C331.562 130.301 331.273 130.062 330.938 129.891C330.602 129.711 330.242 129.621 329.859 129.621C329.484 129.621 329.129 129.711 328.793 129.891C328.457 130.062 328.16 130.301 327.902 130.605C327.652 130.902 327.453 131.254 327.305 131.66C327.164 132.066 327.094 132.5 327.094 132.961C327.094 133.422 327.164 133.859 327.305 134.273C327.453 134.68 327.652 135.035 327.902 135.34C328.16 135.645 328.457 135.887 328.793 136.066C329.129 136.238 329.484 136.324 329.859 136.324C330.242 136.324 330.602 136.238 330.938 136.066C331.273 135.887 331.562 135.645 331.805 135.34C332.055 135.035 332.25 134.68 332.391 134.273C332.539 133.859 332.613 133.422 332.613 132.961Z" fill="black"/>
<path d="M225.867 134.836V138H223.441V134.836H216.387V131.977L222.504 123.211H225.867V132.691H227.449V134.836H225.867ZM223.441 124.992L218.203 132.691H223.441V124.992Z" fill="black"/>
<path d="M442.875 133.781C442.875 134.383 442.746 134.941 442.488 135.457C442.238 135.973 441.883 136.418 441.422 136.793C440.969 137.168 440.426 137.465 439.793 137.684C439.168 137.895 438.48 138 437.73 138C436.926 138 436.199 137.895 435.551 137.684C434.91 137.465 434.363 137.168 433.91 136.793C433.457 136.41 433.109 135.965 432.867 135.457C432.625 134.941 432.504 134.383 432.504 133.781C432.504 133.359 432.57 132.953 432.703 132.562C432.836 132.164 433.039 131.801 433.312 131.473C433.594 131.137 433.945 130.844 434.367 130.594C434.789 130.344 435.289 130.148 435.867 130.008C435.336 129.891 434.875 129.723 434.484 129.504C434.094 129.277 433.77 129.016 433.512 128.719C433.262 128.414 433.074 128.078 432.949 127.711C432.824 127.344 432.762 126.949 432.762 126.527C432.762 126.004 432.875 125.516 433.102 125.062C433.336 124.602 433.664 124.203 434.086 123.867C434.516 123.523 435.031 123.254 435.633 123.059C436.242 122.863 436.926 122.766 437.684 122.766C438.488 122.766 439.195 122.863 439.805 123.059C440.422 123.254 440.938 123.523 441.352 123.867C441.766 124.203 442.078 124.602 442.289 125.062C442.5 125.516 442.605 126.004 442.605 126.527C442.605 126.895 442.559 127.258 442.465 127.617C442.379 127.977 442.223 128.312 441.996 128.625C441.77 128.93 441.465 129.203 441.082 129.445C440.699 129.68 440.215 129.859 439.629 129.984C440.191 130.125 440.676 130.32 441.082 130.57C441.488 130.82 441.824 131.113 442.09 131.449C442.355 131.785 442.551 132.152 442.676 132.551C442.809 132.941 442.875 133.352 442.875 133.781ZM440.203 126.738C440.203 126.332 440.137 125.98 440.004 125.684C439.871 125.379 439.691 125.129 439.465 124.934C439.238 124.738 438.973 124.594 438.668 124.5C438.371 124.398 438.051 124.348 437.707 124.348C437.363 124.348 437.043 124.402 436.746 124.512C436.449 124.613 436.188 124.77 435.961 124.98C435.734 125.184 435.555 125.434 435.422 125.73C435.297 126.027 435.234 126.363 435.234 126.738C435.234 127.105 435.297 127.438 435.422 127.734C435.555 128.023 435.734 128.273 435.961 128.484C436.188 128.688 436.449 128.844 436.746 128.953C437.043 129.062 437.363 129.117 437.707 129.117C438.051 129.117 438.371 129.062 438.668 128.953C438.973 128.844 439.238 128.688 439.465 128.484C439.691 128.273 439.871 128.023 440.004 127.734C440.137 127.438 440.203 127.105 440.203 126.738ZM440.473 133.582C440.473 133.152 440.402 132.773 440.262 132.445C440.121 132.117 439.926 131.844 439.676 131.625C439.434 131.406 439.145 131.242 438.809 131.133C438.473 131.023 438.113 130.969 437.73 130.969C437.332 130.969 436.965 131.027 436.629 131.145C436.293 131.254 436 131.422 435.75 131.648C435.5 131.867 435.305 132.141 435.164 132.469C435.023 132.797 434.953 133.176 434.953 133.605C434.953 134.066 435.031 134.469 435.188 134.812C435.344 135.156 435.551 135.441 435.809 135.668C436.066 135.887 436.355 136.051 436.676 136.16C437.004 136.27 437.34 136.324 437.684 136.324C438.035 136.324 438.375 136.27 438.703 136.16C439.039 136.043 439.336 135.871 439.594 135.645C439.859 135.418 440.07 135.133 440.227 134.789C440.391 134.445 440.473 134.043 440.473 133.582Z" fill="black"/>
<rect x="251" y="101" width="158" height="58" rx="15" stroke="#872659" stroke-width="2"/>
<rect x="251" y="201" width="158" height="58" rx="15" stroke="#872659" stroke-width="2"/>
<path d="M291.896 220.5L291.336 216.18L291.236 213.42H294.216L294.116 216.18L293.556 220.5H291.896ZM300.64 216.6H304.66V214.84H299.5V212.72H307.08V218.74H300.64V216.6ZM300.88 220.28H305.84V222.3H300.28L300.88 220.28ZM305.04 220.28H307.42C307.42 220.28 307.4 220.94 307.38 221.24C307.1 226.9 306.82 229.08 306.24 229.84C305.82 230.38 305.36 230.58 304.76 230.66C304.22 230.76 303.38 230.76 302.44 230.72C302.42 230.1 302.18 229.2 301.84 228.62C302.56 228.68 303.18 228.7 303.52 228.7C303.8 228.7 303.98 228.64 304.18 228.42C304.56 227.94 304.84 225.98 305.04 220.7V220.28ZM300.02 216.6H302.4C302.14 218.7 301.74 221.26 301.38 222.92L299.04 222.56C299.4 220.96 299.8 218.54 300.02 216.6ZM299.88 223.54L301.38 222.4C302.2 222.96 303.06 223.76 303.46 224.38L301.88 225.7C301.5 225.08 300.66 224.16 299.88 223.54ZM308.76 223.52L310.3 222.34C311.12 222.92 312 223.74 312.42 224.34L310.8 225.7C310.42 225.06 309.56 224.14 308.76 223.52ZM298.68 226.84C300.04 226.48 302.02 225.86 303.98 225.26L304.32 227.1C302.68 227.74 300.9 228.38 299.46 228.9L298.68 226.84ZM307.64 226.8C309.02 226.44 311.1 225.78 313.12 225.12L313.48 226.9C311.74 227.6 309.92 228.3 308.44 228.86L307.64 226.8ZM309.42 216.6H313.92V214.84H308.52V212.72H316.34V218.74H309.42V216.6ZM309.62 220.28H315.18V222.3H309.02L309.62 220.28ZM314.26 220.28H316.64C316.64 220.28 316.62 220.94 316.6 221.24C316.42 226.92 316.16 229.08 315.56 229.84C315.08 230.42 314.56 230.62 313.86 230.7C313.22 230.8 312.16 230.8 311.04 230.74C311 230.12 310.74 229.24 310.38 228.66C311.38 228.76 312.3 228.76 312.72 228.76C313.06 228.76 313.28 228.7 313.46 228.5C313.9 228.02 314.1 225.96 314.26 220.68V220.28ZM308.86 216.6H311.28C311 218.7 310.6 221.22 310.24 222.86L307.88 222.48C308.24 220.92 308.64 218.52 308.86 216.6ZM332.28 222.4H337.04V224.14H332.28V222.4ZM329.24 215.3C331.46 215.24 334.8 215.12 337.96 215L337.92 216.9C334.9 217.08 331.7 217.24 329.38 217.34L329.24 215.3ZM332.56 220.68L334.72 221.18C333.76 223.54 332.04 225.52 330.1 226.76C329.76 226.34 328.94 225.58 328.48 225.22C330.3 224.22 331.82 222.6 332.56 220.68ZM336.36 222.4H336.78L337.14 222.32L338.54 222.86C337.2 227.18 334 229.56 329.98 230.76C329.74 230.22 329.24 229.38 328.82 228.94C332.38 228.08 335.34 225.96 336.36 222.72V222.4ZM332.72 223.8C333.86 226.32 336.32 228.14 339.74 228.86C339.26 229.32 338.64 230.2 338.34 230.78C334.64 229.8 332.2 227.58 330.78 224.3L332.72 223.8ZM331.24 216.96H333.3C333.1 219.26 332.5 220.86 329.96 221.82C329.76 221.32 329.2 220.54 328.78 220.18C330.74 219.56 331.12 218.52 331.24 216.96ZM334.36 216.94H336.4V218.96C336.4 219.4 336.44 219.42 336.72 219.42C336.82 219.42 337.28 219.42 337.4 219.42C337.68 219.42 337.78 219.28 337.82 218.08C338.18 218.36 339.02 218.66 339.56 218.8C339.38 220.72 338.86 221.2 337.68 221.2C337.34 221.2 336.68 221.2 336.38 221.2C334.7 221.2 334.36 220.66 334.36 218.96V216.94ZM332.12 211.94L334.46 212.62C333.72 214.02 332.9 215.58 332.22 216.56L330.42 215.94C331.04 214.86 331.76 213.16 332.12 211.94ZM335.24 213.98L336.96 213.14C337.98 214.22 339.18 215.76 339.7 216.8L337.86 217.74C337.4 216.72 336.26 215.12 335.24 213.98ZM321.06 216.58H329.08V230.44H327.26V218.58H322.82V230.72H321.06V216.58ZM321.88 224.56H328.44V226.36H321.88V224.56ZM321.88 227.6H328.44V229.44H321.88V227.6ZM320.92 212.86H329.04V214.86H320.92V212.86ZM323.08 213.44H324.66V218.3H323.08V213.44ZM325.46 213.44H327.06V218.3H325.46V213.44ZM323.6 218.14H324.72V220.06C324.72 221.14 324.5 222.56 323.58 223.56C323.4 223.34 322.94 222.94 322.7 222.82C323.5 221.96 323.6 220.92 323.6 220.04V218.14ZM325.38 218.14H326.5V221.24C326.5 221.5 326.5 221.52 326.66 221.52C326.72 221.52 326.92 221.52 327 221.52C327.2 221.52 327.24 221.5 327.28 221.46C327.5 221.66 327.94 221.8 328.3 221.9C328.16 222.46 327.82 222.7 327.2 222.7C327.02 222.7 326.68 222.7 326.5 222.7C325.64 222.7 325.38 222.42 325.38 221.26V218.14ZM344.96 212.02H347.38V230.8H344.96V212.02ZM343.28 215.86L345 216.1C344.9 217.84 344.56 220.22 344.08 221.74L342.3 221.12C342.8 219.76 343.14 217.52 343.28 215.86ZM346.9 216.02L348.52 215.32C349.08 216.36 349.66 217.72 349.86 218.56L348.14 219.38C347.96 218.5 347.42 217.1 346.9 216.02ZM350.7 212.94L353.02 213.3C352.62 216.28 351.84 219.24 350.8 221.12C350.32 220.78 349.24 220.26 348.66 220.02C349.72 218.34 350.38 215.62 350.7 212.94ZM351.4 216.06H360.64V218.34H350.72L351.4 216.06ZM354.14 212.14H356.54V229.2H354.14V212.14ZM350.26 221.62H360.22V223.86H350.26V221.62ZM348.76 227.88H361.26V230.16H348.76V227.88ZM366.4 220.5L365.84 216.18L365.74 213.42H368.72L368.62 216.18L368.06 220.5H366.4Z" fill="#872659"/>
<path d="M289.422 239.37H291.057V251.175H289.422V239.37ZM286.572 242.46H294.342V243.765H286.572V242.46ZM286.992 248.505H294.057V249.81H286.992V248.505ZM287.367 246.465H293.682V247.77H287.367V246.465ZM283.797 240.465H285.882V241.905H283.797V240.465ZM284.562 244.59H286.212V245.895H284.562V244.59ZM285.477 240.465H285.687L285.942 240.405L287.067 240.69C286.452 242.4 285.492 244.695 284.697 246.51L283.227 246.165C284.037 244.365 285.012 241.92 285.477 240.645V240.465ZM285.777 244.59H286.062L286.347 244.56L287.292 244.71C286.992 248.94 286.032 251.745 284.007 253.32C283.797 252.93 283.347 252.3 283.017 251.985C284.652 250.83 285.552 248.16 285.777 244.845V244.59ZM284.652 246.825C285.462 250.77 287.382 251.55 290.217 251.565C290.907 251.565 293.607 251.565 294.462 251.52C294.222 251.91 293.982 252.675 293.892 253.14H290.127C286.542 253.14 284.382 252.105 283.302 247.215L284.652 246.825ZM287.547 240.48H293.592V245.76H287.547V244.455H292.077V241.785H287.547V240.48ZM282.597 239.31L284.202 239.79C283.422 242.28 282.132 244.98 280.707 246.705C280.587 246.285 280.167 245.235 279.912 244.77C281.022 243.42 282.012 241.38 282.597 239.31ZM281.577 243.645L283.122 242.1L283.152 242.13V253.335H281.577V243.645ZM303.387 242.46C302.862 241.92 301.827 240.915 301.242 240.465L302.622 239.505C303.147 239.925 304.272 240.885 304.797 241.44L303.387 242.46ZM299.307 240.855C299.427 241.14 299.727 241.755 299.892 242.04C300.507 243.195 301.182 244.68 301.722 245.94C302.427 247.575 303.597 250.77 304.092 252.465L302.022 252.99C301.557 251.1 300.777 248.565 300.012 246.765C299.412 245.37 298.857 244.005 298.242 242.925C298.017 242.565 297.657 241.995 297.357 241.62L299.307 240.855ZM296.067 245.25C296.652 245.115 297.297 244.875 297.552 244.77C300.282 243.705 303.357 241.95 305.772 241.95C308.082 241.95 309.492 243.36 309.492 245.1C309.492 247.2 308.052 248.52 305.757 248.52C304.932 248.52 304.002 248.31 303.432 248.1L303.492 246.225C304.167 246.51 304.917 246.72 305.562 246.72C306.687 246.72 307.512 246.105 307.512 245.025C307.512 244.275 306.852 243.645 305.727 243.645C303.297 243.645 298.797 246.33 296.937 247.17L296.067 245.25ZM318.162 240.165C318.072 240.555 317.982 241.035 317.892 241.41C317.757 242.085 317.562 243.015 317.412 243.78C316.917 245.895 315.702 250.17 314.142 252.705L312.177 251.925C313.962 249.525 315.087 245.565 315.507 243.675C315.792 242.325 315.957 241.05 315.942 239.925L318.162 240.165ZM323.337 241.56C324.252 242.865 325.512 245.715 325.977 247.155L324.072 248.04C323.682 246.36 322.617 243.66 321.537 242.325L323.337 241.56ZM312.087 243.24C312.627 243.27 313.137 243.255 313.692 243.24C314.892 243.21 317.727 242.88 318.852 242.88C320.427 242.88 321.552 243.585 321.552 245.76C321.552 247.53 321.342 249.96 320.712 251.25C320.202 252.3 319.377 252.63 318.252 252.63C317.667 252.63 316.962 252.54 316.437 252.42L316.122 250.44C316.707 250.605 317.562 250.755 317.952 250.755C318.462 250.755 318.837 250.605 319.077 250.11C319.497 249.27 319.692 247.44 319.692 245.97C319.692 244.77 319.167 244.59 318.237 244.59C317.337 244.59 314.757 244.92 313.932 245.025C313.497 245.085 312.717 245.19 312.267 245.265L312.087 243.24ZM328.227 242.175C328.872 242.25 329.682 242.28 330.222 242.28C332.082 242.28 334.107 241.965 335.562 241.5L335.607 243.24C334.317 243.6 332.157 243.99 330.237 243.975C329.637 243.975 329.007 243.96 328.362 243.93L328.227 242.175ZM334.062 239.925C333.867 240.72 333.507 242.19 333.102 243.465C332.412 245.625 331.062 248.415 329.787 250.185L327.972 249.255C329.322 247.605 330.672 244.98 331.257 243.36C331.617 242.28 331.947 240.885 331.992 239.73L334.062 239.925ZM337.587 244.605C337.542 245.235 337.557 245.865 337.572 246.525C337.602 247.41 337.737 249.645 337.737 250.485C337.737 251.88 336.987 252.975 334.842 252.975C332.982 252.975 331.512 252.135 331.512 250.485C331.512 249.03 332.742 247.89 334.827 247.89C337.452 247.89 339.522 249.21 340.767 250.335L339.777 251.955C338.697 250.95 336.987 249.405 334.722 249.405C333.852 249.405 333.282 249.78 333.282 250.305C333.282 250.86 333.762 251.25 334.587 251.25C335.607 251.25 335.937 250.68 335.937 249.84C335.937 248.94 335.772 246.18 335.697 244.605H337.587ZM340.167 245.4C339.297 244.695 337.587 243.72 336.552 243.255L337.527 241.785C338.607 242.25 340.452 243.255 341.232 243.81L340.167 245.4ZM350.832 239.79H354.402V241.515H350.832V239.79ZM350.097 239.79H351.897V245.94C351.897 248.28 351.687 251.52 350.262 253.455C349.947 253.14 349.167 252.6 348.747 252.405C350.007 250.65 350.097 248.025 350.097 245.94V239.79ZM353.517 239.79H355.302V250.695C355.302 251.055 355.317 251.28 355.362 251.34C355.392 251.4 355.437 251.43 355.497 251.43C355.557 251.43 355.647 251.43 355.707 251.43C355.767 251.43 355.842 251.4 355.887 251.34C355.932 251.28 355.947 251.145 355.977 250.815C356.007 250.5 356.022 249.765 356.022 248.865C356.382 249.195 356.952 249.495 357.417 249.66C357.402 250.455 357.327 251.46 357.252 251.91C357.162 252.345 356.997 252.645 356.742 252.84C356.502 253.02 356.142 253.095 355.812 253.095C355.542 253.095 355.182 253.095 354.957 253.095C354.612 253.095 354.177 252.96 353.907 252.69C353.622 252.39 353.517 252.03 353.517 250.725V239.79ZM344.817 239.79H348.147V241.455H344.817V239.79ZM344.817 243.195H348.207V244.86H344.817V243.195ZM344.802 246.675H348.147V248.37H344.802V246.675ZM344.112 239.79H345.762V245.25C345.762 247.665 345.597 251.16 344.592 253.395C344.262 253.125 343.527 252.705 343.092 252.555C344.037 250.485 344.112 247.47 344.112 245.25V239.79ZM347.277 239.79H348.972V251.265C348.972 252.075 348.837 252.57 348.357 252.855C347.877 253.155 347.217 253.2 346.257 253.2C346.212 252.72 345.987 251.94 345.762 251.49C346.302 251.52 346.857 251.505 347.022 251.505C347.217 251.505 347.277 251.43 347.277 251.25V239.79ZM359.682 255.225V243.615H361.467L361.647 244.485H361.692C362.382 243.87 363.252 243.405 364.152 243.405C366.222 243.405 367.452 245.085 367.452 247.68C367.452 250.56 365.727 252.21 363.882 252.21C363.162 252.21 362.442 251.895 361.812 251.31L361.887 252.675V255.225H359.682ZM363.402 250.395C364.407 250.395 365.187 249.525 365.187 247.71C365.187 246.09 364.692 245.205 363.522 245.205C362.967 245.205 362.457 245.49 361.887 246.075V249.78C362.412 250.245 362.952 250.395 363.402 250.395ZM370.265 252V240.9H372.485V245.28H376.685V240.9H378.89V252H376.685V247.2H372.485V252H370.265Z" fill="#202020"/>
<path d="M57.3545 41.422V42.416H60.7425V41.422H57.3545ZM55.2125 36.634L55.2965 37.782C56.9205 37.712 59.1745 37.586 61.3305 37.46L61.3445 36.396C59.1045 36.494 56.7665 36.592 55.2125 36.634ZM57.7325 40.148C57.1725 41.52 56.0805 42.71 54.8065 43.452C55.0725 43.648 55.5345 44.082 55.7165 44.306C57.0465 43.438 58.2505 42.052 58.9225 40.428L57.7325 40.148ZM60.3925 41.422V41.618C59.6225 43.984 57.4525 45.524 55.0025 46.14C55.2405 46.392 55.5205 46.854 55.6605 47.162C58.3625 46.336 60.6585 44.67 61.6245 41.688L60.8405 41.38L60.6305 41.422H60.3925ZM57.5645 42.276L56.4865 42.556C57.4525 44.838 59.2025 46.476 61.7225 47.176C61.8905 46.854 62.2405 46.364 62.5065 46.112C60.1405 45.566 58.3765 44.152 57.5645 42.276ZM56.8225 37.516C56.7245 38.734 56.3885 39.532 54.9885 39.994C55.2265 40.19 55.5485 40.624 55.6605 40.904C57.3685 40.246 57.8305 39.154 57.9845 37.516H56.8225ZM58.9505 37.488V39.126C58.9505 40.134 59.1745 40.442 60.1965 40.442C60.3785 40.442 61.0085 40.442 61.2325 40.442C61.9745 40.442 62.2685 40.12 62.3665 38.832C62.0585 38.762 61.5965 38.594 61.3865 38.426C61.3585 39.336 61.2885 39.434 61.0645 39.434C60.9385 39.434 60.4625 39.434 60.3645 39.434C60.1265 39.434 60.0845 39.406 60.0845 39.126V37.488H58.9505ZM57.4105 34.142C57.1305 35.01 56.5845 36.242 56.1225 36.998L57.1165 37.362C57.6065 36.648 58.1945 35.514 58.6985 34.534L57.4105 34.142ZM59.5105 35.556C60.2525 36.326 61.0925 37.404 61.4425 38.104L62.4505 37.558C62.0725 36.844 61.2045 35.808 60.4625 35.08L59.5105 35.556ZM49.5985 37.418V47.134H50.5925V38.538H54.0505V46.938H55.0865V37.418H49.5985ZM50.0465 42.948V43.97H54.6945V42.948H50.0465ZM50.0465 45.146V46.182H54.6945V45.146H50.0465ZM49.4725 34.8V35.92H55.1005V34.8H49.4725ZM51.0545 35.136V38.342H51.9645V35.136H51.0545ZM52.6785 35.136V38.342H53.5885V35.136H52.6785ZM51.3205 38.258V39.574C51.3205 40.246 51.2085 41.058 50.5085 41.716C50.6485 41.786 50.9285 42.024 51.0405 42.164C51.8105 41.422 51.9925 40.386 51.9925 39.574V38.258H51.3205ZM52.6365 38.258V40.596C52.6365 41.338 52.8045 41.492 53.3785 41.492C53.5045 41.492 53.8685 41.492 53.9805 41.492C54.3865 41.492 54.6105 41.338 54.6805 41.002C54.4705 40.946 54.2045 40.862 54.0645 40.75C54.0365 40.778 54.0085 40.778 53.8545 40.778C53.7705 40.778 53.5185 40.778 53.4625 40.778C53.3225 40.778 53.3085 40.764 53.3085 40.596V38.258H52.6365ZM66.4265 34.184V47.176H67.7565V34.184H66.4265ZM65.1945 36.858C65.0965 38.006 64.8445 39.56 64.4805 40.498L65.4885 40.848C65.8385 39.812 66.0905 38.174 66.1605 36.998L65.1945 36.858ZM67.6725 36.858C68.0505 37.628 68.4565 38.636 68.5965 39.252L69.5625 38.776C69.4085 38.188 68.9885 37.208 68.5825 36.466L67.6725 36.858ZM70.4445 34.828C70.1645 36.718 69.6605 38.622 68.8625 39.826C69.1845 39.966 69.7865 40.26 70.0525 40.442C70.8085 39.126 71.3965 37.096 71.7325 35.038L70.4445 34.828ZM70.6685 37.096L70.2765 38.356H77.1645V37.096H70.6685ZM72.7825 34.254V46.168H74.1125V34.254H72.7825ZM69.9125 41.002V42.248H76.8565V41.002H69.9125ZM68.8625 45.44V46.714H77.5425V45.44H68.8625ZM79.7405 48.52H80.8605L84.7385 34.814H83.6325L79.7405 48.52ZM88.2335 34.66V35.878H91.1315V34.66H88.2335ZM88.2895 37.922V39.126H91.0475V37.922H88.2895ZM88.2755 41.226V42.472H91.0195V41.226H88.2755ZM87.7015 34.66V39.742C87.7015 41.814 87.6455 44.628 86.7635 46.602C87.0575 46.714 87.5755 46.994 87.8135 47.19C88.7515 45.118 88.8775 41.94 88.8775 39.742V34.66H87.7015ZM90.5575 34.66V45.65C90.5575 45.832 90.5015 45.888 90.3195 45.902C90.1515 45.902 89.6475 45.916 89.1015 45.888C89.2695 46.224 89.4235 46.812 89.4515 47.134C90.3475 47.134 90.8795 47.106 91.2715 46.896C91.6495 46.686 91.7615 46.294 91.7615 45.664V34.66H90.5575ZM92.8675 40.848V47.176H94.1135V41.954H97.9355V47.12H99.2235V40.848H92.8675ZM98.2575 34.856C97.0675 35.486 95.0235 36.102 93.2315 36.48C93.3855 36.76 93.5675 37.222 93.6375 37.502C95.5135 37.124 97.7115 36.578 99.2095 35.864L98.2575 34.856ZM93.3855 45.51V46.616H98.5935V45.51H93.3855ZM93.3855 43.172V44.222H98.5935V43.172H93.3855ZM92.7695 34.296V38.104C92.7695 39.462 93.2175 39.826 94.9255 39.826C95.2895 39.826 97.5015 39.826 97.8935 39.826C99.3075 39.826 99.6995 39.364 99.8815 37.46C99.5175 37.39 98.9855 37.194 98.7055 36.984C98.6215 38.426 98.5095 38.65 97.7955 38.65C97.2775 38.65 95.4015 38.65 95.0235 38.65C94.1835 38.65 94.0295 38.566 94.0295 38.09V34.296H92.7695ZM104.082 34.184V47.176H105.412V34.184H104.082ZM102.85 36.858C102.752 38.006 102.5 39.56 102.136 40.498L103.144 40.848C103.494 39.812 103.746 38.174 103.816 36.998L102.85 36.858ZM105.328 36.858C105.706 37.628 106.112 38.636 106.252 39.252L107.218 38.776C107.064 38.188 106.644 37.208 106.238 36.466L105.328 36.858ZM108.1 34.828C107.82 36.718 107.316 38.622 106.518 39.826C106.84 39.966 107.442 40.26 107.708 40.442C108.464 39.126 109.052 37.096 109.388 35.038L108.1 34.828ZM108.324 37.096L107.932 38.356H114.82V37.096H108.324ZM110.438 34.254V46.168H111.768V34.254H110.438ZM107.568 41.002V42.248H114.512V41.002H107.568ZM106.518 45.44V46.714H115.198V45.44H106.518ZM124.788 34.688V35.962H128.176V34.688H124.788ZM124.242 34.688V40.526C124.242 42.458 124.144 44.866 122.926 46.49C123.22 46.63 123.794 47.036 124.032 47.26C125.362 45.51 125.558 42.64 125.558 40.526V34.688H124.242ZM127.532 34.688V44.894C127.532 46.084 127.616 46.378 127.854 46.616C128.092 46.84 128.442 46.938 128.736 46.938C128.918 46.938 129.254 46.938 129.478 46.938C129.772 46.938 130.066 46.868 130.262 46.728C130.472 46.56 130.612 46.308 130.696 45.916C130.752 45.538 130.808 44.6 130.822 43.844C130.472 43.732 130.052 43.508 129.772 43.256C129.772 44.124 129.758 44.824 129.73 45.118C129.716 45.426 129.688 45.552 129.618 45.622C129.576 45.678 129.478 45.706 129.394 45.706C129.296 45.706 129.17 45.706 129.1 45.706C129.016 45.706 128.96 45.678 128.918 45.622C128.862 45.566 128.848 45.328 128.848 44.936V34.688H127.532ZM119.16 34.688V35.92H122.282V34.688H119.16ZM119.16 37.922V39.154H122.324V37.922H119.16ZM119.132 41.24V42.486H122.296V41.24H119.132ZM118.628 34.688V39.756C118.628 41.828 118.558 44.642 117.634 46.588C117.956 46.7 118.488 47.008 118.74 47.218C119.706 45.132 119.846 41.968 119.846 39.756V34.688H118.628ZM121.652 34.688V45.552C121.652 45.734 121.582 45.804 121.4 45.804C121.246 45.804 120.686 45.818 120.112 45.79C120.28 46.126 120.448 46.7 120.49 47.05C121.4 47.05 121.974 47.022 122.38 46.798C122.772 46.588 122.898 46.21 122.898 45.566V34.688H121.652Z" fill="black"/>
<path d="M493.653 39.294V40.484H497.475V39.294H493.653ZM494.465 34.198C494.073 35.92 493.345 37.6 492.365 38.664C492.659 38.86 493.191 39.308 493.415 39.546C494.451 38.328 495.291 36.438 495.795 34.45L494.465 34.198ZM494.507 36.27L493.891 37.488H499.393V36.27H494.507ZM497.251 39.294C493.415 43.97 493.247 44.796 493.247 45.524C493.247 46.448 493.891 47.022 495.333 47.022H497.769C498.945 47.022 499.407 46.588 499.547 44.208C499.183 44.138 498.749 43.97 498.399 43.774C498.357 45.51 498.245 45.734 497.797 45.734H495.333C494.885 45.734 494.605 45.622 494.605 45.328C494.605 44.852 494.857 44.18 498.497 39.882C498.553 39.798 498.595 39.686 498.637 39.602L497.769 39.266L497.475 39.294H497.251ZM489.131 34.184V38.23H490.419V34.184H489.131ZM489.131 41.87V47.176H490.419V41.87H489.131ZM488.235 40.624H491.371V41.59H488.235V40.624ZM488.235 38.762H491.371V39.7H488.235V38.762ZM487.045 37.782V42.57H492.603V37.782H487.045ZM486.653 35.584V36.76H492.855V35.584H486.653ZM486.485 43.592V44.782H492.967V43.592H486.485ZM503.621 34.352V39.168C503.621 41.66 503.439 44.278 501.843 46.308C502.109 46.504 502.515 46.924 502.697 47.19C504.545 44.908 504.769 42.01 504.769 39.182V34.352H503.621ZM502.375 37.138C502.319 38.258 502.137 39.7 501.773 40.568L502.599 40.974C502.977 39.994 503.187 38.426 503.201 37.236L502.375 37.138ZM505.595 36.564C505.455 37.474 505.147 38.804 504.881 39.616L505.581 39.882C505.889 39.126 506.239 37.88 506.575 36.9L505.595 36.564ZM504.419 42.01L503.663 42.612C504.083 43.228 505.021 44.782 505.385 45.552L506.225 44.642C505.959 44.222 504.755 42.402 504.419 42.01ZM506.211 42.458V43.564H514.751V42.458H506.211ZM509.837 41.24V47.176H511.097V41.24H509.837ZM509.571 43.004C508.703 44.18 507.079 45.37 505.623 45.944C505.889 46.182 506.281 46.644 506.477 46.938C507.947 46.224 509.613 44.824 510.551 43.41L509.571 43.004ZM511.349 43.018L510.425 43.382C511.293 44.754 512.805 46.182 514.191 46.896C514.387 46.588 514.765 46.14 515.059 45.902C513.673 45.328 512.147 44.166 511.349 43.018ZM508.899 35.528H512.021V36.606H508.899V35.528ZM507.751 34.548V37.586H513.253V34.548H507.751ZM507.625 39.126H508.969V40.4H507.625V39.126ZM506.547 38.202V41.324H510.103V38.202H506.547ZM511.923 39.126H513.337V40.4H511.923V39.126ZM510.845 38.202V41.324H514.457V38.202H510.845ZM524.313 34.688V35.962H527.701V34.688H524.313ZM523.767 34.688V40.526C523.767 42.458 523.669 44.866 522.451 46.49C522.745 46.63 523.319 47.036 523.557 47.26C524.887 45.51 525.083 42.64 525.083 40.526V34.688H523.767ZM527.057 34.688V44.894C527.057 46.084 527.141 46.378 527.379 46.616C527.617 46.84 527.967 46.938 528.261 46.938C528.443 46.938 528.779 46.938 529.003 46.938C529.297 46.938 529.591 46.868 529.787 46.728C529.997 46.56 530.137 46.308 530.221 45.916C530.277 45.538 530.333 44.6 530.347 43.844C529.997 43.732 529.577 43.508 529.297 43.256C529.297 44.124 529.283 44.824 529.255 45.118C529.241 45.426 529.213 45.552 529.143 45.622C529.101 45.678 529.003 45.706 528.919 45.706C528.821 45.706 528.695 45.706 528.625 45.706C528.541 45.706 528.485 45.678 528.443 45.622C528.387 45.566 528.373 45.328 528.373 44.936V34.688H527.057ZM518.685 34.688V35.92H521.807V34.688H518.685ZM518.685 37.922V39.154H521.849V37.922H518.685ZM518.657 41.24V42.486H521.821V41.24H518.657ZM518.153 34.688V39.756C518.153 41.828 518.083 44.642 517.159 46.588C517.481 46.7 518.013 47.008 518.265 47.218C519.231 45.132 519.371 41.968 519.371 39.756V34.688H518.153ZM521.177 34.688V45.552C521.177 45.734 521.107 45.804 520.925 45.804C520.771 45.804 520.211 45.818 519.637 45.79C519.805 46.126 519.973 46.7 520.015 47.05C520.925 47.05 521.499 47.022 521.905 46.798C522.297 46.588 522.423 46.21 522.423 45.566V34.688H521.177ZM532.321 48.52H533.441L537.319 34.814H536.213L532.321 48.52ZM552.182 36.536L551.314 35.71C551.076 35.78 550.46 35.822 550.138 35.822C549.34 35.822 543.068 35.822 542.312 35.822C541.766 35.822 541.178 35.766 540.674 35.682V37.25C541.262 37.194 541.766 37.166 542.312 37.166C543.068 37.166 549.074 37.166 549.998 37.166C549.578 37.95 548.36 39.35 547.142 40.064L548.304 40.988C549.802 39.938 551.132 38.146 551.734 37.138C551.846 36.956 552.056 36.69 552.182 36.536ZM546.54 38.398H544.944C545 38.804 545.014 39.14 545.014 39.518C545.014 41.842 544.706 43.606 542.704 44.894C542.256 45.216 541.766 45.454 541.346 45.594L542.648 46.644C546.316 44.74 546.54 42.052 546.54 38.398ZM561.467 45.706L562.405 46.476C562.517 46.378 562.671 46.252 562.937 46.112C564.533 45.314 566.507 43.844 567.697 42.262L566.857 41.044C565.835 42.528 564.267 43.732 563.035 44.278C563.035 43.662 563.035 37.516 563.035 36.536C563.035 35.962 563.105 35.486 563.119 35.416H561.481C561.495 35.486 561.579 35.948 561.579 36.522C561.579 37.516 561.579 44.124 561.579 44.81C561.579 45.132 561.523 45.468 561.467 45.706ZM555.027 45.58L556.371 46.462C557.547 45.454 558.443 44.082 558.863 42.556C559.241 41.142 559.283 38.16 559.283 36.564C559.283 36.074 559.353 35.57 559.367 35.444H557.743C557.813 35.766 557.855 36.102 557.855 36.578C557.855 38.202 557.841 40.932 557.435 42.178C557.029 43.466 556.231 44.726 555.027 45.58ZM576.499 34.898H574.861C574.917 35.234 574.959 35.808 574.959 36.116C574.931 40.218 574.007 42.598 572.215 44.278C571.739 44.754 571.109 45.174 570.605 45.454L571.893 46.49C574.805 44.446 576.247 41.73 576.415 36.088C576.429 35.752 576.457 35.22 576.499 34.898ZM581.315 37.852L580.335 37.362C580.055 37.418 579.747 37.446 579.383 37.446H572.649C572.117 37.446 571.473 37.418 570.941 37.362V38.832C571.487 38.776 572.145 38.776 572.663 38.776H579.803C579.803 40.274 579.621 43.438 579.145 44.432C578.991 44.768 578.753 44.908 578.333 44.908C577.759 44.908 577.031 44.838 576.303 44.726L576.485 46.196C577.185 46.252 578.011 46.308 578.753 46.308C579.607 46.308 580.097 46 580.391 45.356C581.007 43.97 581.175 39.98 581.231 38.552C581.231 38.384 581.273 38.076 581.315 37.852ZM595.665 35.276H593.999C594.055 35.64 594.083 36.06 594.083 36.578C594.083 37.124 594.083 38.37 594.083 38.986C594.083 41.422 593.901 42.528 592.921 43.634C592.067 44.586 590.905 45.132 589.575 45.454L590.723 46.672C591.745 46.336 593.173 45.692 594.083 44.642C595.105 43.466 595.623 42.276 595.623 39.056C595.623 38.468 595.623 37.208 595.623 36.578C595.623 36.06 595.637 35.64 595.665 35.276ZM589.169 35.388H587.573C587.615 35.682 587.629 36.172 587.629 36.424C587.629 36.928 587.629 40.428 587.629 41.114C587.629 41.534 587.587 42.024 587.559 42.262H589.169C589.141 41.982 589.127 41.478 589.127 41.128C589.127 40.456 589.127 36.928 589.127 36.424C589.127 36.046 589.141 35.682 589.169 35.388ZM602.301 34.184V47.176H603.631V34.184H602.301ZM601.069 36.858C600.971 38.006 600.719 39.56 600.355 40.498L601.363 40.848C601.713 39.812 601.965 38.174 602.035 36.998L601.069 36.858ZM603.547 36.858C603.925 37.628 604.331 38.636 604.471 39.252L605.437 38.776C605.283 38.188 604.863 37.208 604.457 36.466L603.547 36.858ZM606.319 34.828C606.039 36.718 605.535 38.622 604.737 39.826C605.059 39.966 605.661 40.26 605.927 40.442C606.683 39.126 607.271 37.096 607.607 35.038L606.319 34.828ZM606.543 37.096L606.151 38.356H613.039V37.096H606.543ZM608.657 34.254V46.168H609.987V34.254H608.657ZM605.787 41.002V42.248H612.731V41.002H605.787ZM604.737 45.44V46.714H613.417V45.44H604.737Z" fill="black"/>
</svg>
