<svg width="630" height="182" viewBox="0 0 630 182" fill="none" xmlns="http://www.w3.org/2000/svg">
<circle cx="91" cy="91" r="89.5" fill="white" stroke="#872659" stroke-width="3"/>
<circle cx="206" cy="91" r="89.5" fill="white" stroke="#872659" stroke-width="3"/>
<circle cx="328" cy="91" r="89.5" fill="white" stroke="#872659" stroke-width="3"/>
<circle cx="539" cy="91" r="89.5" fill="white" stroke="#872659" stroke-width="3"/>
<path d="M404 91H464" stroke="#872659" stroke-width="4"/>
<path d="M48.5 101L46.6 95.85H39.7L37.8 101H35L41.775 83.075H44.575L51.325 101H48.5ZM44.05 88.475C44 88.2917 43.9083 88.0167 43.775 87.65C43.6583 87.2667 43.5417 86.8833 43.425 86.5C43.3083 86.1 43.2167 85.775 43.15 85.525C43.0667 85.8583 42.9667 86.225 42.85 86.625C42.75 87.0083 42.65 87.3667 42.55 87.7C42.45 88.0167 42.3667 88.275 42.3 88.475L40.5 93.5H45.85L44.05 88.475ZM56.0824 101H53.4324V82H56.0824V101ZM62.8939 87.525V101H60.2439V87.525H62.8939ZM61.5939 82.4C61.9939 82.4 62.3439 82.5167 62.6439 82.75C62.9439 82.9833 63.0939 83.375 63.0939 83.925C63.0939 84.4583 62.9439 84.85 62.6439 85.1C62.3439 85.3333 61.9939 85.45 61.5939 85.45C61.1606 85.45 60.7939 85.3333 60.4939 85.1C60.2106 84.85 60.0689 84.4583 60.0689 83.925C60.0689 83.375 60.2106 82.9833 60.4939 82.75C60.7939 82.5167 61.1606 82.4 61.5939 82.4ZM70.0805 101L64.9805 87.525H67.7805L70.5805 95.4C70.6971 95.7333 70.8138 96.1083 70.9305 96.525C71.0638 96.9417 71.1805 97.3417 71.2805 97.725C71.3805 98.1083 71.4471 98.4417 71.4805 98.725H71.5805C71.6305 98.4417 71.7055 98.1083 71.8055 97.725C71.9221 97.325 72.0471 96.925 72.1805 96.525C72.3138 96.1083 72.4305 95.7333 72.5305 95.4L75.3305 87.525H78.1305L73.0055 101H70.0805ZM85.5146 87.275C86.698 87.275 87.7146 87.525 88.5646 88.025C89.4146 88.5083 90.0646 89.2083 90.5146 90.125C90.9813 91.0417 91.2146 92.125 91.2146 93.375V94.825H82.1646C82.198 96.2083 82.5563 97.2667 83.2396 98C83.9396 98.7333 84.9146 99.1 86.1646 99.1C87.0313 99.1 87.798 99.025 88.4646 98.875C89.148 98.7083 89.848 98.4667 90.5646 98.15V100.35C89.898 100.65 89.2146 100.875 88.5146 101.025C87.8313 101.175 87.0146 101.25 86.0646 101.25C84.7646 101.25 83.6146 100.992 82.6146 100.475C81.6146 99.9583 80.8313 99.1917 80.2646 98.175C79.7146 97.1417 79.4396 95.875 79.4396 94.375C79.4396 92.8583 79.6896 91.575 80.1896 90.525C80.7063 89.475 81.4146 88.675 82.3146 88.125C83.2313 87.5583 84.298 87.275 85.5146 87.275ZM85.5146 89.325C84.5646 89.325 83.798 89.6333 83.2146 90.25C82.648 90.8667 82.3146 91.7417 82.2146 92.875H88.5646C88.5646 92.175 88.4563 91.5583 88.2396 91.025C88.023 90.4917 87.6896 90.075 87.2396 89.775C86.7896 89.475 86.2146 89.325 85.5146 89.325Z" fill="black"/>
<path d="M159.706 101L157.806 95.85H150.906L149.006 101H146.206L152.981 83.075H155.781L162.531 101H159.706ZM155.256 88.475C155.206 88.2917 155.114 88.0167 154.981 87.65C154.864 87.2667 154.748 86.8833 154.631 86.5C154.514 86.1 154.423 85.775 154.356 85.525C154.273 85.8583 154.173 86.225 154.056 86.625C153.956 87.0083 153.856 87.3667 153.756 87.7C153.656 88.0167 153.573 88.275 153.506 88.475L151.706 93.5H157.056L155.256 88.475ZM171.213 89.55H167.888V101H165.238V89.55H162.963V88.3L165.238 87.475V86.625C165.238 85.475 165.413 84.5583 165.763 83.875C166.13 83.175 166.647 82.6667 167.313 82.35C167.98 82.0333 168.788 81.875 169.738 81.875C170.322 81.875 170.855 81.925 171.338 82.025C171.822 82.125 172.23 82.2333 172.563 82.35L171.888 84.375C171.622 84.2917 171.313 84.2167 170.963 84.15C170.613 84.0667 170.247 84.025 169.863 84.025C169.197 84.025 168.697 84.2417 168.363 84.675C168.047 85.1083 167.888 85.7667 167.888 86.65V87.525H171.213V89.55ZM180.224 87.275C180.457 87.275 180.716 87.2917 180.999 87.325C181.282 87.3417 181.516 87.3667 181.699 87.4L181.424 89.875C181.241 89.825 181.024 89.7833 180.774 89.75C180.524 89.7167 180.291 89.7 180.074 89.7C179.574 89.7 179.091 89.8 178.624 90C178.174 90.1833 177.766 90.4583 177.399 90.825C177.032 91.175 176.741 91.6083 176.524 92.125C176.324 92.6417 176.224 93.2333 176.224 93.9V101H173.574V87.525H175.674L176.024 89.925H176.124C176.407 89.4417 176.749 89 177.149 88.6C177.549 88.2 178.007 87.8833 178.524 87.65C179.041 87.4 179.607 87.275 180.224 87.275ZM189.006 87.275C190.189 87.275 191.206 87.525 192.056 88.025C192.906 88.5083 193.556 89.2083 194.006 90.125C194.473 91.0417 194.706 92.125 194.706 93.375V94.825H185.656C185.689 96.2083 186.048 97.2667 186.731 98C187.431 98.7333 188.406 99.1 189.656 99.1C190.523 99.1 191.289 99.025 191.956 98.875C192.639 98.7083 193.339 98.4667 194.056 98.15V100.35C193.389 100.65 192.706 100.875 192.006 101.025C191.323 101.175 190.506 101.25 189.556 101.25C188.256 101.25 187.106 100.992 186.106 100.475C185.106 99.9583 184.323 99.1917 183.756 98.175C183.206 97.1417 182.931 95.875 182.931 94.375C182.931 92.8583 183.181 91.575 183.681 90.525C184.198 89.475 184.906 88.675 185.806 88.125C186.723 87.5583 187.789 87.275 189.006 87.275ZM189.006 89.325C188.056 89.325 187.289 89.6333 186.706 90.25C186.139 90.8667 185.806 91.7417 185.706 92.875H192.056C192.056 92.175 191.948 91.5583 191.731 91.025C191.514 90.4917 191.181 90.075 190.731 89.775C190.281 89.475 189.706 89.325 189.006 89.325ZM206.963 97.2C206.963 98.0833 206.746 98.825 206.313 99.425C205.879 100.025 205.254 100.483 204.438 100.8C203.621 101.1 202.638 101.25 201.488 101.25C200.538 101.25 199.721 101.175 199.038 101.025C198.371 100.892 197.754 100.692 197.188 100.425V98.1C197.788 98.3833 198.479 98.6417 199.263 98.875C200.046 99.0917 200.813 99.2 201.563 99.2C202.563 99.2 203.279 99.0417 203.713 98.725C204.163 98.4083 204.388 97.9833 204.388 97.45C204.388 97.15 204.304 96.8833 204.138 96.65C203.971 96.4 203.654 96.15 203.188 95.9C202.738 95.6333 202.071 95.3333 201.188 95C200.338 94.65 199.613 94.3083 199.013 93.975C198.413 93.625 197.954 93.2167 197.638 92.75C197.321 92.2667 197.163 91.65 197.163 90.9C197.163 89.7333 197.629 88.8417 198.563 88.225C199.513 87.5917 200.763 87.275 202.313 87.275C203.129 87.275 203.896 87.3583 204.613 87.525C205.346 87.675 206.054 87.9083 206.738 88.225L205.863 90.25C205.479 90.0667 205.079 89.9167 204.663 89.8C204.263 89.6667 203.854 89.5583 203.438 89.475C203.038 89.3917 202.621 89.35 202.188 89.35C201.388 89.35 200.779 89.475 200.363 89.725C199.946 89.975 199.738 90.325 199.738 90.775C199.738 91.0917 199.829 91.3667 200.013 91.6C200.213 91.8333 200.554 92.0667 201.038 92.3C201.521 92.5333 202.179 92.8167 203.013 93.15C203.846 93.4667 204.554 93.7917 205.138 94.125C205.738 94.4583 206.188 94.8667 206.488 95.35C206.804 95.8333 206.963 96.45 206.963 97.2ZM212.772 87.075C212.772 87.4917 212.755 87.9083 212.722 88.325C212.689 88.7417 212.655 89.0833 212.622 89.35H212.797C213.08 88.8833 213.43 88.5 213.847 88.2C214.28 87.9 214.755 87.675 215.272 87.525C215.805 87.375 216.347 87.3 216.897 87.3C217.964 87.3 218.855 87.475 219.572 87.825C220.305 88.1583 220.855 88.6917 221.222 89.425C221.605 90.1417 221.797 91.075 221.797 92.225V101H219.172V92.6C219.172 91.55 218.947 90.7667 218.497 90.25C218.064 89.7167 217.364 89.45 216.397 89.45C215.48 89.45 214.755 89.6333 214.222 90C213.705 90.3667 213.33 90.9083 213.097 91.625C212.88 92.325 212.772 93.1917 212.772 94.225V101H210.122V82H212.772V87.075Z" fill="black"/>
<path d="M276.456 101L274.556 95.85H267.656L265.756 101H262.956L269.731 83.075H272.531L279.281 101H276.456ZM272.006 88.475C271.956 88.2917 271.864 88.0167 271.731 87.65C271.614 87.2667 271.497 86.8833 271.381 86.5C271.264 86.1 271.172 85.775 271.106 85.525C271.022 85.8583 270.922 86.225 270.806 86.625C270.706 87.0083 270.606 87.3667 270.506 87.7C270.406 88.0167 270.322 88.275 270.256 88.475L268.456 93.5H273.806L272.006 88.475ZM286.238 99.1C286.588 99.1 286.946 99.0667 287.313 99C287.68 98.9333 287.996 98.8583 288.263 98.775V100.775C287.98 100.908 287.596 101.017 287.113 101.1C286.63 101.2 286.146 101.25 285.663 101.25C284.93 101.25 284.255 101.125 283.638 100.875C283.038 100.625 282.555 100.192 282.188 99.575C281.821 98.9583 281.638 98.1 281.638 97V89.55H279.763V88.35L281.738 87.35L282.663 84.5H284.288V87.525H288.138V89.55H284.288V96.95C284.288 97.6833 284.463 98.225 284.813 98.575C285.18 98.925 285.655 99.1 286.238 99.1ZM295.808 99.1C296.158 99.1 296.517 99.0667 296.883 99C297.25 98.9333 297.567 98.8583 297.833 98.775V100.775C297.55 100.908 297.167 101.017 296.683 101.1C296.2 101.2 295.717 101.25 295.233 101.25C294.5 101.25 293.825 101.125 293.208 100.875C292.608 100.625 292.125 100.192 291.758 99.575C291.392 98.9583 291.208 98.1 291.208 97V89.55H289.333V88.35L291.308 87.35L292.233 84.5H293.858V87.525H297.708V89.55H293.858V96.95C293.858 97.6833 294.033 98.225 294.383 98.575C294.75 98.925 295.225 99.1 295.808 99.1ZM307.179 87.275C307.412 87.275 307.67 87.2917 307.954 87.325C308.237 87.3417 308.47 87.3667 308.654 87.4L308.379 89.875C308.195 89.825 307.979 89.7833 307.729 89.75C307.479 89.7167 307.245 89.7 307.029 89.7C306.529 89.7 306.045 89.8 305.579 90C305.129 90.1833 304.72 90.4583 304.354 90.825C303.987 91.175 303.695 91.6083 303.479 92.125C303.279 92.6417 303.179 93.2333 303.179 93.9V101H300.529V87.525H302.629L302.979 89.925H303.079C303.362 89.4417 303.704 89 304.104 88.6C304.504 88.2 304.962 87.8833 305.479 87.65C305.995 87.4 306.562 87.275 307.179 87.275ZM315.885 87.275C317.585 87.275 318.852 87.65 319.685 88.4C320.519 89.1333 320.935 90.2917 320.935 91.875V101H319.06L318.535 99.125H318.435C318.052 99.6083 317.652 100.008 317.235 100.325C316.835 100.642 316.369 100.875 315.835 101.025C315.319 101.175 314.685 101.25 313.935 101.25C313.135 101.25 312.41 101.108 311.76 100.825C311.127 100.525 310.627 100.075 310.26 99.475C309.894 98.8583 309.71 98.0917 309.71 97.175C309.71 95.8083 310.227 94.7667 311.26 94.05C312.31 93.3333 313.902 92.9417 316.035 92.875L318.335 92.8V92.05C318.335 91.05 318.11 90.35 317.66 89.95C317.21 89.55 316.577 89.35 315.76 89.35C315.06 89.35 314.394 89.45 313.76 89.65C313.127 89.85 312.527 90.0917 311.96 90.375L311.11 88.45C311.744 88.1167 312.469 87.8417 313.285 87.625C314.119 87.3917 314.985 87.275 315.885 87.275ZM316.51 94.575C314.977 94.6417 313.91 94.9 313.31 95.35C312.727 95.7833 312.435 96.4 312.435 97.2C312.435 97.9 312.644 98.4083 313.06 98.725C313.494 99.0417 314.035 99.2 314.685 99.2C315.735 99.2 316.602 98.9083 317.285 98.325C317.969 97.7417 318.31 96.8667 318.31 95.7V94.525L316.51 94.575ZM330.441 101.25C329.208 101.25 328.124 101.008 327.191 100.525C326.258 100.042 325.533 99.2917 325.016 98.275C324.499 97.2417 324.241 95.9333 324.241 94.35C324.241 92.6833 324.516 91.3333 325.066 90.3C325.633 89.2667 326.391 88.5083 327.341 88.025C328.308 87.525 329.408 87.275 330.641 87.275C331.391 87.275 332.091 87.3583 332.741 87.525C333.408 87.675 333.958 87.85 334.391 88.05L333.591 90.2C333.124 90.0167 332.624 89.8583 332.091 89.725C331.574 89.5917 331.083 89.525 330.616 89.525C329.783 89.525 329.091 89.7083 328.541 90.075C328.008 90.425 327.608 90.9583 327.341 91.675C327.091 92.375 326.966 93.2583 326.966 94.325C326.966 95.3417 327.099 96.2 327.366 96.9C327.633 97.6 328.024 98.1333 328.541 98.5C329.074 98.85 329.733 99.025 330.516 99.025C331.266 99.025 331.924 98.9417 332.491 98.775C333.058 98.6083 333.591 98.3917 334.091 98.125V100.425C333.608 100.708 333.083 100.917 332.516 101.05C331.949 101.183 331.258 101.25 330.441 101.25ZM342.122 99.1C342.472 99.1 342.83 99.0667 343.197 99C343.563 98.9333 343.88 98.8583 344.147 98.775V100.775C343.863 100.908 343.48 101.017 342.997 101.1C342.513 101.2 342.03 101.25 341.547 101.25C340.813 101.25 340.138 101.125 339.522 100.875C338.922 100.625 338.438 100.192 338.072 99.575C337.705 98.9583 337.522 98.1 337.522 97V89.55H335.647V88.35L337.622 87.35L338.547 84.5H340.172V87.525H344.022V89.55H340.172V96.95C340.172 97.6833 340.347 98.225 340.697 98.575C341.063 98.925 341.538 99.1 342.122 99.1ZM349.492 87.525V101H346.842V87.525H349.492ZM348.192 82.4C348.592 82.4 348.942 82.5167 349.242 82.75C349.542 82.9833 349.692 83.375 349.692 83.925C349.692 84.4583 349.542 84.85 349.242 85.1C348.942 85.3333 348.592 85.45 348.192 85.45C347.759 85.45 347.392 85.3333 347.092 85.1C346.809 84.85 346.667 84.4583 346.667 83.925C346.667 83.375 346.809 82.9833 347.092 82.75C347.392 82.5167 347.759 82.4 348.192 82.4ZM356.679 101L351.579 87.525H354.379L357.179 95.4C357.295 95.7333 357.412 96.1083 357.529 96.525C357.662 96.9417 357.779 97.3417 357.879 97.725C357.979 98.1083 358.045 98.4417 358.079 98.725H358.179C358.229 98.4417 358.304 98.1083 358.404 97.725C358.52 97.325 358.645 96.925 358.779 96.525C358.912 96.1083 359.029 95.7333 359.129 95.4L361.929 87.525H364.729L359.604 101H356.679ZM372.113 87.275C373.296 87.275 374.313 87.525 375.163 88.025C376.013 88.5083 376.663 89.2083 377.113 90.125C377.579 91.0417 377.813 92.125 377.813 93.375V94.825H368.763C368.796 96.2083 369.154 97.2667 369.838 98C370.538 98.7333 371.513 99.1 372.763 99.1C373.629 99.1 374.396 99.025 375.063 98.875C375.746 98.7083 376.446 98.4667 377.163 98.15V100.35C376.496 100.65 375.813 100.875 375.113 101.025C374.429 101.175 373.613 101.25 372.663 101.25C371.363 101.25 370.213 100.992 369.213 100.475C368.213 99.9583 367.429 99.1917 366.863 98.175C366.313 97.1417 366.038 95.875 366.038 94.375C366.038 92.8583 366.288 91.575 366.788 90.525C367.304 89.475 368.013 88.675 368.913 88.125C369.829 87.5583 370.896 87.275 372.113 87.275ZM372.113 89.325C371.163 89.325 370.396 89.6333 369.813 90.25C369.246 90.8667 368.913 91.7417 368.813 92.875H375.163C375.163 92.175 375.054 91.5583 374.838 91.025C374.621 90.4917 374.288 90.075 373.838 89.775C373.388 89.475 372.813 89.325 372.113 89.325Z" fill="black"/>
<path d="M527.491 96.175C527.491 97.2417 527.232 98.15 526.716 98.9C526.199 99.65 525.457 100.233 524.491 100.65C523.524 101.05 522.374 101.25 521.041 101.25C520.391 101.25 519.766 101.208 519.166 101.125C518.566 101.058 518.007 100.958 517.491 100.825C516.974 100.692 516.516 100.525 516.116 100.325V97.775C516.782 98.075 517.566 98.35 518.466 98.6C519.366 98.8333 520.282 98.95 521.216 98.95C522.016 98.95 522.682 98.8417 523.216 98.625C523.749 98.4083 524.149 98.1083 524.416 97.725C524.682 97.3417 524.816 96.8917 524.816 96.375C524.816 95.825 524.674 95.3667 524.391 95C524.124 94.6167 523.699 94.2667 523.116 93.95C522.549 93.6167 521.782 93.2667 520.816 92.9C520.149 92.65 519.541 92.375 518.991 92.075C518.457 91.7583 517.982 91.3917 517.566 90.975C517.166 90.5583 516.857 90.075 516.641 89.525C516.424 88.975 516.316 88.3333 516.316 87.6C516.316 86.6167 516.557 85.775 517.041 85.075C517.541 84.375 518.224 83.8417 519.091 83.475C519.957 83.0917 520.966 82.9 522.116 82.9C523.082 82.9 523.974 83 524.791 83.2C525.624 83.3833 526.416 83.6417 527.166 83.975L526.316 86.2C525.632 85.9167 524.941 85.6833 524.241 85.5C523.541 85.3167 522.807 85.225 522.041 85.225C521.374 85.225 520.816 85.325 520.366 85.525C519.916 85.725 519.574 86 519.341 86.35C519.124 86.7 519.016 87.1083 519.016 87.575C519.016 88.125 519.141 88.5833 519.391 88.95C519.641 89.3167 520.041 89.6583 520.591 89.975C521.141 90.275 521.866 90.6083 522.766 90.975C523.766 91.3583 524.616 91.775 525.316 92.225C526.032 92.675 526.574 93.2167 526.941 93.85C527.307 94.4667 527.491 95.2417 527.491 96.175ZM533.311 91.5C533.311 91.85 533.294 92.25 533.261 92.7C533.244 93.15 533.219 93.5667 533.186 93.95H533.261C533.394 93.7833 533.553 93.5833 533.736 93.35C533.936 93.1 534.136 92.85 534.336 92.6C534.536 92.35 534.719 92.1333 534.886 91.95L539.011 87.525H542.086L536.661 93.3L542.436 101H539.311L534.861 94.975L533.311 96.275V101H530.686V82H533.311V91.5ZM547.301 87.525V101H544.651V87.525H547.301ZM546.001 82.4C546.401 82.4 546.751 82.5167 547.051 82.75C547.351 82.9833 547.501 83.375 547.501 83.925C547.501 84.4583 547.351 84.85 547.051 85.1C546.751 85.3333 546.401 85.45 546.001 85.45C545.567 85.45 545.201 85.3333 544.901 85.1C544.617 84.85 544.476 84.4583 544.476 83.925C544.476 83.375 544.617 82.9833 544.901 82.75C545.201 82.5167 545.567 82.4 546.001 82.4ZM558.287 87.275C559.854 87.275 561.054 87.6667 561.887 88.45C562.721 89.2333 563.137 90.4917 563.137 92.225V101H560.512V92.6C560.512 91.55 560.287 90.7667 559.837 90.25C559.404 89.7167 558.704 89.45 557.737 89.45C556.371 89.45 555.421 89.8583 554.887 90.675C554.371 91.4917 554.112 92.6667 554.112 94.2V101H551.462V87.525H553.562L553.937 89.325H554.087C554.387 88.8583 554.754 88.475 555.187 88.175C555.621 87.875 556.104 87.65 556.637 87.5C557.171 87.35 557.721 87.275 558.287 87.275Z" fill="black"/>
</svg>
